<svg xmlns="http://www.w3.org/2000/svg" width="261" height="76" fill="none"><rect width="257" height="72" x="1.971" y="1.904" fill="#fff" rx="6.5"/><rect width="257" height="72" x="1.971" y="1.904" stroke="#252424" stroke-width="3" rx="6.5"/><path fill="#252424" d="M51.183 48.904H47.15l-5.217-8.128-5.183 8.128h-3.936l7.328-10.72-6.752-10.4h4.032l4.831 7.68 4.897-7.68h3.743l-6.847 10.272zm19.643 0h-4.032l-5.216-8.128-5.184 8.128h-3.936l7.328-10.72-6.752-10.4h4.032l4.832 7.68 4.896-7.68h3.744L63.69 38.056zm12.456-10.016v3.168H72.37v-3.168zm7.757 10.016V33.096l.064-1.472a11.4 11.4 0 0 1-2.496 1.824q-1.377.735-2.849 1.056l-.64-2.976q.673-.096 1.569-.448a15 15 0 0 0 1.856-.896q.96-.544 1.76-1.152.8-.64 1.248-1.248h2.88v21.12zm8.419 0v-2.496q3.04-2.177 5.087-3.84 2.08-1.665 3.328-3.072 1.249-1.408 1.792-2.656a6.3 6.3 0 0 0 .576-2.592q0-1.696-1.056-2.752t-2.944-1.056q-1.983 0-3.168 1.344-1.152 1.312-1.312 3.616l-2.975-1.376q.223-2.016 1.183-3.488a6.4 6.4 0 0 1 2.592-2.272q1.665-.8 3.84-.8 1.792 0 3.136.512 1.377.512 2.304 1.44a5.9 5.9 0 0 1 1.408 2.112q.513 1.215.512 2.592 0 2.016-.992 3.904-.991 1.855-3.136 3.808-2.143 1.951-5.632 4.192v.064a7 7 0 0 1 1.056-.064q.672-.032 1.344-.032.672-.032 1.088-.032h6.656v2.944zm25.717.32q-2.976 0-5.184-1.312-2.176-1.344-2.976-3.744l3.328-1.568q.288 1.152.896 1.984.607.831 1.6 1.28.991.416 2.464.416 1.248 0 2.112-.448a3.1 3.1 0 0 0 1.312-1.248q.48-.801.48-1.824 0-1.056-.416-1.76-.384-.705-1.248-1.024-.833-.32-2.144-.32-.384 0-.8.032a6 6 0 0 0-.832.064v-2.88q.288.031.544.064h.544q2.079 0 2.976-.832t.896-2.592q0-1.505-.928-2.304-.897-.8-2.592-.8-1.76 0-2.752.832-.96.8-1.472 2.336l-3.136-1.312q.448-1.473 1.504-2.56 1.056-1.088 2.592-1.664 1.567-.608 3.424-.608 2.271 0 3.776.736 1.536.735 2.272 2.016.768 1.28.768 2.848 0 1.215-.352 2.144a5.1 5.1 0 0 1-.96 1.568 4.3 4.3 0 0 1-1.28.992 4.8 4.8 0 0 1-1.376.48v.064q.927.032 1.696.384a4.2 4.2 0 0 1 1.408.928q.64.576.992 1.408.352.831.352 1.824 0 1.92-.96 3.36t-2.656 2.24q-1.665.8-3.872.8m20.886-.32v-5.28h-10.304v-2.336q.063-.16.192-.384.16-.224.352-.512l8.8-12.608h4.192v13.184h3.584v2.656h-3.584v5.28zm-7.104-7.936h7.104v-7.456q0-.768.032-1.568.063-.832.096-1.632h-.064a16 16 0 0 1-.928 1.696q-.544.896-1.024 1.568l-4.992 7.104-.128.128a2 2 0 0 1-.096.16m24.282 8.256q-2.816 0-4.64-1.216-1.792-1.216-2.848-3.52l3.2-1.664q.48 1.536 1.44 2.528.992.96 2.912.96 1.344 0 2.272-.48a3.6 3.6 0 0 0 1.472-1.408q.512-.928.512-2.208 0-1.344-.48-2.24a3.1 3.1 0 0 0-1.376-1.344q-.896-.48-2.24-.48-.929 0-1.728.192a4.6 4.6 0 0 0-1.44.608 3.9 3.9 0 0 0-1.12 1.024l-2.816-.544 1.28-11.648h12.288v2.944h-9.568l-.768 5.952-.064.352h.064q.736-.801 1.888-1.248 1.183-.448 2.784-.448 2.048 0 3.52.864a5.9 5.9 0 0 1 2.304 2.336q.832 1.503.832 3.488 0 1.728-.576 3.072a6.3 6.3 0 0 1-1.632 2.272 7.2 7.2 0 0 1-2.464 1.408q-1.376.447-3.008.448m19.769-21.76q1.696 0 3.008.48a5.66 5.66 0 0 1 2.272 1.44q.991.991 1.632 2.592l-3.008 1.44q-.449-1.377-1.44-2.176-.96-.8-2.688-.8-1.248 0-2.208.608-.96.607-1.632 1.728-.672 1.088-1.024 2.592-.352 1.472-.352 3.2v.576l.128.064q.353-1.28 1.248-2.048a6.1 6.1 0 0 1 2.08-1.184 7.2 7.2 0 0 1 2.272-.384q2.112 0 3.68.832a5.77 5.77 0 0 1 2.432 2.304q.896 1.503.896 3.584 0 2.111-.928 3.68-.929 1.536-2.592 2.4-1.632.831-3.936.832-2.688 0-4.576-1.344t-2.88-3.776-.992-5.696q0-3.617 1.12-6.048 1.152-2.433 3.104-3.648 1.952-1.248 4.384-1.248m-.224 10.976q-1.216 0-2.144.512a3.73 3.73 0 0 0-1.472 1.344q-.512.864-.512 2.016 0 1.119.544 2.016a4.4 4.4 0 0 0 1.504 1.44q.928.512 2.08.512 1.952 0 3.04-1.056t1.088-2.912q0-1.184-.48-2.048a3.07 3.07 0 0 0-1.408-1.344q-.896-.48-2.24-.48m9.837-10.656h16.096v2.848q-2.656 2.751-4.288 5.664a22.7 22.7 0 0 0-2.368 6.016q-.704 3.103-.704 6.592h-3.456q0-3.52.864-6.848a25.5 25.5 0 0 1 2.688-6.4q1.824-3.072 4.576-5.76l.64.864h-14.048zm26.285-.288q2.145 0 3.712.704 1.6.672 2.464 1.92t.864 3.008q0 1.632-.8 2.88-.768 1.215-2.272 1.856v.032q1.824.672 2.88 2.016 1.088 1.311 1.088 3.264 0 1.888-.992 3.232-.96 1.344-2.752 2.08-1.76.736-4.192.736-2.431 0-4.224-.736-1.76-.736-2.752-2.08t-.992-3.232q0-1.92 1.056-3.264t2.944-2.016v-.032q-1.44-.609-2.272-1.824-.832-1.248-.832-2.912 0-1.76.864-3.008t2.464-1.92q1.6-.704 3.744-.704m0 2.88q-1.695 0-2.72.832-.992.831-.992 2.272t1.024 2.272q1.025.8 2.688.8 1.665 0 2.656-.8 1.024-.832 1.024-2.272t-.992-2.272-2.688-.832m0 15.968q1.409 0 2.4-.416.993-.417 1.536-1.216.544-.8.544-1.856 0-1.12-.576-1.888-.543-.8-1.536-1.216-.991-.416-2.368-.416-1.344 0-2.368.416-1.023.415-1.6 1.216-.544.768-.544 1.888 0 1.056.544 1.856.545.8 1.568 1.216 1.025.416 2.4.416"/></svg>
