<svg xmlns="http://www.w3.org/2000/svg" width="217" height="331" fill="none"><rect width="213" height="300" x="1.598" y="29.09" fill="#C4C2BE" rx="14.5"/><rect width="213" height="300" x="1.598" y="29.09" stroke="#252424" stroke-width="3" rx="14.5"/><rect width="178" height="231" x="19.895" y="78.518" fill="#F5F2EE" rx="14.5"/><rect width="178" height="231" x="19.895" y="78.518" stroke="#252424" stroke-width="3" rx="14.5"/><path fill="#fff" d="M38.434 111.473c0-5.523 4.477-10 10-10H74.84c5.523 0 10 4.477 10 10v26.406c0 5.523-4.477 10-10 10H48.434c-5.523 0-10-4.477-10-10z"/><path fill="#252424" fill-rule="evenodd" d="M74.84 104.473H48.434a7 7 0 0 0-7 7v26.406a7 7 0 0 0 7 7H74.84a7 7 0 0 0 7-7v-26.406a7 7 0 0 0-7-7m-26.406-3c-5.523 0-10 4.477-10 10v26.406c0 5.523 4.477 10 10 10H74.84c5.523 0 10-4.477 10-10v-26.406c0-5.523-4.477-10-10-10z" clip-rule="evenodd"/><path fill="#fff" d="M38.434 178.887c0-5.523 4.477-10 10-10H74.84c5.523 0 10 4.477 10 10v26.406c0 5.523-4.477 10-10 10H48.434c-5.523 0-10-4.477-10-10z"/><path fill="#252424" fill-rule="evenodd" d="M74.84 171.887H48.434a7 7 0 0 0-7 7v26.406a7 7 0 0 0 7 7H74.84a7 7 0 0 0 7-7v-26.406a7 7 0 0 0-7-7m-26.406-3c-5.523 0-10 4.477-10 10v26.406c0 5.523 4.477 10 10 10H74.84c5.523 0 10-4.477 10-10v-26.406c0-5.523-4.477-10-10-10z" clip-rule="evenodd"/><path fill="#fff" d="M38.434 246.299c0-5.523 4.477-10 10-10H74.84c5.523 0 10 4.477 10 10v26.406c0 5.523-4.477 10-10 10H48.434c-5.523 0-10-4.477-10-10z"/><path fill="#252424" fill-rule="evenodd" d="M74.84 239.299H48.434a7 7 0 0 0-7 7v26.406a7 7 0 0 0 7 7H74.84a7 7 0 0 0 7-7v-26.406a7 7 0 0 0-7-7m-26.406-3c-5.523 0-10 4.477-10 10v26.406c0 5.523 4.477 10 10 10H74.84c5.523 0 10-4.477 10-10v-26.406c0-5.523-4.477-10-10-10z" clip-rule="evenodd"/><path fill="#11AA5E" fill-rule="evenodd" d="M88.044 105.714a1.5 1.5 0 0 1 .013 2.121l-25.032 25.338a1.5 1.5 0 0 1-2.135 0l-12.516-12.669a1.5 1.5 0 1 1 2.134-2.108l11.45 11.588 23.965-24.257a1.5 1.5 0 0 1 2.121-.013m0 67.414a1.5 1.5 0 0 1 .013 2.122l-25.032 25.337a1.5 1.5 0 0 1-2.135 0l-12.516-12.669a1.5 1.5 0 1 1 2.134-2.108l11.45 11.589 23.965-24.258a1.5 1.5 0 0 1 2.121-.013" clip-rule="evenodd"/><path fill="#252424" fill-rule="evenodd" d="M96.76 116.592a1.5 1.5 0 0 1 1.5-1.5h41.754a1.5 1.5 0 1 1 0 3H98.26a1.5 1.5 0 0 1-1.5-1.5m0 67.414a1.5 1.5 0 0 1 1.5-1.5h13.691a1.5 1.5 0 1 1 0 3H98.26a1.5 1.5 0 0 1-1.5-1.5m67.414 83.58a1.5 1.5 0 0 1-1.5 1.5h-12.272a1.5 1.5 0 0 1 0-3h12.272a1.5 1.5 0 0 1 1.5 1.5" clip-rule="evenodd"/><path fill="#11AA5E" fill-rule="evenodd" d="M151.086 116.592a1.5 1.5 0 0 1 1.5-1.5h20.176a1.5 1.5 0 1 1 0 3h-20.176a1.5 1.5 0 0 1-1.5-1.5m-28.004 67.414a1.5 1.5 0 0 1 1.5-1.5h48.181a1.5 1.5 0 1 1 0 3h-48.181a1.5 1.5 0 0 1-1.5-1.5m16.217 83.58a1.5 1.5 0 0 1-1.5 1.5H97.534a1.5 1.5 0 0 1 0-3H137.8a1.5 1.5 0 0 1 1.5 1.5" clip-rule="evenodd"/><path fill="#252424" fill-rule="evenodd" d="M96.035 132.76a1.5 1.5 0 0 1 1.5-1.5h75.228a1.5 1.5 0 1 1 0 3H97.535a1.5 1.5 0 0 1-1.5-1.5m0 67.412a1.5 1.5 0 0 1 1.5-1.5h52.868a1.5 1.5 0 1 1 0 3H97.535a1.5 1.5 0 0 1-1.5-1.5m78.227 51.246a1.5 1.5 0 0 1-1.5 1.5H97.534a1.5 1.5 0 0 1 0-3h75.228a1.5 1.5 0 0 1 1.5 1.5" clip-rule="evenodd"/><path fill="#FBFAF8" fill-rule="evenodd" d="M135.642 27.509c0-15.017-12.174-27.19-27.191-27.19s-27.19 12.173-27.19 27.19H63.098c-8.837 0-16 7.163-16 16v9.89c0 8.837 7.163 16 16 16h90.708c8.836 0 16-7.163 16-16v-9.89c0-8.837-7.164-16-16-16z" clip-rule="evenodd"/><path fill="#252424" fill-rule="evenodd" d="M132.642 30.509v-3c0-13.36-10.831-24.19-24.191-24.19s-24.19 10.83-24.19 24.19v3H63.098c-7.18 0-13 5.82-13 13v9.89c0 7.18 5.82 13 13 13h90.708c7.179 0 13-5.82 13-13v-9.89c0-7.18-5.821-13-13-13zm21.164-3c8.836 0 16 7.163 16 16v9.89c0 8.837-7.164 16-16 16H63.098c-8.837 0-16-7.163-16-16v-9.89c0-8.837 7.163-16 16-16H81.26c0-15.017 12.173-27.19 27.19-27.19s27.191 12.173 27.191 27.19z" clip-rule="evenodd"/><path fill="#C4C2BE" d="M118.674 26.985c0 5.647-4.577 10.224-10.224 10.224-5.646 0-10.223-4.577-10.223-10.224 0-5.646 4.577-10.223 10.223-10.223s10.224 4.577 10.224 10.223"/></svg>
