<svg width="118" height="106" viewBox="0 0 118 106" fill="none" xmlns="http://www.w3.org/2000/svg">
<g id="SVG Image 14" clip-path="url(#clip0_1508_53151)">
<path id="Vector" d="M36.4031 5.17552L18.9524 11.1072L17.9844 58.0212L21.863 73.2397L33.188 87.0836L44.1988 94.7987L59.4024 102.62L73.5578 94.7987L87.2933 85.1823L99.0381 64.6798L100.224 13.2541L95.2509 8.03798L61.5661 3.33398L36.4031 5.17552Z" fill="white"/>
<path id="Vector_2" d="M116.699 87.5476H82.7525L96.145 63.627H116.699L107.183 75.5937L116.699 87.5476ZM1.30127 87.5476H35.1287L21.8548 63.627H1.30127L10.8167 75.5937L1.30127 87.5476Z" fill="#00A887"/>
<path id="Vector_3" d="M58.9888 104.825L58.1314 104.469C54.8249 103.087 46.191 99.171 37.5314 92.6497C31.2278 87.9021 26.208 82.7377 22.6163 77.3181C18.119 70.5383 15.8479 63.3191 15.8479 55.8561V8.31853L17.441 7.74345C30.6498 2.98354 44.5686 0.533818 58.5962 0.500065H58.976C73.1316 0.485412 87.1833 2.93592 100.511 7.74345L102.104 8.31853V55.8431C102.104 63.6261 99.8443 71.0407 95.3839 77.8802C91.805 83.3628 86.8204 88.4901 80.5521 93.1133C71.8925 99.5135 63.1864 103.197 59.8559 104.482L58.9888 104.812V104.825ZM20.5936 11.8061V55.8561C20.5936 62.3176 22.5922 68.6063 26.5398 74.5654C29.835 79.5328 34.4733 84.2917 40.3394 88.7098C47.9043 94.4121 55.4436 98.0095 59.0594 99.5748C62.688 98.1194 70.2513 94.7174 77.781 89.1508C83.5845 84.8538 88.1763 80.1563 91.4363 75.1648C95.3598 69.1442 97.3472 62.6455 97.3472 55.8561V11.8061C84.8864 7.49458 71.7947 5.32663 58.6202 5.39307C45.6858 5.41707 32.8433 7.58421 20.6064 11.8078L20.5936 11.8061Z" fill="black"/>
<path id="Vector_4" d="M48.0694 34.3091V16.5301C48.0694 15.7095 47.4283 15.0488 46.6301 15.0488H42.455C42.2639 15.0505 42.075 15.0902 41.8992 15.1656C41.7233 15.241 41.564 15.3507 41.4302 15.4883C41.2965 15.6259 41.1911 15.7888 41.12 15.9676C41.0488 16.1464 41.0134 16.3375 41.0157 16.5301V39.7416C41.0157 40.5606 41.6584 41.2229 42.455 41.2229H53.8264C54.1643 41.2201 54.4978 41.1456 54.8051 41.0042C55.1125 40.8628 55.3868 40.6577 55.6103 40.4023L59.1555 36.2911C59.5723 35.8146 59.2373 35.0667 58.6202 35.0667H48.7826C48.5917 35.0641 48.4096 34.9856 48.276 34.8482C48.1424 34.7108 48.0681 34.5257 48.0694 34.3333V34.3091Z" fill="black"/>
<path id="Vector_5" d="M75.7359 25.6688H60.4617C60.1242 25.6718 59.791 25.7464 59.4839 25.8878C59.1768 26.0291 58.9028 26.2341 58.6795 26.4894L55.1583 30.5634C54.7416 31.0399 55.0749 31.7878 55.6936 31.7878H66.3726C66.7894 31.7878 67.0041 32.2886 66.7301 32.6068L55.2865 45.8578C54.8954 46.3102 54.6807 46.8868 54.6807 47.4975V50.3615C54.6807 51.1805 55.3218 51.8412 56.1199 51.8412H75.9602C76.1512 51.8395 76.34 51.7999 76.5157 51.7246C76.6915 51.6493 76.8507 51.5398 76.9844 51.4023C77.1181 51.2649 77.2236 51.1022 77.2948 50.9236C77.366 50.745 77.4016 50.554 77.3995 50.3615V47.1792C77.4016 46.9868 77.366 46.7958 77.2948 46.6172C77.2236 46.4386 77.1181 46.2759 76.9844 46.1385C76.8507 46.001 76.6915 45.8915 76.5157 45.8162C76.34 45.7409 76.1512 45.7012 75.9602 45.6995H65.4927C65.076 45.6995 64.8629 45.1988 65.1353 44.8789L76.5789 31.6279C76.97 31.1756 77.1847 30.6005 77.1847 29.9883V27.1258C77.1847 26.3052 76.5436 25.6445 75.7455 25.6445L75.7359 25.6688Z" fill="black"/>
<path id="Vector_6" d="M102.011 59.0742H15.9888L18.215 82.9965H99.7255L102.011 59.0742Z" fill="#00A887"/>
<path id="Vector_7" d="M21.7716 75.7154C21.0696 75.7154 20.4509 75.5555 19.9156 75.2372C19.3639 74.9079 18.9242 74.418 18.6542 73.8318C18.3577 73.2067 18.2039 72.4588 18.2039 71.5671C18.2039 70.6738 18.3577 69.9517 18.6783 69.3282C18.9988 68.703 19.4524 68.2265 20.047 67.8953C20.64 67.5658 21.3308 67.3945 22.129 67.3945C23.0201 67.3945 23.7333 67.5528 24.2814 67.8953C24.828 68.2265 25.2559 68.7515 25.554 69.4751L23.6628 70.2457C23.5554 69.8289 23.3775 69.5236 23.1147 69.3411C22.827 69.1467 22.4863 69.0479 22.1402 69.0584C21.7475 69.0584 21.4141 69.1553 21.1417 69.3395C20.8529 69.5519 20.6332 69.8459 20.5102 70.1843C20.3676 70.551 20.297 71.0162 20.297 71.5541C20.297 72.0937 20.3676 72.6074 20.5214 72.987C20.6657 73.365 20.89 73.6477 21.1769 73.8431C21.4622 74.0257 21.8309 74.1113 22.2588 74.1113C22.4848 74.1113 22.6995 74.0871 22.8887 74.0257C23.0708 73.9749 23.2409 73.8875 23.3887 73.7688C23.531 73.6591 23.6452 73.5168 23.7221 73.3537C23.8059 73.1695 23.8465 72.9683 23.8407 72.7657V72.6429H22.0456V71.2375H25.5781V75.5926H24.1853L24.0314 73.6961L24.3648 73.9901C24.1981 74.5394 23.9 74.9691 23.4721 75.2615C23.0441 75.5555 22.4848 75.7025 21.7956 75.7025L21.7716 75.7154ZM35.1512 67.5173V72.3005C35.1512 73.4393 34.8547 74.2955 34.2601 74.8705C33.6655 75.4327 32.7968 75.7154 31.6316 75.7154C30.4664 75.7154 29.609 75.4327 29.0143 74.8705C28.4213 74.3068 28.1232 73.4506 28.1232 72.3021V67.5173H30.1811V72.3376C30.1811 72.9127 30.2997 73.3537 30.5369 73.6348C30.7757 73.9158 31.1444 74.0628 31.6316 74.0628C32.1188 74.0628 32.4875 73.9175 32.7375 73.6348C32.9747 73.3537 33.0949 72.9127 33.0949 72.3376V67.5173H35.1512ZM44.7516 75.5926H42.6456L42.0991 73.7688H39.4097L38.852 75.5926H36.794L39.5523 67.5157H42.0045L44.75 75.5926H44.7516ZM39.7912 72.3376H41.7176L40.7544 69.0713L39.7912 72.3376ZM50.5664 67.5173C51.5072 67.5173 52.2332 67.737 52.7429 68.1893C53.2558 68.6416 53.5282 69.2425 53.5282 69.9888C53.5282 70.8078 53.267 71.4443 52.7557 71.8724C52.2428 72.3005 51.5184 72.5218 50.5792 72.5218L50.3885 72.6316H48.8306V75.5797H46.8192V67.506H50.5648V67.5189L50.5664 67.5173ZM50.2811 71.1519C50.6738 71.1519 50.9703 71.0647 51.1738 70.9064C51.3758 70.7465 51.4703 70.4783 51.4703 70.1229C51.4703 69.7675 51.3758 69.5107 51.1738 69.3524C50.9719 69.1925 50.6738 69.1068 50.2811 69.1068H48.8306V71.1503L50.2811 71.1519ZM51.4831 71.5913L53.993 75.5926H51.7332L49.7217 72.0549L51.4831 71.5913ZM63.6736 75.5926H61.5692L61.0227 73.7688H58.3333L57.7755 75.5926H55.7176L58.4759 67.5157H60.9281L63.6736 75.5926ZM58.7147 72.3376H60.6412L59.678 69.0713L58.7147 72.3376ZM72.8204 67.5173V75.5926H70.5493L68.1116 71.2246L67.5169 70.0244H67.5041L67.5522 71.5186V75.5926H65.7443V67.5157H68.0154L70.4548 71.8853L71.0478 73.0839H71.0606L71.0125 71.5913V67.5173H72.8204ZM82.2878 67.5173V69.144H79.7314V75.5926H77.6879V69.144H75.1187V67.5173H82.291H82.2878ZM84.5733 75.5926V67.5157H90.6861V69.144H86.6184V70.7836H89.8543V72.3134H86.6168V73.9643H90.84V75.5926H84.5733ZM93.0887 75.5926V67.5157H99.2031V69.144H95.1338V70.7836H98.3697V72.3134H95.1338V73.9643H99.357V75.5926H93.0887Z" fill="white"/>
</g>
<defs>
<clipPath id="clip0_1508_53151">
<rect width="117" height="105" fill="white" transform="translate(0.5 0.5)"/>
</clipPath>
</defs>
</svg>
