<?xml version="1.0" standalone="no"?>
<!DOCTYPE svg PUBLIC "-//W3C//DTD SVG 20010904//EN"
 "http://www.w3.org/TR/2001/REC-SVG-20010904/DTD/svg10.dtd">
<svg version="1.0" xmlns="http://www.w3.org/2000/svg"
 width="2034.000000pt" height="1546.000000pt" viewBox="0 0 2034.000000 1546.000000"
 preserveAspectRatio="xMidYMid meet">

<g transform="translate(0.000000,1546.000000) scale(0.100000,-0.100000)"
fill="#000000" stroke="none">
<path d="M2542 15409 c-80 -23 -154 -142 -138 -221 15 -73 18 -185 6 -276 -14
-110 -87 -532 -94 -539 -2 -2 -44 25 -92 60 -149 109 -322 215 -472 290 -123
61 -150 71 -195 71 -57 0 -117 -26 -154 -66 -45 -48 -51 -81 -63 -373 -14
-315 -10 -434 22 -609 29 -162 31 -440 4 -601 -25 -155 -83 -374 -165 -626
-109 -338 -132 -440 -207 -928 -24 -161 -58 -364 -75 -450 -52 -268 -208 -971
-241 -1086 -50 -175 -48 -201 61 -730 227 -1104 303 -1444 457 -2060 142 -565
214 -765 340 -952 149 -220 272 -328 574 -506 184 -108 313 -231 384 -366 56
-107 70 -169 68 -306 -1 -153 12 -198 79 -265 94 -94 269 -177 395 -188 37 -3
88 2 132 12 169 38 345 39 496 0 89 -22 268 -112 371 -185 49 -35 175 -147
280 -249 270 -263 411 -369 640 -480 455 -222 933 -245 1470 -72 94 30 124 35
210 36 93 1 105 -1 165 -30 36 -17 85 -51 109 -75 59 -58 265 -371 334 -506
62 -121 79 -173 103 -318 55 -333 218 -545 509 -660 88 -35 285 -85 334 -85
53 0 134 43 163 88 82 125 104 155 140 188 22 20 69 50 105 66 60 28 70 30
156 26 112 -5 180 -35 271 -118 153 -141 436 -673 630 -1185 120 -317 249
-535 416 -705 276 -281 627 -420 1065 -422 218 -2 265 16 318 117 31 59 26
123 -27 355 -103 447 -110 489 -110 670 -1 164 -1 165 30 230 17 36 56 94 88
130 66 76 120 176 136 257 17 79 8 223 -19 303 -12 36 -62 146 -112 245 -51
102 -93 198 -96 221 -5 39 -2 46 37 88 59 64 154 126 194 126 35 0 95 -37 308
-188 235 -167 365 -224 518 -225 145 -1 259 47 452 190 251 186 288 228 288
327 0 26 -27 159 -59 294 -33 136 -69 296 -81 357 -24 128 -30 116 86 171 214
100 586 135 774 71 123 -41 243 -98 277 -130 64 -60 135 -223 182 -416 39
-159 51 -264 55 -481 3 -127 9 -205 20 -249 65 -256 255 -409 746 -604 230
-91 476 -174 1050 -352 1038 -323 1366 -452 1515 -596 87 -84 167 -91 302 -25
103 50 146 94 163 165 18 78 15 491 -4 596 -39 207 -104 427 -193 655 -61 155
-243 527 -390 795 -404 738 -530 1027 -564 1294 -16 122 -5 162 100 376 131
264 227 425 628 1040 82 127 189 295 238 375 49 80 143 226 210 325 195 291
290 504 329 735 30 182 49 428 43 580 -8 218 -46 381 -129 562 l-41 88 32 118
c19 72 47 234 71 413 23 162 45 321 50 354 28 184 52 452 60 696 10 293 18
356 56 430 42 83 105 126 277 185 133 47 276 121 370 195 132 103 225 237 413
594 97 185 109 217 100 277 -9 62 -35 98 -114 162 -207 165 -259 360 -161 604
39 99 83 170 196 319 125 164 222 311 397 601 163 269 175 301 142 384 -9 24
-224 320 -479 658 -507 674 -494 660 -597 660 -57 0 -211 -51 -255 -85 -60
-45 -71 -85 -109 -399 -20 -159 -41 -350 -47 -425 -25 -325 -72 -467 -213
-650 -91 -117 -201 -208 -332 -274 -87 -44 -159 -63 -289 -76 -186 -19 -325
-73 -463 -178 -105 -80 -154 -138 -446 -528 -544 -724 -953 -1207 -1158 -1366
-81 -62 -252 -175 -372 -244 l-49 -29 6 150 c10 226 54 643 103 967 15 102 48
185 99 245 15 18 84 60 176 107 155 80 184 104 208 174 17 52 13 110 -10 158
-16 34 -55 70 -169 162 -153 123 -218 165 -308 200 -76 30 -306 75 -597 116
-483 68 -477 66 -576 185 -26 30 -133 170 -239 310 -431 570 -542 678 -746
726 -161 37 -331 -21 -462 -160 -61 -64 -104 -131 -166 -256 -50 -100 -95
-167 -145 -214 l-31 -29 -233 -5 c-592 -12 -998 83 -1340 312 -54 36 -115 68
-134 72 -21 4 -150 -8 -322 -30 -465 -61 -667 -84 -823 -95 -203 -15 -569 -14
-1053 4 -225 8 -610 19 -855 25 -851 19 -1058 46 -1835 234 -550 133 -740 167
-1035 186 -454 29 -643 97 -1402 507 -152 83 -346 182 -431 221 -134 61 -161
78 -213 130 -70 70 -118 96 -221 123 -82 21 -129 23 -181 8z m397 -624 c140
-62 242 -114 502 -256 430 -235 624 -326 848 -403 233 -80 380 -107 671 -126
276 -18 445 -48 950 -170 825 -200 1034 -228 1856 -249 825 -22 1179 -33 1192
-36 9 -4 12 -574 12 -2810 l0 -2805 -3648 0 c-4088 0 -3717 7 -3790 -75 l-39
-44 -32 142 c-73 320 -176 804 -285 1341 l-116 568 30 107 c30 107 111 465
200 887 53 248 84 425 125 704 57 386 89 534 176 800 124 380 186 639 210 875
15 155 6 405 -21 550 -23 124 -36 361 -23 417 l8 36 105 -70 c58 -39 186 -133
285 -210 99 -76 213 -155 252 -175 65 -32 78 -35 128 -30 132 14 218 132 186
257 -17 65 -10 142 35 405 19 110 42 248 51 308 9 59 20 107 24 107 3 0 52
-20 108 -45z m16559 -602 c130 -175 255 -342 276 -370 l38 -53 -330 0 -329 0
18 65 c19 68 28 140 54 430 17 178 25 245 31 245 2 0 111 -143 242 -317z
m-6128 -234 c34 -20 57 -43 141 -141 l41 -48 -191 0 -191 0 15 37 c27 63 77
135 109 154 38 23 34 23 76 -2z m634 -774 c152 -196 211 -252 331 -311 107
-53 146 -61 548 -119 372 -54 545 -88 586 -114 11 -7 -1 -23 -53 -71 -111
-105 -185 -233 -226 -395 l-18 -70 -2891 -3 -2891 -2 0 620 0 620 1168 0
c1005 0 1182 -2 1277 -16 142 -20 610 -30 771 -16 67 6 136 17 155 26 29 12
121 14 574 15 l541 1 128 -165z m5586 159 c0 -10 -84 -130 -190 -269 -166
-219 -238 -355 -287 -543 -27 -104 -36 -274 -20 -379 l8 -53 -916 0 c-503 0
-915 2 -915 5 0 17 398 530 448 578 89 84 160 114 313 132 156 18 276 52 404
114 170 83 315 195 437 338 l70 83 324 0 c178 0 324 -2 324 -6z m-4475 -1686
c-16 -77 -55 -563 -55 -699 l0 -109 -2835 0 -2835 0 0 415 0 415 2865 0 2865
0 -5 -22z m4235 15 c0 -15 -133 -260 -176 -324 -90 -133 -201 -210 -410 -282
-138 -48 -208 -85 -297 -157 l-75 -60 -1096 0 c-603 0 -1096 3 -1095 8 0 4 25
27 55 52 90 75 589 638 661 748 l15 22 1209 0 c665 0 1209 -3 1209 -7z m-4178
-1282 c48 -49 93 -65 168 -59 49 4 70 12 129 51 l71 47 1336 0 1336 0 -7 -27
c-3 -15 -10 -151 -15 -302 -5 -152 -16 -337 -25 -411 -16 -140 -51 -411 -61
-467 l-6 -33 -4354 0 -4354 0 0 620 0 620 2871 0 2871 0 40 -39z m2858 -1633
c0 -7 -12 -59 -26 -117 -21 -85 -25 -120 -22 -190 4 -80 9 -94 61 -201 48 -98
97 -248 97 -297 0 -10 -882 -13 -4375 -13 l-4375 0 0 415 0 415 4320 0 c3376
0 4320 -3 4320 -12z m100 -1256 c0 -10 -5 -56 -10 -102 -27 -220 -89 -360
-297 -675 -76 -115 -172 -265 -213 -332 l-75 -123 -7684 0 -7684 0 -51 39
c-66 50 -127 110 -176 173 l-40 50 0 489 0 489 3663 3 c12783 8 12567 8 12567
-11z m-876 -1664 c-5 -7 -46 -71 -93 -143 -108 -166 -293 -476 -351 -588 l-45
-87 -6378 0 c-6225 0 -6379 0 -6415 19 -101 51 -315 103 -477 116 -89 7 -263
-7 -369 -30 -58 -12 -73 -12 -101 -1 -32 14 -33 16 -39 92 -19 219 -81 391
-199 557 l-56 77 7265 0 c5810 0 7264 -3 7258 -12z m-658 -1361 c2 -249 85
-519 293 -951 44 -93 81 -171 81 -173 0 -1 -506 -3 -1124 -3 l-1124 0 -36 113
c-93 286 -232 488 -388 565 -196 97 -353 152 -492 171 -277 39 -687 -25 -921
-142 -133 -67 -259 -177 -300 -263 -34 -71 -30 -210 11 -411 l7 -33 -2496 0
-2495 0 -36 65 c-54 99 -241 381 -303 458 -106 132 -257 233 -419 279 -65 18
-103 22 -214 22 -143 0 -160 -3 -380 -68 -262 -78 -536 -100 -750 -62 -231 41
-463 149 -665 308 -76 60 -234 207 -245 229 -11 19 90 19 5992 19 l6003 0 1
-123z m-5532 -1559 c-4 -7 -22 -31 -40 -53 -133 -167 -136 -369 -9 -634 30
-62 55 -115 55 -117 0 -2 -314 -4 -697 -4 l-698 0 -34 63 c-67 122 -191 313
-246 379 -116 140 -294 255 -460 299 -105 27 -271 29 -370 4 -156 -39 -287
-118 -407 -243 l-78 -81 -38 13 c-118 42 -204 114 -243 202 -11 24 -26 76 -33
114 l-14 70 1660 0 c1325 0 1658 -3 1652 -12z m1606 9 c0 -2 -35 -29 -77 -59
-143 -102 -194 -118 -265 -82 -41 21 -218 135 -218 140 0 2 126 4 280 4 154 0
280 -2 280 -3z m4622 -159 c148 -279 273 -541 302 -635 l7 -23 -934 0 -935 0
-149 51 c-314 109 -603 237 -706 314 -73 54 -80 79 -81 283 l-1 172 1205 0
1205 0 87 -162z m-6311 -1163 c-22 -42 -49 -112 -62 -158 -22 -74 -24 -101
-23 -282 0 -215 5 -257 70 -544 19 -85 34 -160 34 -167 0 -29 -238 28 -359 86
-113 54 -191 111 -281 206 -135 141 -198 253 -320 568 -43 111 -94 238 -114
284 l-35 82 564 0 564 0 -38 -75z m6766 10 c7 -33 12 -94 13 -135 l0 -75 -97
47 c-97 47 -291 126 -473 192 l-95 35 320 -2 319 -2 13 -60z"/>
<path d="M2467 12915 c-27 -54 -54 -95 -64 -98 -10 -3 -57 -11 -105 -17 -49
-7 -88 -15 -88 -18 0 -4 34 -38 76 -77 l76 -70 -20 -107 c-11 -60 -17 -108
-13 -108 3 0 48 22 98 49 l92 48 92 -49 c51 -26 94 -46 97 -44 2 3 -4 50 -14
106 l-17 101 77 78 78 78 -84 12 c-142 20 -129 12 -179 112 -24 50 -46 92 -50
94 -3 2 -26 -38 -52 -90z"/>
<path d="M3304 12918 c-53 -108 -40 -99 -182 -119 l-84 -12 77 -77 77 -78 -17
-101 c-9 -56 -15 -104 -13 -107 3 -2 46 18 97 44 l92 49 92 -48 c50 -27 95
-49 98 -49 4 0 -3 48 -13 108 l-20 107 76 71 c42 39 76 73 76 76 0 3 -39 11
-87 18 -49 6 -96 14 -106 17 -10 2 -38 46 -66 101 l-49 97 -48 -97z"/>
<path d="M4133 12915 c-52 -105 -39 -96 -181 -116 l-84 -12 78 -78 78 -79 -16
-102 c-9 -56 -15 -104 -13 -106 2 -2 46 19 97 46 l92 50 94 -50 c51 -28 95
-48 97 -46 2 2 -4 49 -14 103 l-18 100 79 81 79 81 -88 12 c-141 21 -130 13
-178 117 -24 52 -46 94 -49 94 -4 0 -27 -43 -53 -95z"/>
<path d="M4967 12915 c-27 -54 -54 -95 -64 -98 -10 -3 -57 -11 -105 -17 -49
-7 -88 -15 -88 -19 0 -3 34 -37 75 -76 l75 -70 -18 -107 c-11 -60 -16 -108
-13 -108 3 0 47 22 98 49 l91 49 92 -50 c51 -27 94 -47 96 -45 3 2 -3 50 -12
106 l-17 102 77 78 78 78 -84 12 c-142 20 -129 12 -179 112 -24 50 -46 92 -50
94 -3 2 -26 -38 -52 -90z"/>
<path d="M5801 12915 c-48 -105 -34 -96 -179 -116 l-84 -12 77 -77 77 -78 -17
-101 c-9 -56 -15 -104 -13 -106 2 -2 45 17 95 43 l92 47 96 -47 c109 -55 103
-60 79 77 l-16 90 76 73 c42 40 76 74 76 76 0 2 -39 9 -87 16 -49 6 -96 14
-106 17 -10 3 -37 44 -65 99 -25 52 -49 94 -52 94 -3 0 -25 -43 -49 -95z"/>
<path d="M6633 12916 c-52 -106 -39 -97 -181 -117 l-84 -12 78 -78 78 -79 -16
-102 c-9 -56 -15 -104 -13 -106 2 -2 45 18 96 46 l92 50 94 -50 c52 -28 96
-49 97 -47 2 2 -4 50 -14 107 l-17 103 79 77 80 77 -79 12 c-43 7 -93 15 -111
19 -30 5 -37 13 -78 96 -24 50 -46 93 -48 96 -3 2 -26 -39 -53 -92z"/>
<path d="M7469 12918 c-26 -54 -52 -93 -64 -98 -11 -4 -59 -13 -107 -20 -49
-7 -88 -16 -88 -20 0 -5 34 -39 75 -77 l75 -68 -19 -105 c-10 -58 -17 -107
-15 -109 1 -2 45 19 98 47 l94 50 92 -50 c51 -27 94 -47 96 -45 3 2 -3 50 -12
106 l-17 102 77 78 78 78 -84 12 c-142 20 -129 12 -179 112 -24 50 -47 92 -50
94 -3 2 -25 -37 -50 -87z"/>
<path d="M8300 12915 c-48 -105 -34 -96 -178 -116 l-84 -12 77 -77 77 -78 -17
-101 c-10 -56 -16 -103 -14 -106 3 -2 46 17 96 43 l92 47 96 -47 c109 -55 103
-60 79 76 l-15 89 76 77 77 78 -88 12 c-49 6 -97 14 -107 17 -10 3 -37 44 -65
99 -25 52 -49 94 -53 94 -4 0 -26 -43 -49 -95z"/>
<path d="M2466 12081 l-49 -98 -103 -13 c-57 -7 -104 -16 -104 -19 0 -3 34
-40 75 -81 l75 -76 -18 -102 c-10 -57 -14 -102 -9 -102 5 0 48 21 96 47 l88
47 92 -48 c51 -26 95 -46 97 -43 3 2 -3 51 -13 108 l-17 103 77 71 c42 40 77
74 77 77 0 3 -48 11 -106 18 l-105 13 -50 99 c-27 54 -50 98 -52 98 -2 0 -25
-44 -51 -99z"/>
<path d="M3302 12084 l-51 -101 -105 -13 c-58 -7 -106 -16 -106 -19 0 -3 35
-37 77 -76 l77 -71 -18 -103 c-10 -56 -15 -105 -13 -108 3 -2 47 17 98 43 l92
48 89 -48 c49 -26 92 -45 95 -42 3 3 -1 50 -10 103 l-16 98 74 75 c41 42 75
78 75 81 0 3 -47 12 -106 19 l-105 13 -48 101 -48 101 -51 -101z"/>
<path d="M4135 12082 l-50 -97 -102 -14 c-57 -8 -103 -17 -103 -21 0 -3 33
-38 74 -79 l73 -73 -18 -96 c-10 -53 -18 -102 -19 -109 0 -6 44 12 97 40 l97
51 99 -52 98 -52 -6 33 c-3 17 -12 67 -19 109 l-13 77 74 73 c40 40 73 75 73
78 0 4 -46 13 -102 21 l-103 14 -50 97 -50 97 -50 -97z"/>
<path d="M4966 12081 l-49 -98 -103 -13 c-57 -7 -104 -16 -104 -19 0 -3 34
-39 75 -81 l74 -75 -18 -102 c-11 -61 -14 -103 -9 -103 6 0 48 21 95 47 l86
46 95 -47 c52 -26 96 -45 98 -43 3 2 -3 51 -12 107 l-18 103 77 74 c42 40 77
75 77 77 0 2 -48 9 -106 16 l-105 13 -50 99 c-27 54 -50 98 -52 98 -2 0 -25
-44 -51 -99z"/>
<path d="M5802 12084 l-51 -101 -105 -13 c-58 -7 -106 -16 -106 -19 0 -3 34
-38 76 -76 l77 -71 -18 -102 c-9 -57 -15 -106 -12 -109 3 -3 47 17 97 43 l91
48 90 -48 c50 -26 93 -45 96 -42 3 3 -1 50 -10 105 l-17 99 75 73 c41 40 75
75 75 79 0 4 -48 13 -106 20 l-107 13 -47 101 -47 101 -51 -101z"/>
<path d="M6634 12084 l-49 -99 -100 -14 c-55 -8 -102 -16 -104 -18 -3 -2 28
-37 69 -78 l74 -74 -13 -83 c-7 -46 -15 -95 -18 -110 -5 -26 -5 -26 93 25 l99
50 92 -48 c51 -26 95 -46 97 -44 2 2 -4 49 -14 104 l-18 100 76 77 c42 43 74
79 71 81 -2 2 -49 10 -104 18 l-100 14 -51 99 -52 100 -48 -100z"/>
<path d="M7466 12081 l-49 -98 -103 -13 c-57 -7 -104 -16 -104 -19 0 -3 33
-39 74 -81 l74 -75 -17 -102 c-10 -59 -14 -103 -8 -103 5 0 47 21 94 47 l86
46 95 -47 c52 -26 96 -45 99 -43 2 3 -4 50 -14 106 l-17 101 72 73 c40 40 72
75 72 79 0 3 -45 12 -101 19 l-101 12 -49 99 c-27 54 -50 98 -52 98 -2 0 -25
-44 -51 -99z"/>
<path d="M8298 12077 l-46 -94 -106 -13 c-58 -7 -106 -16 -106 -21 0 -4 34
-38 76 -76 l76 -69 -17 -103 c-9 -56 -15 -105 -12 -108 3 -3 47 17 97 43 l91
48 90 -48 c50 -26 93 -45 96 -42 3 3 -2 51 -11 106 l-18 100 76 71 c42 39 76
74 76 79 0 4 -48 13 -106 20 l-106 13 -46 94 c-26 51 -49 93 -52 93 -3 0 -26
-42 -52 -93z"/>
<path d="M4136 11251 l-49 -99 -86 -12 c-147 -20 -144 -15 -53 -97 l79 -72
-13 -78 c-7 -43 -16 -93 -19 -112 l-6 -33 97 51 97 51 99 -51 99 -50 -7 38
c-3 21 -12 70 -20 108 l-13 70 79 77 c89 88 95 78 -56 99 l-80 11 -50 99 -49
100 -49 -100z"/>
<path d="M2468 11246 l-47 -94 -88 -12 c-139 -18 -136 -12 -49 -99 l76 -76
-15 -85 c-25 -141 -30 -136 80 -79 l95 50 95 -51 c52 -28 95 -46 95 -39 0 6
-7 54 -16 106 l-16 95 77 78 c88 88 92 80 -55 101 l-85 12 -44 93 c-25 52 -47
94 -50 94 -4 0 -27 -42 -53 -94z"/>
<path d="M3298 11246 l-47 -93 -83 -12 c-145 -21 -141 -13 -53 -101 l77 -78
-16 -95 c-9 -52 -16 -100 -16 -106 0 -7 43 11 95 39 l95 51 95 -50 c110 -57
105 -62 80 79 l-15 85 76 76 c87 87 90 81 -49 99 l-88 12 -47 94 c-26 52 -49
94 -52 94 -3 0 -26 -42 -52 -94z"/>
<path d="M4967 11246 l-45 -94 -89 -12 c-139 -18 -136 -12 -49 -99 l76 -77
-19 -104 c-10 -58 -18 -106 -17 -107 1 -1 45 20 99 48 l97 50 95 -51 c57 -31
95 -47 95 -39 0 7 -8 55 -17 106 l-16 94 77 78 c89 89 94 80 -56 102 l-86 12
-43 93 c-23 52 -45 94 -49 94 -4 0 -28 -42 -53 -94z"/>
<path d="M5798 11246 l-47 -94 -88 -12 c-139 -18 -136 -12 -48 -100 l78 -78
-17 -90 c-24 -134 -29 -130 79 -71 l95 51 95 -51 c110 -59 105 -63 79 77 l-16
85 77 77 c88 88 91 82 -48 100 l-88 12 -47 94 c-26 52 -49 94 -52 94 -3 0 -26
-42 -52 -94z"/>
<path d="M6633 11246 l-47 -94 -85 -12 c-148 -20 -145 -15 -57 -94 86 -77 85
-75 61 -199 -8 -43 -15 -83 -15 -89 0 -5 43 13 96 41 l96 50 99 -49 c54 -28
99 -49 99 -48 0 2 -9 50 -20 108 l-19 105 76 76 c86 87 89 81 -48 99 l-86 12
-44 90 c-24 49 -47 92 -51 94 -4 3 -29 -38 -55 -90z"/>
<path d="M7465 11246 l-43 -94 -89 -12 c-139 -18 -136 -12 -50 -99 l76 -76
-18 -105 c-11 -58 -18 -106 -17 -107 1 -1 45 20 99 48 l97 50 96 -52 97 -52
-6 29 c-3 16 -11 65 -18 110 l-12 81 77 74 c89 84 91 79 -50 99 l-92 13 -43
93 c-24 51 -48 93 -52 94 -5 0 -28 -42 -52 -94z"/>
<path d="M8298 11246 l-47 -94 -88 -12 c-139 -18 -136 -12 -49 -99 l77 -78
-15 -89 c-24 -137 -30 -132 79 -73 l95 51 95 -51 c109 -58 103 -63 79 73 l-15
89 77 78 c87 87 90 81 -49 99 l-88 12 -47 94 c-26 52 -49 94 -52 94 -3 0 -26
-42 -52 -94z"/>
<path d="M2467 10415 c-52 -104 -34 -93 -182 -116 -38 -5 -71 -12 -73 -14 -3
-2 30 -37 73 -77 l76 -73 -19 -107 c-11 -60 -17 -108 -13 -108 3 0 47 22 97
49 l92 48 93 -48 c51 -26 95 -46 97 -44 2 2 -4 49 -14 105 l-17 101 77 78 78
78 -84 12 c-142 20 -129 12 -179 112 -24 50 -46 92 -50 94 -3 2 -26 -38 -52
-90z"/>
<path d="M3305 10420 c-26 -52 -48 -96 -49 -97 -2 -2 -51 -10 -110 -19 l-107
-17 76 -77 77 -78 -17 -101 c-9 -56 -15 -104 -13 -106 2 -2 46 18 97 44 l93
48 92 -48 c50 -27 94 -49 97 -49 4 0 -2 48 -13 107 l-20 107 76 75 c42 40 75
75 73 77 -1 2 -34 8 -72 13 -148 23 -130 11 -184 119 l-48 97 -48 -95z"/>
<path d="M4133 10415 c-52 -105 -39 -96 -181 -116 l-84 -12 78 -78 78 -79 -16
-102 c-9 -56 -15 -104 -13 -106 2 -2 45 19 96 47 l93 50 94 -51 c51 -27 95
-48 97 -46 2 2 -4 50 -14 106 l-18 102 80 79 80 78 -84 12 c-147 21 -133 12
-183 117 -25 52 -47 94 -50 94 -4 0 -27 -43 -53 -95z"/>
<path d="M4967 10415 c-52 -104 -34 -93 -182 -116 -38 -5 -72 -12 -74 -15 -3
-2 30 -37 72 -77 l78 -72 -19 -107 c-11 -60 -17 -108 -14 -108 3 0 47 22 97
49 l92 49 93 -49 c51 -27 95 -48 97 -45 2 2 -4 49 -13 105 l-17 102 77 78 78
78 -84 12 c-142 20 -129 12 -179 112 -24 50 -46 92 -50 94 -3 2 -26 -38 -52
-90z"/>
<path d="M5801 10416 l-43 -94 -61 -11 c-34 -5 -84 -13 -110 -17 l-49 -7 77
-77 77 -78 -16 -95 c-9 -52 -16 -100 -16 -106 0 -6 43 10 96 37 l96 48 94 -48
c108 -56 102 -61 78 76 l-15 89 78 79 c42 43 73 78 68 78 -23 1 -195 29 -202
33 -4 3 -28 46 -53 96 -24 50 -47 91 -50 91 -4 0 -26 -42 -49 -94z"/>
<path d="M6633 10415 c-52 -105 -39 -96 -181 -116 l-84 -12 78 -78 78 -79 -16
-102 c-9 -56 -15 -104 -14 -106 2 -2 46 19 97 47 l93 50 94 -51 c51 -27 95
-48 97 -47 1 2 -5 51 -15 108 l-17 105 80 76 81 77 -84 12 c-151 21 -137 12
-186 117 -24 52 -46 94 -49 94 -3 0 -26 -43 -52 -95z"/>
<path d="M7467 10415 c-52 -104 -34 -93 -182 -116 -38 -5 -72 -12 -75 -15 -3
-3 30 -38 73 -77 l78 -72 -19 -105 c-11 -58 -18 -107 -16 -109 1 -2 45 19 97
47 l94 50 93 -49 c51 -27 95 -48 97 -45 2 2 -4 49 -13 105 l-17 102 77 78 78
78 -84 12 c-142 20 -129 12 -179 112 -24 50 -46 92 -50 94 -3 2 -26 -38 -52
-90z"/>
<path d="M8300 10418 c-24 -51 -44 -94 -45 -95 0 -1 -49 -10 -109 -19 l-108
-17 78 -78 77 -77 -17 -90 c-24 -134 -30 -129 80 -74 l96 48 94 -48 c108 -56
102 -61 78 76 l-15 89 76 77 77 77 -79 12 c-143 22 -129 13 -181 117 -25 52
-49 94 -53 94 -3 0 -25 -42 -49 -92z"/>
<path d="M2465 9582 l-50 -97 -100 -14 c-55 -8 -102 -16 -104 -18 -3 -2 30
-38 72 -81 l77 -78 -18 -102 c-10 -56 -15 -102 -10 -102 5 0 49 21 97 47 l89
48 91 -49 c51 -26 94 -46 97 -43 3 2 -3 51 -12 107 l-18 103 77 74 c42 40 77
75 77 77 0 2 -48 9 -106 16 l-105 13 -50 99 c-27 54 -50 98 -52 98 -1 0 -24
-44 -52 -98z"/>
<path d="M3302 9584 l-51 -101 -105 -13 c-58 -7 -106 -15 -106 -17 0 -3 35
-37 77 -77 l77 -73 -18 -102 c-10 -56 -15 -105 -13 -108 3 -3 47 17 98 43 l91
49 90 -48 c49 -27 92 -46 95 -43 4 3 -1 50 -10 105 l-17 99 75 73 c41 40 75
75 75 79 0 3 -46 13 -102 21 l-103 14 -51 100 -52 99 -50 -100z"/>
<path d="M4134 9584 l-49 -99 -108 -15 -108 -15 79 -78 79 -79 -18 -101 c-11
-55 -17 -102 -15 -104 2 -2 46 17 97 43 l94 47 93 -48 c51 -26 95 -46 97 -44
1 2 -5 50 -14 106 l-18 102 74 73 c40 40 73 75 73 79 0 3 -46 13 -102 20
l-103 14 -51 99 -51 98 -49 -98z"/>
<path d="M4965 9582 l-50 -97 -100 -14 c-55 -7 -102 -15 -104 -17 -3 -3 30
-39 72 -82 l76 -77 -18 -102 c-10 -57 -16 -103 -12 -103 3 -1 47 21 97 47 l90
47 93 -48 c51 -26 95 -46 97 -43 3 2 -3 50 -12 106 l-17 102 77 78 77 78 -106
13 -106 13 -50 99 c-27 54 -50 98 -52 98 -1 0 -24 -44 -52 -98z"/>
<path d="M5802 9584 l-51 -101 -105 -13 c-58 -7 -106 -16 -106 -19 0 -3 34
-37 76 -76 l77 -70 -18 -103 c-9 -57 -15 -106 -12 -109 3 -3 47 17 97 43 l91
49 90 -48 c50 -27 93 -46 96 -43 3 3 -1 51 -11 107 l-16 101 75 70 c41 38 75
73 75 77 0 4 -44 13 -98 20 -55 7 -104 16 -109 19 -6 4 -31 50 -55 102 l-45
95 -51 -101z"/>
<path d="M6633 9585 l-48 -100 -108 -15 -107 -15 77 -77 77 -77 -16 -103 c-9
-56 -15 -104 -13 -106 1 -2 45 18 96 44 l94 47 93 -48 c51 -26 95 -46 97 -44
2 2 -5 49 -15 104 l-18 100 76 77 c42 43 74 79 71 82 -2 2 -49 10 -104 17
l-100 14 -52 100 -51 100 -49 -100z"/>
<path d="M7465 9582 l-50 -97 -100 -14 c-55 -7 -102 -15 -104 -17 -3 -3 29
-39 71 -82 l76 -77 -17 -102 c-10 -57 -15 -103 -12 -103 3 -1 47 21 97 47 l90
47 93 -48 c51 -26 95 -46 97 -43 3 2 -3 50 -12 106 l-17 102 77 78 77 78 -106
13 -106 13 -50 99 c-27 54 -50 98 -52 98 -1 0 -24 -44 -52 -98z"/>
<path d="M8302 9583 l-51 -100 -105 -13 c-58 -7 -106 -16 -106 -19 0 -3 34
-38 76 -76 l77 -71 -18 -102 c-9 -57 -15 -106 -12 -109 3 -3 47 17 97 43 l91
49 90 -48 c50 -27 93 -46 96 -43 4 3 -2 52 -11 108 l-18 101 76 69 c42 38 76
73 76 77 0 4 -44 13 -98 20 -55 7 -104 16 -110 20 -6 4 -31 49 -56 100 l-44
94 -50 -100z"/>
<path d="M4136 8752 l-49 -100 -91 -11 c-140 -19 -137 -13 -47 -96 l78 -74
-13 -78 c-7 -43 -16 -93 -19 -112 l-6 -34 97 53 97 52 99 -52 99 -52 -6 39
c-4 21 -13 70 -20 108 l-13 70 75 76 c50 51 70 78 61 81 -7 3 -54 11 -104 18
l-91 12 -49 100 -49 99 -49 -99z"/>
<path d="M2468 8746 l-47 -94 -88 -12 c-139 -18 -136 -12 -49 -99 l76 -76 -15
-85 c-25 -140 -30 -135 80 -78 l96 49 94 -51 c52 -28 95 -46 95 -40 0 6 -7 55
-16 108 l-16 98 76 74 c89 86 91 82 -47 101 l-88 11 -47 94 c-26 52 -49 94
-52 94 -3 0 -26 -42 -52 -94z"/>
<path d="M3298 8746 l-47 -94 -88 -12 c-139 -18 -136 -12 -48 -100 l77 -78
-16 -95 c-9 -52 -16 -100 -16 -106 0 -6 43 11 95 39 l94 51 96 -49 c110 -57
105 -62 80 78 l-15 85 76 76 c87 87 90 81 -49 99 l-88 12 -47 94 c-26 52 -49
94 -52 94 -3 0 -26 -42 -52 -94z"/>
<path d="M4966 8746 l-44 -94 -88 -12 c-140 -18 -137 -12 -50 -99 l76 -76 -16
-90 c-8 -50 -17 -98 -20 -108 -4 -14 17 -7 96 33 l101 51 95 -51 c52 -28 94
-48 94 -43 0 4 -7 54 -17 109 l-17 102 80 75 c90 86 96 76 -56 99 l-85 13 -44
93 c-25 50 -48 92 -53 92 -4 0 -28 -42 -52 -94z"/>
<path d="M5798 8746 l-47 -94 -88 -12 c-139 -18 -136 -12 -48 -100 l78 -78
-17 -90 c-24 -133 -29 -129 79 -71 l94 50 96 -49 c110 -57 106 -61 79 78 l-15
83 77 78 c87 87 90 81 -49 99 l-88 12 -47 94 c-26 52 -49 94 -52 94 -3 0 -26
-42 -52 -94z"/>
<path d="M6633 8747 l-46 -95 -96 -12 c-53 -7 -102 -16 -108 -19 -8 -4 14 -31
62 -74 85 -77 84 -75 60 -200 -8 -43 -15 -83 -15 -89 0 -5 43 14 96 42 l96 52
100 -52 99 -52 -7 39 c-3 21 -12 70 -20 108 l-13 70 75 76 c50 51 71 78 62 81
-7 3 -54 11 -104 18 l-91 12 -44 90 c-24 50 -47 92 -51 94 -4 3 -29 -38 -55
-89z"/>
<path d="M7465 8747 l-45 -94 -87 -12 c-139 -20 -136 -13 -49 -100 l76 -76
-15 -80 c-8 -44 -17 -92 -20 -107 l-4 -28 100 50 100 51 96 -52 96 -52 -7 39
c-3 21 -12 72 -18 112 l-12 73 80 73 c90 84 95 75 -56 98 l-85 13 -45 93 c-24
50 -48 92 -53 92 -5 0 -28 -42 -52 -93z"/>
<path d="M8298 8746 l-47 -94 -88 -12 c-139 -18 -136 -12 -49 -99 l77 -78 -15
-89 c-24 -136 -30 -131 79 -73 l95 51 95 -50 c108 -58 103 -62 79 72 l-15 89
77 78 c87 87 90 81 -49 99 l-88 12 -47 94 c-26 52 -49 94 -52 94 -3 0 -26 -42
-52 -94z"/>
</g>
</svg>
