<?xml version="1.0" encoding="UTF-8"?>
<svg version="1.1" xmlns="http://www.w3.org/2000/svg" width="1171" height="917">
<path d="M0 0 C0.73796645 -0.00177501 1.4759329 -0.00355002 2.23626198 -0.00537882 C4.72155637 -0.01012873 7.20679297 -0.0077434 9.69209009 -0.00541991 C11.49461331 -0.00737256 13.2971361 -0.0097613 15.09965822 -0.01254788 C20.08121927 -0.01896183 25.06276421 -0.01910839 30.0443286 -0.01827047 C35.45332291 -0.0184397 40.8623114 -0.02434274 46.27130282 -0.02951133 C57.01217229 -0.038849 67.75303764 -0.04276134 78.49391066 -0.0450303 C91.3541493 -0.04798933 104.21438246 -0.05668496 117.07461823 -0.06544458 C148.16113588 -0.08630201 179.24765449 -0.09676413 210.33417751 -0.10557419 C220.62864075 -0.10850797 230.92310378 -0.11187784 241.21756679 -0.1155414 C241.94377031 -0.11579969 242.66997383 -0.11605798 243.41818352 -0.1163241 C246.35613638 -0.11737032 249.29408924 -0.11841874 252.2320421 -0.11946992 C302.48783843 -0.13743513 352.7436351 -0.15281415 402.99943419 -0.16022895 C406.94721761 -0.16081292 410.89500104 -0.16141019 414.84278447 -0.16200657 C416.01745834 -0.16218375 416.01745834 -0.16218375 417.215863 -0.16236451 C425.1499443 -0.1635619 433.08402561 -0.16477066 441.01810692 -0.16599704 C442.60891502 -0.16624227 444.19972312 -0.16648613 445.79053122 -0.16672861 C496.87853618 -0.17451789 547.96651815 -0.1969 599.05451307 -0.22940504 C635.76075693 -0.25275173 672.46699623 -0.27430294 709.1732474 -0.28141135 C709.92818825 -0.28155837 710.68312909 -0.28170539 711.46094694 -0.28185687 C728.03418774 -0.28504176 744.6074285 -0.2870926 761.18066957 -0.28808442 C767.84918837 -0.28849915 774.51770716 -0.28905405 781.18622595 -0.28964633 C781.91605177 -0.289707 782.64587758 -0.28976766 783.39781933 -0.28983017 C806.90368524 -0.29184587 830.40952403 -0.30608222 853.91538048 -0.32659133 C878.25288335 -0.34775074 902.5903494 -0.3545263 926.92786019 -0.34471754 C940.95999871 -0.33949463 954.99202954 -0.3454174 969.0241526 -0.36725221 C978.39527116 -0.38073402 987.76631538 -0.37970646 997.13743464 -0.36685025 C1002.47828064 -0.35993627 1007.81892039 -0.35934345 1013.15974819 -0.37641034 C1018.0223114 -0.39182236 1022.88450271 -0.38868431 1027.74705497 -0.37100006 C1029.49153174 -0.3678605 1031.23603703 -0.37136637 1032.98048115 -0.38249181 C1052.29179118 -0.4975904 1069.05827446 4.06763207 1083.35057646 17.82801992 C1084.47592802 18.96690664 1084.47592802 18.96690664 1085.62401396 20.12880117 C1086.33299834 20.81587148 1087.04198271 21.50294179 1087.77245146 22.21083242 C1102.24269711 37.15233128 1104.78576628 56.58672194 1104.75264841 76.49078923 C1104.75399669 77.83951693 1104.7557815 79.18824425 1104.75796065 80.53697085 C1104.76267695 84.23990014 1104.76119343 87.94280475 1104.75868288 91.64573522 C1104.75704703 95.67560504 1104.76119294 99.70546965 1104.76459205 103.73533779 C1104.76974295 110.79727438 1104.77116379 117.85920412 1104.77013594 124.9211424 C1104.7686112 135.4226717 1104.77277235 145.92419341 1104.77801056 156.42572124 C1104.78768366 176.27263016 1104.79049479 196.1195365 1104.79106762 215.9664475 C1104.79152708 231.29221043 1104.79358495 246.61797235 1104.79676825 261.94373494 C1104.79766578 266.35442962 1104.7985556 270.7651243 1104.79944313 275.17581898 C1104.79966417 276.27231327 1104.79988522 277.36880756 1104.80011297 278.49852895 C1104.80626751 309.34255234 1104.8102135 340.18657538 1104.80976969 371.03059942 C1104.80975411 372.19358846 1104.80973853 373.3565775 1104.80972248 374.55480863 C1104.80963937 380.44939196 1104.80954033 386.34397529 1104.80943777 392.23855862 C1104.80940786 393.99460396 1104.80940786 393.99460396 1104.80937733 395.78612496 C1104.8093369 398.15355925 1104.8092951 400.52099354 1104.80925194 402.88842783 C1104.80863913 439.72555492 1104.81614678 476.56267281 1104.82982451 513.39979726 C1104.84518303 554.78078186 1104.85379088 596.16176041 1104.85286129 637.54274803 C1104.85278665 641.95470013 1104.85273795 646.36665223 1104.85270697 650.77860433 C1104.85269531 651.86494875 1104.85268366 652.95129318 1104.85267165 654.07055713 C1104.85264087 671.5567299 1104.85902818 689.04289467 1104.86763923 706.52906506 C1104.87611354 724.10088954 1104.8771074 741.67270233 1104.87052991 759.24452773 C1104.86683286 769.68424274 1104.8686713 780.12392225 1104.87847225 790.56363351 C1104.88446744 797.53872841 1104.88318191 804.51379755 1104.87600175 811.48889126 C1104.87211639 815.4619459 1104.87135575 819.43493178 1104.87945911 823.4079816 C1104.88677802 827.02818005 1104.8847547 830.64825294 1104.87553524 834.26844595 C1104.87302395 836.1717285 1104.88024466 838.07501649 1104.88795802 839.97828507 C1104.79977521 861.41711923 1099.34776601 879.00373831 1084.49901396 894.87880117 C1072.59544487 906.28844623 1056.81004231 913.24995052 1040.25855064 913.25645167 C1039.52172459 913.25810245 1038.78489853 913.25975322 1038.0257444 913.26145403 C1035.54433904 913.26578511 1033.06299285 913.26297578 1030.58158594 913.26022893 C1028.78186841 913.26187828 1026.98215123 913.26396441 1025.18243465 913.26644903 C1020.20867642 913.27202924 1015.23493537 913.2713408 1010.26117501 913.26967144 C1004.86067009 913.26894201 999.46017007 913.27395938 994.05966723 913.27824646 C983.33574212 913.28583744 972.61182199 913.28802008 961.88789447 913.28857552 C949.04803375 913.28948807 936.20817765 913.29615239 923.36831891 913.30292234 C893.06880898 913.31861409 862.76929967 913.32467211 832.46978638 913.32932937 C817.05599226 913.33171199 801.64219856 913.33541534 786.22840477 913.33936647 C736.79332319 913.35203147 687.35824163 913.36281532 637.92315846 913.36620693 C635.5600776 913.36636917 633.19699675 913.36653473 630.83391589 913.36670131 C626.09466835 913.36703511 621.35542081 913.36736559 616.61617327 913.36769587 C611.06758889 913.36808277 605.51900452 913.36847238 599.97042015 913.36886693 C598.38236628 913.36897935 596.79431242 913.36909077 595.20625855 913.36920119 C544.2014372 913.37275076 493.19662993 913.38782946 442.19181395 913.41113893 C405.54507171 913.4278799 368.89833213 913.44335534 332.25158602 913.44787389 C331.49796997 913.44796738 330.74435392 913.44806086 329.96790102 913.44815718 C313.42428784 913.45017621 296.88067471 913.45133227 280.33706142 913.45168577 C274.417412 913.45182194 268.49776259 913.45203094 262.57811317 913.45227902 C261.10543575 913.45234058 259.63275833 913.4523989 258.16008091 913.45245397 C234.69133015 913.45337387 211.22259409 913.46334317 187.75384817 913.47791146 C163.45772778 913.49293298 139.16162857 913.49711722 114.86550456 913.4888185 C100.85518168 913.48435502 86.84491907 913.48825152 72.83460408 913.504057 C63.48057805 913.51378477 54.12659438 913.51264985 44.77256876 913.50262077 C39.43987193 913.49721285 34.10729108 913.49656973 28.77460372 913.50912949 C23.92180131 913.52046383 19.0692093 913.51794899 14.2164142 913.50446242 C12.47320884 913.50202994 10.72998729 913.50460707 8.98679977 913.5128589 C-12.58879326 913.6082654 -29.2598934 908.00199722 -45.28223604 893.27723867 C-59.13196479 879.06576327 -63.86122376 860.43557206 -63.75630277 841.12682801 C-63.75974413 839.75728863 -63.76449617 838.38775205 -63.77042374 837.01822117 C-63.78285816 833.27607585 -63.77681763 829.53416039 -63.76759006 825.79201435 C-63.76085322 821.71269697 -63.77155989 817.63341786 -63.7799859 813.55410874 C-63.79233783 806.4114725 -63.79357161 799.26890197 -63.78743547 792.12625867 C-63.77833504 781.50464175 -63.78638399 770.88308546 -63.79772671 760.26147318 C-63.81738736 741.28908144 -63.81974217 722.31671704 -63.81453151 703.34431754 C-63.80997333 686.73932595 -63.81057477 670.13434517 -63.81637186 653.52935392 C-63.81712873 651.30149334 -63.81788471 649.07363276 -63.8186398 646.84577218 C-63.819785 643.4885316 -63.82093488 640.13129102 -63.82209905 636.77405045 C-63.83280329 605.56349934 -63.83753009 574.35295183 -63.82962888 543.14239961 C-63.82933171 541.96602168 -63.82903454 540.78964376 -63.82872836 539.57761802 C-63.82627946 530.02476867 -63.82366785 520.47191936 -63.82104423 510.91907005 C-63.8109422 473.65831552 -63.81929668 436.39760605 -63.84253877 399.13685781 C-63.8686142 357.26615497 -63.88145854 315.39547926 -63.87435102 273.52476799 C-63.87363497 269.05974391 -63.87296058 264.59471981 -63.87231058 260.12969571 C-63.87214077 259.03030805 -63.87197096 257.93092039 -63.87179601 256.79821796 C-63.86949359 240.20689641 -63.87746726 223.61560007 -63.89060205 207.02428418 C-63.90551437 188.15411203 -63.90635499 169.28399892 -63.88853114 150.41382804 C-63.87896992 139.85693286 -63.88039941 129.3001754 -63.89776583 118.74328942 C-63.90826233 111.68639269 -63.90414504 104.62960077 -63.88828579 97.57271434 C-63.87966221 93.55541616 -63.87720901 89.53838763 -63.89255511 85.5211034 C-63.98803816 58.64801808 -62.064998 37.38957917 -42.44239229 17.13270742 C-30.89401283 6.35261931 -15.76503007 0.00886734 0 0 Z " fill="#22C883" transform="translate(65.37598603963852,3.871198832988739)"/>
<path d="M0 0 C0.97836543 -0.0043933 0.97836543 -0.0043933 1.97649581 -0.00887535 C4.16363652 -0.01625607 6.3504977 -0.00940208 8.537637 -0.0026266 C10.12765327 -0.00501636 11.71766844 -0.00828149 13.30768132 -0.0123432 C17.69454038 -0.0209885 22.08131422 -0.01712628 26.46817466 -0.01128747 C31.23415901 -0.0071276 36.0001275 -0.01451319 40.76610804 -0.02043998 C49.12504969 -0.02921834 57.48396684 -0.0305083 65.84291196 -0.02693671 C78.27295083 -0.0216396 90.7029659 -0.02771502 103.13300219 -0.03601964 C126.6227362 -0.05128119 150.11245945 -0.05296248 173.60219738 -0.05049662 C191.7388906 -0.04866571 209.87558029 -0.0504193 228.01227307 -0.05472106 C230.61569306 -0.05532345 233.21911304 -0.05592465 235.82253303 -0.05652466 C239.74539701 -0.05743189 243.66826099 -0.05834055 247.59112497 -0.05925701 C284.07695809 -0.06768992 320.56278943 -0.07203861 357.04862332 -0.06785029 C357.73651485 -0.06777223 358.42440638 -0.06769418 359.13314311 -0.06761376 C366.80398232 -0.06674094 374.47482152 -0.06581168 382.14566073 -0.06486312 C382.83823322 -0.06477761 383.5308057 -0.0646921 384.24436523 -0.064604 C389.99926566 -0.06389318 389.99926566 -0.06389318 392.6468296 -0.06356178 C436.94438014 -0.05802621 481.24190983 -0.06556692 525.53945661 -0.08433264 C536.7002575 -0.08905482 547.8610584 -0.09373531 559.02185941 -0.09816951 C559.70906378 -0.09844283 560.39626815 -0.09871615 561.1042969 -0.09899775 C582.28293603 -0.10736851 603.46157343 -0.11204867 624.6402142 -0.11287707 C625.30509443 -0.11290344 625.96997466 -0.1129298 626.65500278 -0.11295697 C641.90520766 -0.113522 657.1554124 -0.11300974 672.40561724 -0.11175716 C677.62331843 -0.1113618 682.84101963 -0.11100025 688.05872083 -0.11065978 C689.9858859 -0.11052368 689.9858859 -0.11052368 691.9519836 -0.11038483 C711.36699807 -0.10921771 730.78199992 -0.11587595 750.19701123 -0.1264717 C772.27238322 -0.13850688 794.34772734 -0.14010213 816.42309973 -0.12768153 C828.78306327 -0.12103893 841.14296024 -0.12271619 853.50291849 -0.13627005 C861.75427613 -0.14449052 870.00558369 -0.14184835 878.25693723 -0.13029478 C882.96146474 -0.12401445 887.66586198 -0.12249895 892.37038216 -0.13415811 C896.65085116 -0.14466897 900.93107909 -0.14135628 905.21153507 -0.12705358 C906.74979267 -0.1243267 908.28806953 -0.12661486 909.82630903 -0.13456073 C922.15347615 -0.1938876 932.62998204 1.02411524 942.30312848 9.251849 C949.42522662 16.90266185 952.42297895 25.23366836 952.43455625 35.63319951 C952.43839739 36.92932753 952.44223854 38.22545554 952.44619608 39.56086016 C952.44541588 40.99738184 952.4445371 42.43390347 952.44357038 43.87042505 C952.44615466 45.39791509 952.44916799 46.92540446 952.45257378 48.4528929 C952.46063962 52.6522773 952.46243312 56.8516446 952.46317124 61.05103582 C952.46502252 65.5794752 952.47257023 70.10790571 952.47930646 74.63633996 C952.49288735 84.53929084 952.49891412 94.44223767 952.50331712 104.34519631 C952.50607995 110.52892325 952.51031737 116.71264863 952.51482129 122.89637452 C952.52701363 140.01810338 952.53731302 157.13983098 952.54069638 174.26156408 C952.54091595 175.35735662 952.54113551 176.45314917 952.54136173 177.58214756 C952.54158001 178.68055817 952.54179829 179.77896878 952.54202318 180.91066456 C952.54246665 183.13645325 952.54291321 185.36224194 952.54336286 187.58803064 C952.54358429 188.6920981 952.54380572 189.79616557 952.54403386 190.93368963 C952.54798171 208.8227469 952.5654355 226.71176342 952.58872238 244.60080495 C952.61243896 262.96823471 952.62489837 281.33564403 952.6260643 299.70308936 C952.62698089 310.01531126 952.63272909 320.32748008 952.65088391 330.63968736 C952.66628901 339.42094234 952.67140293 348.20212783 952.66314581 356.98339375 C952.65924078 361.46258411 952.66016177 365.94163455 952.67420316 370.42080766 C952.68695072 374.52483439 952.68573709 378.62861619 952.67361245 382.73264263 C952.67165693 384.21382111 952.67472716 385.69501698 952.68345681 387.17617103 C952.75744071 400.58250976 951.13731383 410.13585841 941.67422223 419.939349 C932.69957798 428.26848519 923.33888916 428.83291944 911.59015489 428.75800687 C909.98469999 428.76248648 908.3792492 428.76871658 906.77380708 428.7765322 C902.35799278 428.79294137 897.94252335 428.78445368 893.52670927 428.77192057 C888.72419973 428.76268046 883.9217482 428.77659701 879.11925 428.78755975 C870.70083666 428.80355585 862.28252327 428.80463317 853.86410069 428.79596215 C841.34568785 428.78310268 828.82736554 428.79304415 816.30895814 428.8074617 C793.95236694 428.83241515 771.59581804 428.83428053 749.23921697 428.82618759 C729.67416523 428.81911967 710.10912993 428.81905265 690.54407811 428.82605058 C687.92144494 428.8269619 685.29881176 428.82787266 682.67617859 428.82878287 C678.72429896 428.83016597 674.77241934 428.83155706 670.82053973 428.832969 C656.10394847 428.83816863 641.38735708 428.8420058 626.67076516 428.84467489 C626.00059642 428.84479643 625.33042767 428.84491798 624.63995078 428.84504321 C603.28435823 428.84880701 581.92877116 428.84621635 560.57317948 428.8394354 C559.88049765 428.83921684 559.18781583 428.83899829 558.47414364 428.83877311 C550.75002096 428.83632792 543.02589832 428.83375801 535.3017757 428.83113772 C534.25571532 428.83078291 534.25571532 428.83078291 533.1885224 428.83042094 C530.36828838 428.82946356 527.54805435 428.82850601 524.72782033 428.82754078 C480.11609924 428.81229217 435.50444234 428.82028671 390.89272809 428.84877282 C379.65082584 428.8559374 368.40892356 428.86304 357.16702104 428.86975461 C356.47481733 428.87016883 355.78261361 428.87058305 355.06943403 428.87100982 C333.73705048 428.88369284 312.40467228 428.89020162 291.07228494 428.89016134 C290.40259453 428.89016053 289.73290412 428.89015973 289.04292007 428.8901589 C273.68256618 428.89007094 258.32221298 428.88815119 242.96185941 428.88497281 C237.70657115 428.883936 232.45128289 428.88294878 227.19599462 428.8819893 C225.90197535 428.88174041 224.60795608 428.88149153 223.27472411 428.8812351 C203.72111013 428.87779168 184.16752862 428.88711391 164.6139214 428.90276033 C142.38306312 428.92050793 120.15228397 428.92069213 97.92142911 428.89740867 C85.47476044 428.88488519 73.0282735 428.88619935 60.58161541 428.90728954 C52.27256184 428.91998667 43.96364863 428.91457619 35.65461038 428.89430473 C30.91712283 428.8832565 26.17999328 428.88014552 21.44252224 428.89898003 C17.13210314 428.91595292 12.82235168 428.90989348 8.51197371 428.88551418 C6.96293788 428.8807738 5.41384793 428.88439156 3.86485975 428.8974332 C-7.73036441 428.98828726 -16.4582825 426.9250205 -25.16562152 418.9159115 C-31.35617701 412.18842007 -33.94278723 404.68560641 -33.95414042 395.54631597 C-33.96058932 394.22878888 -33.96703821 392.91126179 -33.97368252 391.55380964 C-33.97074065 390.1035209 -33.96760524 388.65323253 -33.96429706 387.20294458 C-33.96803547 385.65310293 -33.97263775 384.10326317 -33.9780277 382.55342638 C-33.99024943 378.30153452 -33.98999821 374.04972139 -33.98763895 369.79781598 C-33.98723058 365.20941718 -33.99827185 360.62104354 -34.00775409 356.03265649 C-34.02436028 347.04589307 -34.02986345 338.0591559 -34.03097884 329.07237842 C-34.03192945 321.7671348 -34.03604038 314.46189983 -34.04238009 307.15665895 C-34.05999108 286.44175755 -34.06921913 265.72687686 -34.06771915 245.01196792 C-34.06763923 243.89544264 -34.06755932 242.77891736 -34.06747699 241.62855798 C-34.06739523 240.51066844 -34.06731347 239.3927789 -34.06722923 238.24101392 C-34.06641626 220.12250522 -34.08555705 202.00407964 -34.11375372 183.88559499 C-34.14248211 165.27853497 -34.15629406 146.6715155 -34.15456617 128.06443274 C-34.15390228 117.61920602 -34.15939436 107.17406646 -34.18092227 96.72885972 C-34.19913339 87.83601075 -34.2034819 78.94328844 -34.18990342 70.05042889 C-34.18337359 65.51448085 -34.18325717 60.97877581 -34.20060992 56.44285089 C-34.21634487 52.28702513 -34.21347284 48.13163497 -34.19604166 43.9758198 C-34.1929727 42.4758591 -34.19660027 40.97586585 -34.20776181 39.47594353 C-34.29722563 26.59612916 -32.10443202 17.85143618 -23.06796527 8.3846615 C-19.86749776 5.50582251 -16.73289 3.68826563 -12.69687152 2.251849 C-11.80334166 1.91221916 -10.90981181 1.57258933 -9.98920529 1.22266768 C-6.48210371 0.18851987 -3.65020609 0.0011331 0 0 Z " fill="#FEFEFE" transform="translate(126.69687151908875,391.7481510043144)"/>
<path d="M0 0 C0.73796645 -0.00177501 1.4759329 -0.00355002 2.23626198 -0.00537882 C4.72155637 -0.01012873 7.20679297 -0.0077434 9.69209009 -0.00541991 C11.49461331 -0.00737256 13.2971361 -0.0097613 15.09965822 -0.01254788 C20.08121927 -0.01896183 25.06276421 -0.01910839 30.0443286 -0.01827047 C35.45332291 -0.0184397 40.8623114 -0.02434274 46.27130282 -0.02951133 C57.01217229 -0.038849 67.75303764 -0.04276134 78.49391066 -0.0450303 C91.3541493 -0.04798933 104.21438246 -0.05668496 117.07461823 -0.06544458 C148.16113588 -0.08630201 179.24765449 -0.09676413 210.33417751 -0.10557419 C220.62864075 -0.10850797 230.92310378 -0.11187784 241.21756679 -0.1155414 C241.94377031 -0.11579969 242.66997383 -0.11605798 243.41818352 -0.1163241 C246.35613638 -0.11737032 249.29408924 -0.11841874 252.2320421 -0.11946992 C302.48783843 -0.13743513 352.7436351 -0.15281415 402.99943419 -0.16022895 C406.94721761 -0.16081292 410.89500104 -0.16141019 414.84278447 -0.16200657 C416.01745834 -0.16218375 416.01745834 -0.16218375 417.215863 -0.16236451 C425.1499443 -0.1635619 433.08402561 -0.16477066 441.01810692 -0.16599704 C442.60891502 -0.16624227 444.19972312 -0.16648613 445.79053122 -0.16672861 C496.87853618 -0.17451789 547.96651815 -0.1969 599.05451307 -0.22940504 C635.76075693 -0.25275173 672.46699623 -0.27430294 709.1732474 -0.28141135 C709.92818825 -0.28155837 710.68312909 -0.28170539 711.46094694 -0.28185687 C728.03418774 -0.28504176 744.6074285 -0.2870926 761.18066957 -0.28808442 C767.84918837 -0.28849915 774.51770716 -0.28905405 781.18622595 -0.28964633 C781.91605177 -0.289707 782.64587758 -0.28976766 783.39781933 -0.28983017 C806.90368524 -0.29184587 830.40952403 -0.30608222 853.91538048 -0.32659133 C878.25288335 -0.34775074 902.5903494 -0.3545263 926.92786019 -0.34471754 C940.95999871 -0.33949463 954.99202954 -0.3454174 969.0241526 -0.36725221 C978.39527116 -0.38073402 987.76631538 -0.37970646 997.13743464 -0.36685025 C1002.47828064 -0.35993627 1007.81892039 -0.35934345 1013.15974819 -0.37641034 C1018.0223114 -0.39182236 1022.88450271 -0.38868431 1027.74705497 -0.37100006 C1029.49153174 -0.3678605 1031.23603703 -0.37136637 1032.98048115 -0.38249181 C1052.29179118 -0.4975904 1069.05827446 4.06763207 1083.35057646 17.82801992 C1084.47592802 18.96690664 1084.47592802 18.96690664 1085.62401396 20.12880117 C1086.33299834 20.81587148 1087.04198271 21.50294179 1087.77245146 22.21083242 C1102.24269711 37.15233128 1104.78576628 56.58672194 1104.75264841 76.49078923 C1104.75399669 77.83951693 1104.7557815 79.18824425 1104.75796065 80.53697085 C1104.76267695 84.23990014 1104.76119343 87.94280475 1104.75868288 91.64573522 C1104.75704703 95.67560504 1104.76119294 99.70546965 1104.76459205 103.73533779 C1104.76974295 110.79727438 1104.77116379 117.85920412 1104.77013594 124.9211424 C1104.7686112 135.4226717 1104.77277235 145.92419341 1104.77801056 156.42572124 C1104.78768366 176.27263016 1104.79049479 196.1195365 1104.79106762 215.9664475 C1104.79152708 231.29221043 1104.79358495 246.61797235 1104.79676825 261.94373494 C1104.79766578 266.35442962 1104.7985556 270.7651243 1104.79944313 275.17581898 C1104.79966417 276.27231327 1104.79988522 277.36880756 1104.80011297 278.49852895 C1104.80626751 309.34255234 1104.8102135 340.18657538 1104.80976969 371.03059942 C1104.80975411 372.19358846 1104.80973853 373.3565775 1104.80972248 374.55480863 C1104.80963937 380.44939196 1104.80954033 386.34397529 1104.80943777 392.23855862 C1104.80940786 393.99460396 1104.80940786 393.99460396 1104.80937733 395.78612496 C1104.8093369 398.15355925 1104.8092951 400.52099354 1104.80925194 402.88842783 C1104.80863913 439.72555492 1104.81614678 476.56267281 1104.82982451 513.39979726 C1104.84518303 554.78078186 1104.85379088 596.16176041 1104.85286129 637.54274803 C1104.85278665 641.95470013 1104.85273795 646.36665223 1104.85270697 650.77860433 C1104.85269531 651.86494875 1104.85268366 652.95129318 1104.85267165 654.07055713 C1104.85264087 671.5567299 1104.85902818 689.04289467 1104.86763923 706.52906506 C1104.87611354 724.10088954 1104.8771074 741.67270233 1104.87052991 759.24452773 C1104.86683286 769.68424274 1104.8686713 780.12392225 1104.87847225 790.56363351 C1104.88446744 797.53872841 1104.88318191 804.51379755 1104.87600175 811.48889126 C1104.87211639 815.4619459 1104.87135575 819.43493178 1104.87945911 823.4079816 C1104.88677802 827.02818005 1104.8847547 830.64825294 1104.87553524 834.26844595 C1104.87302395 836.1717285 1104.88024466 838.07501649 1104.88795802 839.97828507 C1104.79977521 861.41711923 1099.34776601 879.00373831 1084.49901396 894.87880117 C1072.59544487 906.28844623 1056.81004231 913.24995052 1040.25855064 913.25645167 C1039.52172459 913.25810245 1038.78489853 913.25975322 1038.0257444 913.26145403 C1035.54433904 913.26578511 1033.06299285 913.26297578 1030.58158594 913.26022893 C1028.78186841 913.26187828 1026.98215123 913.26396441 1025.18243465 913.26644903 C1020.20867642 913.27202924 1015.23493537 913.2713408 1010.26117501 913.26967144 C1004.86067009 913.26894201 999.46017007 913.27395938 994.05966723 913.27824646 C983.33574212 913.28583744 972.61182199 913.28802008 961.88789447 913.28857552 C949.04803375 913.28948807 936.20817765 913.29615239 923.36831891 913.30292234 C893.06880898 913.31861409 862.76929967 913.32467211 832.46978638 913.32932937 C817.05599226 913.33171199 801.64219856 913.33541534 786.22840477 913.33936647 C736.79332319 913.35203147 687.35824163 913.36281532 637.92315846 913.36620693 C635.5600776 913.36636917 633.19699675 913.36653473 630.83391589 913.36670131 C626.09466835 913.36703511 621.35542081 913.36736559 616.61617327 913.36769587 C611.06758889 913.36808277 605.51900452 913.36847238 599.97042015 913.36886693 C598.38236628 913.36897935 596.79431242 913.36909077 595.20625855 913.36920119 C544.2014372 913.37275076 493.19662993 913.38782946 442.19181395 913.41113893 C405.54507171 913.4278799 368.89833213 913.44335534 332.25158602 913.44787389 C331.49796997 913.44796738 330.74435392 913.44806086 329.96790102 913.44815718 C313.42428784 913.45017621 296.88067471 913.45133227 280.33706142 913.45168577 C274.417412 913.45182194 268.49776259 913.45203094 262.57811317 913.45227902 C261.10543575 913.45234058 259.63275833 913.4523989 258.16008091 913.45245397 C234.69133015 913.45337387 211.22259409 913.46334317 187.75384817 913.47791146 C163.45772778 913.49293298 139.16162857 913.49711722 114.86550456 913.4888185 C100.85518168 913.48435502 86.84491907 913.48825152 72.83460408 913.504057 C63.48057805 913.51378477 54.12659438 913.51264985 44.77256876 913.50262077 C39.43987193 913.49721285 34.10729108 913.49656973 28.77460372 913.50912949 C23.92180131 913.52046383 19.0692093 913.51794899 14.2164142 913.50446242 C12.47320884 913.50202994 10.72998729 913.50460707 8.98679977 913.5128589 C-12.58879326 913.6082654 -29.2598934 908.00199722 -45.28223604 893.27723867 C-59.13196479 879.06576327 -63.86122376 860.43557206 -63.75630277 841.12682801 C-63.75974413 839.75728863 -63.76449617 838.38775205 -63.77042374 837.01822117 C-63.78285816 833.27607585 -63.77681763 829.53416039 -63.76759006 825.79201435 C-63.76085322 821.71269697 -63.77155989 817.63341786 -63.7799859 813.55410874 C-63.79233783 806.4114725 -63.79357161 799.26890197 -63.78743547 792.12625867 C-63.77833504 781.50464175 -63.78638399 770.88308546 -63.79772671 760.26147318 C-63.81738736 741.28908144 -63.81974217 722.31671704 -63.81453151 703.34431754 C-63.80997333 686.73932595 -63.81057477 670.13434517 -63.81637186 653.52935392 C-63.81712873 651.30149334 -63.81788471 649.07363276 -63.8186398 646.84577218 C-63.819785 643.4885316 -63.82093488 640.13129102 -63.82209905 636.77405045 C-63.83280329 605.56349934 -63.83753009 574.35295183 -63.82962888 543.14239961 C-63.82933171 541.96602168 -63.82903454 540.78964376 -63.82872836 539.57761802 C-63.82627946 530.02476867 -63.82366785 520.47191936 -63.82104423 510.91907005 C-63.8109422 473.65831552 -63.81929668 436.39760605 -63.84253877 399.13685781 C-63.8686142 357.26615497 -63.88145854 315.39547926 -63.87435102 273.52476799 C-63.87363497 269.05974391 -63.87296058 264.59471981 -63.87231058 260.12969571 C-63.87214077 259.03030805 -63.87197096 257.93092039 -63.87179601 256.79821796 C-63.86949359 240.20689641 -63.87746726 223.61560007 -63.89060205 207.02428418 C-63.90551437 188.15411203 -63.90635499 169.28399892 -63.88853114 150.41382804 C-63.87896992 139.85693286 -63.88039941 129.3001754 -63.89776583 118.74328942 C-63.90826233 111.68639269 -63.90414504 104.62960077 -63.88828579 97.57271434 C-63.87966221 93.55541616 -63.87720901 89.53838763 -63.89255511 85.5211034 C-63.98803816 58.64801808 -62.064998 37.38957917 -42.44239229 17.13270742 C-30.89401283 6.35261931 -15.76503007 0.00886734 0 0 Z M-39.11963838 32.48671132 C-48.06443809 44.17787394 -50.68061586 56.0738181 -50.63325495 70.53953248 C-50.63595056 71.90585583 -50.63951965 73.27217768 -50.64387941 74.63849673 C-50.65332478 78.39496205 -50.65034087 82.15133025 -50.64532387 85.90780031 C-50.64205544 89.99394766 -50.65034128 94.08007432 -50.65714222 98.16621506 C-50.66744935 105.32850565 -50.67028478 112.49076919 -50.66823 119.65306646 C-50.66518187 130.3038378 -50.67349983 140.9545792 -50.68397925 151.60534472 C-50.70333068 171.73419592 -50.7089479 191.86303695 -50.71009336 211.99189635 C-50.71101212 227.53555259 -50.7151271 243.07920484 -50.72149462 258.62285978 C-50.72328968 263.09560418 -50.72506931 267.56834858 -50.72684437 272.04109299 C-50.72728647 273.15300287 -50.72772856 274.26491274 -50.72818406 275.41051686 C-50.74049414 306.69072211 -50.74838501 337.97092596 -50.7474975 369.25113374 C-50.74746634 370.43070026 -50.74743518 371.61026678 -50.74740308 372.82557774 C-50.74723687 378.80423394 -50.74703878 384.78289014 -50.74683367 390.76154634 C-50.74677383 392.54264869 -50.74677383 392.54264869 -50.74671279 394.35973291 C-50.74663191 396.76094885 -50.74654832 399.16216479 -50.746462 401.56338073 C-50.74523644 438.92398891 -50.76024995 476.2845608 -50.78760713 513.64515859 C-50.81832377 555.61101476 -50.83553988 597.57684707 -50.83368069 639.54271519 C-50.83353143 644.01703137 -50.83343401 648.49134755 -50.83337206 652.96566373 C-50.83334875 654.06736931 -50.83332544 655.16907489 -50.83330142 656.30416549 C-50.83323986 674.03866883 -50.84601528 691.77314067 -50.86323659 709.50763464 C-50.88018477 727.32939801 -50.88217328 745.15111527 -50.86901794 762.97288223 C-50.86162337 773.56149025 -50.86530194 784.14995824 -50.88490262 794.73855143 C-50.896892 801.81293041 -50.89432314 808.88720785 -50.87996163 815.96158215 C-50.87218984 819.99141808 -50.87067202 824.02098282 -50.88687633 828.05079975 C-50.9015115 831.72259579 -50.89747174 835.39389666 -50.8790286 839.06567122 C-50.87400439 840.99647373 -50.88845034 842.92729763 -50.90387416 844.85804507 C-50.76464526 862.0173743 -44.42283692 875.20425334 -32.37598604 887.12880117 C-23.5094178 895.30352219 -12.12212701 900.24996301 -0.12304783 900.258753 C0.98217107 900.26160186 0.98217107 900.26160186 2.10971762 900.26450828 C4.5971077 900.26968684 7.08444154 900.26771392 9.57183558 900.26581556 C11.37349599 900.26807099 13.1751559 900.27076215 14.97681507 900.27385139 C19.9606348 900.2811056 24.94443948 900.28208066 29.92826377 900.28207417 C35.33795478 900.28314134 40.74763904 900.28992914 46.15732634 900.29598087 C56.901672 900.30706939 67.64601439 900.31270831 78.39036477 900.31668975 C91.25391166 900.32169371 104.11745219 900.33242041 116.98099533 900.34317148 C148.07643664 900.36881744 179.17188044 900.38386017 210.2673293 900.39668195 C220.56449697 900.40093133 230.86166446 900.40549896 241.15883189 900.41026527 C295.09539487 900.4351733 349.03195838 900.45723693 402.96852587 900.46945565 C406.9173003 900.47035302 410.86607472 900.47126772 414.81484914 900.47218338 C415.98982203 900.4724558 415.98982203 900.4724558 417.18853174 900.47273373 C425.12467814 900.47457641 433.06082453 900.47644227 440.99697092 900.47833182 C442.58819735 900.47870986 444.17942379 900.47908616 445.77065022 900.4794607 C496.8723332 900.49149011 547.97398213 900.5211771 599.07564907 900.56287581 C635.79000906 900.59282559 672.50436206 900.620454 709.21873385 900.63015348 C710.3513261 900.63045431 710.3513261 900.63045431 711.50679901 900.63076122 C728.08246216 900.63511185 744.65812527 900.63805757 761.2337889 900.63968773 C767.90324751 900.64036409 774.57270609 900.64121961 781.24216467 900.6421259 C781.97209695 900.64222 782.70202924 900.6423141 783.45408068 900.64241104 C806.96653978 900.64552316 830.47895554 900.66403151 853.99139903 900.69047587 C878.33489649 900.71776468 902.67833715 900.72714443 927.02184837 900.71582125 C941.05865932 900.70983552 955.09530146 900.7178031 969.13208693 900.74565209 C978.50507638 900.76287473 987.87795043 900.76197979 997.25094228 900.7462844 C1002.59372981 900.73785525 1007.93619467 900.73735199 1013.27895259 900.75889586 C1018.14215159 900.77834861 1023.00477013 900.77466416 1027.86795362 900.75274237 C1029.61375973 900.74888706 1031.35960991 900.75336211 1033.1053644 900.76732939 C1049.20141789 900.88773765 1062.76323811 896.94661034 1075.06151396 885.94911367 C1087.30806365 873.33020267 1092.0974334 857.72789388 1092.00433069 840.52161962 C1092.00776887 839.15838232 1092.0125188 837.79514782 1092.01845166 836.4319191 C1092.03093043 832.69329959 1092.02482532 828.95490904 1092.01561798 825.21628862 C1092.00889906 821.14603729 1092.01957889 817.07582492 1092.02801383 813.00558192 C1092.04038262 805.87427152 1092.04159224 798.74302692 1092.03546339 791.61170942 C1092.02637377 781.00699269 1092.03440325 770.40233684 1092.04575463 759.79762479 C1092.06542856 740.85660802 1092.06776752 721.91561862 1092.06255943 702.97459408 C1092.05800331 686.39654986 1092.05860011 669.81851648 1092.06439978 653.24047261 C1092.06515664 651.01722497 1092.06591262 648.79397733 1092.06666772 646.57072969 C1092.06781291 643.22053286 1092.06896279 639.87033603 1092.07012697 636.5201392 C1092.08083337 605.36924939 1092.08555583 574.2183632 1092.07765681 543.06747228 C1092.07735963 541.89301159 1092.07706246 540.7185509 1092.07675628 539.5085005 C1092.07430732 529.97090457 1092.07169574 520.43330868 1092.06907215 510.8957128 C1092.05897062 473.69588526 1092.06732276 436.49610287 1092.09056669 399.29628164 C1092.11663768 357.50436021 1092.12948756 315.71246596 1092.12237895 273.9205361 C1092.12166288 269.46448833 1092.12098849 265.00844056 1092.1203385 260.55239278 C1092.12008379 258.90659922 1092.12008379 258.90659922 1092.11982393 257.22755731 C1092.11752069 240.66307058 1092.12549919 224.09860908 1092.13862997 207.53412801 C1092.15353699 188.69530002 1092.1543901 169.85653117 1092.13655906 151.01770446 C1092.12699205 140.47595654 1092.12843913 129.93434652 1092.14579375 119.39260779 C1092.1562803 112.34825416 1092.15218694 105.3040056 1092.13631371 98.25966232 C1092.12767939 94.24783475 1092.1252633 90.23627745 1092.14058303 86.22446373 C1092.15441428 82.56785621 1092.14952393 78.91174901 1092.13029784 75.25517023 C1092.12485605 73.33491997 1092.13883433 71.4146438 1092.15382919 69.49444437 C1092.01468039 52.83188668 1086.42970834 39.52002907 1075.09667021 27.44911367 C1064.19395673 17.21813135 1050.00963432 12.00842291 1035.19551241 12 C1034.09829 11.99733749 1034.09829 11.99733749 1032.97890148 11.99462118 C1030.52174047 11.98988092 1028.06463814 11.99225427 1025.60747439 11.99458009 C1023.822848 11.99262694 1022.03822204 11.99023802 1020.25359675 11.98745212 C1015.32638212 11.98104433 1010.39918377 11.98089112 1005.47196576 11.98172953 C1000.12013077 11.98156018 994.76830165 11.97565578 989.41646957 11.97048867 C978.79130429 11.96115477 968.16614317 11.95723929 957.5409743 11.9549697 C944.81836597 11.9520097 932.09576318 11.9433135 919.37315775 11.93455542 C888.62026584 11.91370216 857.86737318 11.90323656 827.11447587 11.89442581 C816.93020491 11.89149174 806.74593417 11.88812184 796.56166345 11.8844586 C795.84316577 11.88420031 795.12466809 11.88394202 794.38439776 11.8836759 C791.47757872 11.88262967 788.57075967 11.88158125 785.66394063 11.88053008 C735.94118125 11.86256527 686.21842153 11.84718644 636.49565936 11.83977105 C632.59007097 11.83918708 628.68448259 11.83858981 624.77889421 11.83799343 C624.00415143 11.83787531 623.22940866 11.83775719 622.43118883 11.83763549 C614.58198826 11.83643811 606.7327877 11.83522935 598.88358714 11.83400296 C597.3098025 11.83375773 595.73601785 11.83351387 594.1622332 11.83327139 C543.62142725 11.82548219 493.08064452 11.8031 442.53984872 11.77059496 C406.22497837 11.74724712 369.91011265 11.72569655 333.59523493 11.71858865 C332.47481755 11.71836812 332.47481755 11.71836812 331.33176546 11.71814313 C314.93379552 11.71495819 298.53582562 11.71290738 282.1378554 11.71191558 C275.53981646 11.71150085 268.94177754 11.71094595 262.34373862 11.71035367 C261.6216303 11.710293 260.89952198 11.71023234 260.1555316 11.71016983 C236.90180017 11.70815443 213.64809617 11.69392037 190.39437431 11.67340867 C166.31691302 11.6522457 142.23949369 11.64547546 118.16202361 11.65528246 C104.28117117 11.66050397 90.4004276 11.65458913 76.51959079 11.63274779 C67.24807439 11.61926032 57.9766331 11.62029857 48.70511599 11.63314975 C43.42199538 11.64005993 38.13908323 11.64066947 32.85598106 11.62358966 C28.04463791 11.6081618 23.23367038 11.61133241 18.42233821 11.62899994 C16.69752713 11.63213586 14.97268715 11.62864716 13.24790919 11.61750819 C-7.20807803 11.49406194 -25.27138857 16.16238817 -39.11963838 32.48671132 Z " fill="#252524" transform="translate(65.37598603963852,3.871198832988739)"/>
<path d="M0 0 C1.77734375 1.22265625 1.77734375 1.22265625 3 3 C3.28881836 5.42529297 3.28881836 5.42529297 3 8 C1.58837891 9.60961914 1.58837891 9.60961914 -0.3984375 10.97265625 C-1.13030273 11.47684082 -1.86216797 11.98102539 -2.61621094 12.50048828 C-7.33144363 15.46658406 -12.19976136 18.13908215 -17.109375 20.76757812 C-23.83237234 24.51278484 -28.85300728 28.845412 -32 36 C-32.58333333 39 -32.58333333 39 -32 42 C-28.5374218 45.17667724 -24.68467237 47.41641161 -20.625 49.75 C-8.29966738 57.1800415 -8.29966738 57.1800415 -6.41015625 64.1875 C-5.97391143 70.31620778 -8.37938777 75.18458573 -12 80 C-15.76632351 83.93446295 -19.88755884 87.66564613 -25.47265625 88.265625 C-26.32730469 88.26046875 -27.18195313 88.2553125 -28.0625 88.25 C-28.91972656 88.25515625 -29.77695312 88.2603125 -30.66015625 88.265625 C-33 88 -33 88 -36 86 C-36.5 82.625 -36.5 82.625 -36 79 C-34 76.9375 -34 76.9375 -31 75 C-29.57263403 74.01533212 -28.15642855 73.01434865 -26.75 72 C-25.72132813 71.2884375 -25.72132813 71.2884375 -24.671875 70.5625 C-22.71125289 68.73014289 -22.53423977 67.56962733 -22 65 C-22.51385254 64.70343506 -23.02770508 64.40687012 -23.55712891 64.10131836 C-25.92112665 62.72670928 -28.27289478 61.3323531 -30.625 59.9375 C-31.43324219 59.47150391 -32.24148438 59.00550781 -33.07421875 58.52539062 C-38.89066801 55.04970753 -43.91014218 51.17971564 -47 45 C-47.04022391 42.6670134 -47.04320247 40.33293334 -47 38 C-56.17200234 41.6780257 -56.17200234 41.6780257 -62.19921875 48.8515625 C-62.44407559 50.88940328 -62.62645567 52.93559812 -62.75 54.984375 C-63.51637561 64.22878078 -70.37047839 72.02602917 -77 78 C-83.59585308 82.74176837 -89.96845365 84.14012488 -98 83 C-103.15924902 81.28025033 -106.10468178 78.59844658 -109 74 C-109.92624667 69.50569009 -109.46593673 66.05894712 -107.625 61.875 C-100.57313529 54.15152913 -90.35614763 48.54990741 -81 44 C-90.23541998 45.51400328 -98.95696905 48.41145275 -107.8269043 51.32226562 C-109.75875895 51.92476293 -111.72235002 52.42328941 -113.6875 52.90625 C-117.47474553 54.1567556 -120.2139104 56.08073082 -123.3125 58.5 C-139.19662214 70.33063305 -159.52954208 82.99711785 -180 81 C-184.52824104 78.85504372 -186.96925303 76.56918068 -189 72 C-189.79726267 69.02154699 -190.43866905 66.03118713 -191 63 C-191.9075 63.86625 -192.815 64.7325 -193.75 65.625 C-202.55583206 73.00713466 -210.97486518 76.13670527 -222.34765625 75.453125 C-228.61062852 74.67611454 -232.60481169 72.80020923 -236.8125 68.125 C-242.95648424 59.34787965 -243.17985979 51.15322149 -243.60546875 40.8125 C-243.66154297 39.58660156 -243.66154297 39.58660156 -243.71875 38.3359375 C-243.74904297 37.59907715 -243.77933594 36.8622168 -243.81054688 36.10302734 C-244.00175189 33.98055311 -244.42806974 32.0498027 -245 30 C-245.31114746 30.58789307 -245.62229492 31.17578613 -245.94287109 31.78149414 C-267.43160691 72.21580345 -267.43160691 72.21580345 -277 77 C-281.1792999 77.56990453 -282.69372515 77.20614654 -286.25 74.8125 C-291.4959811 69.44729206 -291.4871314 63.78959482 -291.50634766 56.63745117 C-291.16378104 42.77720588 -286.04459985 21.51807193 -277.0390625 10.62890625 C-275 9 -275 9 -271.5 8.5 C-268 9 -268 9 -265.5 10.5 C-263.34100461 14.09832565 -264.16268842 17.06612656 -265 21 C-266.17676488 25.06914033 -267.54509567 29.06272613 -268.9375 33.0625 C-273.24364435 44.28148458 -273.24364435 44.28148458 -275 56 C-274.59273682 55.24493164 -274.18547363 54.48986328 -273.76586914 53.71191406 C-272.21342671 50.84485575 -270.65235453 47.98283217 -269.08569336 45.12353516 C-268.41630143 43.89783397 -267.75014951 42.67035634 -267.08764648 41.44091797 C-252.54284487 14.47174139 -252.54284487 14.47174139 -243.1875 10.9375 C-238.72571354 11.02498601 -235.59218974 12.37953343 -232 15 C-227.77997199 20.90803922 -227.05596798 28.4950143 -226.796875 35.58984375 C-226.75071045 36.82988159 -226.75071045 36.82988159 -226.70361328 38.0949707 C-226.65233161 39.74538044 -226.61862496 41.39645754 -226.60498047 43.04760742 C-226.44651323 48.73658121 -225.27123665 53.26302993 -222 58 C-218.42692516 59.78653742 -214.84669717 59.57895298 -211 59 C-203.8485465 56.3756134 -197.96436862 52.62349852 -192.5234375 47.3203125 C-191 46 -191 46 -189 46 C-188.7215625 44.205625 -188.7215625 44.205625 -188.4375 42.375 C-185.702898 30.31616477 -178.7549972 18.38575396 -168.51953125 11.27734375 C-162.14870706 7.73141215 -156.65951312 6.70357245 -149.61328125 8.6640625 C-145.05517304 10.39689703 -141.4119078 12.54029851 -138.8203125 16.75390625 C-136.70562185 22.54413064 -136.74401909 28.92627217 -139.07421875 34.62890625 C-144.14208404 42.83468266 -151.64745305 46.97555186 -160 51.25 C-160.66435059 51.59168213 -161.32870117 51.93336426 -162.01318359 52.28540039 C-166.59993535 54.54834071 -171.00268911 55.90683824 -176 57 C-176 59.97 -176 62.94 -176 66 C-162.21916875 64.466253 -150.6261474 59.96507559 -138.3125 53.875 C-137.43843506 53.44316406 -136.56437012 53.01132812 -135.66381836 52.56640625 C-134.43223999 51.94185547 -134.43223999 51.94185547 -133.17578125 51.3046875 C-132.44270752 50.93327637 -131.70963379 50.56186523 -130.9543457 50.17919922 C-128.91596956 48.94929831 -127.46041449 47.88446221 -126 46 C-126.0825 44.824375 -126.165 43.64875 -126.25 42.4375 C-126.44152389 34.89966691 -120.6203621 29.70813758 -115.8046875 24.49609375 C-109.18413168 17.54081151 -102.53150104 11.56941411 -94 7 C-92.98292969 6.43152344 -92.98292969 6.43152344 -91.9453125 5.8515625 C-88.65662423 4.41193591 -85.5132809 4.43125166 -82 5 C-79.5 6.5625 -79.5 6.5625 -78 9 C-77.45788919 12.79477569 -77.34983322 14.98234764 -79.4375 18.25 C-81.82713427 19.88194536 -83.34256362 20.47008993 -86.0625 21.25 C-94.93066704 23.92801084 -101.67253236 30.50577625 -108 37 C-106.75347656 36.566875 -105.50695312 36.13375 -104.22265625 35.6875 C-95.69969456 32.85212349 -87.60880117 30.41335238 -78.5625 30.4375 C-77.8722876 30.43556641 -77.1820752 30.43363281 -76.47094727 30.43164062 C-73.21082188 30.53846365 -71.15572093 30.90647598 -68.33984375 32.59765625 C-66.11703906 34.25068309 -66.11703906 34.25068309 -63.671875 33.74243164 C-58.78164477 32.38358751 -54.50318165 29.78657334 -50.0625 27.375 C-49.08603516 26.86582031 -48.10957031 26.35664062 -47.10351562 25.83203125 C-41.84562125 22.98742127 -37.92605711 20.32955779 -34.2644043 15.58886719 C-27.2600664 6.7871234 -11.55671724 -2.82887386 0 0 Z " fill="#282727" transform="translate(1037,573)"/>
<path d="M0 0 C3 0.5 3 0.5 5.4375 2.0625 C7.20426902 4.81865967 7.18902688 6.1001733 6.64428711 9.26245117 C5.16317899 14.40620103 2.46971421 19.11650601 0.0625 23.875 C-4.53631012 33.18661927 -8.83963573 42.53270067 -12.6875 52.1875 C-13.09669678 53.2069873 -13.50589355 54.22647461 -13.92749023 55.27685547 C-16.03009467 60.63520656 -17.75321499 65.87946652 -19 71.5 C-18.41605469 70.80777344 -18.41605469 70.80777344 -17.8203125 70.1015625 C-8.80279186 59.58804766 1.42568639 48.0247712 15 43.5 C20.24894167 43.10385346 23.55342094 43.63442683 28 46.5 C33.31480507 52.38937859 33.42683542 56.92833022 33.27734375 64.6640625 C32.56359587 74.5358994 26.46806689 82.37732472 19.5 89.0625 C7.86492976 98.80297068 -7.53722674 103.47964217 -22.5 103.875 C-23.7684375 103.92398438 -25.036875 103.97296875 -26.34375 104.0234375 C-31.10019659 103.34249322 -32.91113076 102.17655365 -36 98.5 C-36.79599878 95.38479489 -36.71043682 92.44677464 -36.5625 89.25 C-36.53881348 88.36393066 -36.51512695 87.47786133 -36.49072266 86.56494141 C-35.48492656 60.17341859 -25.19659522 35.66488042 -12.1875 13 C-11.73157471 12.204729 -11.27564941 11.40945801 -10.8059082 10.59008789 C-5.05433122 0.84238854 -5.05433122 0.84238854 0 0 Z " fill="#282727" transform="translate(523,550.5)"/>
<path d="M0 0 C6.10016164 5.63759014 9.9503922 14.60256477 10.453125 22.8203125 C10.59716349 34.51143676 9.27713562 45.20697276 0.8046875 54 C-7.27064049 61.10290629 -15.58757201 61.98145206 -25.94921875 61.77734375 C-33.41759157 61.23237513 -39.74611153 58.45736465 -45.21875 53.3203125 C-52.00359375 45.25465641 -54.32305768 34.54791402 -54.0625 24.20703125 C-52.93627896 14.45114148 -49.63635321 5.26281692 -41.8671875 -1.0234375 C-29.30866187 -9.54353528 -12.13348261 -8.93489569 0 0 Z " fill="#FDFDFC" transform="translate(733.75,117.5)"/>
<path d="M0 0 C3.4375 0.875 3.4375 0.875 5.375 1.9375 C7.19923889 5.26405326 7.04383279 8.24812863 6.4375 11.875 C5.30766246 15.32078804 4.02807148 18.69396244 2.74609375 22.0859375 C-0.69034583 31.59350256 -1.95669032 41.82691526 -2.5625 51.875 C8.16543243 49.95929778 14.99313064 43.40463862 21.4375 34.875 C27.92861413 25.40494823 33.84802244 15.58602948 39.03515625 5.34375 C40.34852806 3.03163027 41.30969774 1.45520609 43.4375 -0.125 C47.62315586 -0.98063131 51.3055751 -0.78759019 55 1.375 C57.03058992 4.90646073 56.98702412 7.94073727 56.4375 11.875 C55.12421892 16.0714177 53.40102121 20.07837603 51.6875 24.125 C47.143216 35.24694756 43.11241262 46.45737143 39.375 57.875 C38.37462873 60.91827521 37.37294298 63.96111729 36.37109375 67.00390625 C36.12654449 67.74723709 35.88199524 68.49056793 35.6300354 69.25642395 C33.14221437 76.80225736 30.57131298 84.31645343 27.9375 91.8125 C27.34183228 93.5440332 27.34183228 93.5440332 26.73413086 95.31054688 C26.35780518 96.37208984 25.98147949 97.43363281 25.59375 98.52734375 C25.27212891 99.44507568 24.95050781 100.36280762 24.61914062 101.30834961 C23.25140278 104.27922315 21.6619371 106.48118548 19.4375 108.875 C16.5 109.5 16.5 109.5 13.4375 108.875 C10.5625 106.875 10.5625 106.875 8.4375 103.875 C7.92789026 97.60340283 9.10480175 92.51192335 11 86.5625 C11.26449951 85.70527344 11.52899902 84.84804688 11.80151367 83.96484375 C14.47657642 75.44698318 17.56449883 67.08394209 20.77661133 58.75585938 C21.45836927 56.815607 21.96959175 54.87659209 22.4375 52.875 C22.03660156 53.38289062 21.63570312 53.89078125 21.22265625 54.4140625 C16.70486938 59.88457993 10.03163579 67.16702846 2.5546875 68.11328125 C-3.31993988 68.30773756 -7.77079033 67.40915691 -12.5625 63.875 C-20.46249894 54.15192438 -18.2343116 39.69851813 -17.5625 27.875 C-16.42142077 18.28065739 -12.94811868 7.73597591 -5.59765625 1.1015625 C-3.5625 -0.125 -3.5625 -0.125 0 0 Z " fill="#282727" transform="translate(160.5625,553.125)"/>
<path d="M0 0 C5.72890649 3.51546534 7.9413718 8.82411539 10 15 C11.408498 33.21811345 5.79466027 48.71383626 -5.84765625 62.76953125 C-9.15669081 66.19867595 -12.85058997 68.6913057 -17 71 C-17.639375 71.37253906 -18.27875 71.74507812 -18.9375 72.12890625 C-23.724949 74.15087808 -29.44427575 73.84760552 -34.3203125 72.23046875 C-39.2721877 69.56624692 -41.91001287 65.90373351 -44.16015625 60.8125 C-46.31236547 53.60510168 -45.33184754 46.58590863 -43.41796875 39.45703125 C-42.88803724 36.3418264 -43.13364384 33.46527814 -43.3125 30.3125 C-43.43391241 20.95362682 -39.89251859 13.54951356 -33.84765625 6.484375 C-24.11483909 -2.75239348 -12.38249485 -6.3990074 0 0 Z " fill="#282727" transform="translate(268,581)"/>
<path d="M0 0 C2.1640625 0.40625 2.1640625 0.40625 4.7265625 2.40625 C7.57516395 8.35115738 6.05873521 15.23202162 4.9921875 21.54296875 C4.86981216 22.29688904 4.74743683 23.05080933 4.62135315 23.82757568 C4.22581643 26.25082768 3.8206139 28.67232352 3.4140625 31.09375 C3.13748188 32.76242929 2.86103388 34.43113057 2.5847168 36.09985352 C1.79089628 40.87090627 0.98062505 45.6390429 0.1640625 50.40625 C-0.04331543 51.62119141 -0.25069336 52.83613281 -0.46435547 54.08789062 C-0.96978368 57.00932791 -1.49064951 59.92719505 -2.0234375 62.84375 C-2.16555664 63.65094482 -2.30767578 64.45813965 -2.45410156 65.28979492 C-3.30173177 69.75446784 -4.6073829 73.44507266 -6.8359375 77.40625 C-13.33434514 77.77408439 -13.33434514 77.77408439 -15.7109375 76.03125 C-18.18934456 72.45132869 -18.02732992 69.25063833 -18.0234375 65.03125 C-18.02408203 64.3196875 -18.02472656 63.608125 -18.02539062 62.875 C-17.96342525 56.58833067 -17.14090861 50.55825665 -15.8359375 44.40625 C-16.23683594 45.15648437 -16.63773437 45.90671875 -17.05078125 46.6796875 C-21.76441915 55.16637343 -27.40043365 64.14433727 -35.8359375 69.40625 C-40.45568817 70.33859968 -44.06487156 69.78477328 -48.2734375 67.71875 C-52.11202431 64.25465946 -52.909128 61.06172585 -53.2421875 56.01953125 C-53.71163831 40.00621233 -52.27368557 20.46145775 -43.8359375 6.40625 C-41.8359375 4.40625 -41.8359375 4.40625 -38.4609375 4.03125 C-34.8359375 4.40625 -34.8359375 4.40625 -32.3984375 5.84375 C-29.14383554 11.18129722 -30.76195948 17.67040879 -32.11328125 23.46484375 C-32.65573955 25.59395975 -33.20932711 27.72026809 -33.7734375 29.84375 C-34.19012695 31.47473633 -34.19012695 31.47473633 -34.61523438 33.13867188 C-36.65881395 41.0520029 -36.65881395 41.0520029 -37.8359375 43.40625 C-37.90589764 45.11327735 -37.92033904 46.82293003 -37.8984375 48.53125 C-37.88490234 49.89636719 -37.88490234 49.89636719 -37.87109375 51.2890625 C-37.85949219 51.98773437 -37.84789062 52.68640625 -37.8359375 53.40625 C-35.39957212 53.02249055 -34.10576565 52.67128546 -32.32397461 50.92114258 C-28.44848646 45.56367101 -25.31722128 40.02239793 -22.3984375 34.09375 C-21.92470703 33.14330811 -21.45097656 32.19286621 -20.96289062 31.21362305 C-17.47904004 24.07824676 -14.5492098 16.83781882 -12.02954102 9.30932617 C-9.55954437 2.03332379 -7.68540961 -0.30040689 0 0 Z " fill="#292828" transform="translate(346.8359375,577.59375)"/>
<path d="M0 0 C2.5 1.4375 2.5 1.4375 4 4 C4.39610157 11.59583013 3.38068491 18.92607192 2.3125 26.4375 C2.13460937 27.69852539 1.95671875 28.95955078 1.7734375 30.25878906 C0.51371341 38.9530572 -0.89661509 47.61249106 -2.5 56.25 C-2.68908936 57.3011499 -2.87817871 58.3522998 -3.07299805 59.43530273 C-4.29121454 65.73851499 -6.09977354 71.2679147 -9 77 C-15.48073827 77.36683424 -15.48073827 77.36683424 -17.70996094 75.79199219 C-19.39990575 73.44449125 -19.35933295 72.01713702 -19.328125 69.140625 C-19.32296875 68.18929687 -19.3178125 67.23796875 -19.3125 66.2578125 C-19.291875 65.26523437 -19.27125 64.27265625 -19.25 63.25 C-19.24484375 62.27289062 -19.2396875 61.29578125 -19.234375 60.2890625 C-19.17842054 55.09928615 -18.88574887 50.11448543 -18 45 C-18.58007812 45.92941406 -19.16015625 46.85882812 -19.7578125 47.81640625 C-31.46637396 66.41693854 -31.46637396 66.41693854 -38 69 C-42.25789541 69.55267015 -45.83377422 69.43099648 -49.875 67.9375 C-53.82265142 64.33817077 -54.89310052 60.1712965 -55.36328125 55.01953125 C-55.36526772 53.61708675 -55.34771014 52.21450384 -55.3125 50.8125 C-55.3012207 50.06419922 -55.28994141 49.31589844 -55.27832031 48.54492188 C-55.12356103 42.2187967 -54.3557516 36.18466461 -53 30 C-52.86045898 29.32904297 -52.72091797 28.65808594 -52.57714844 27.96679688 C-48.51179543 8.51179543 -48.51179543 8.51179543 -44 4 C-37.8328104 3.53455173 -37.8328104 3.53455173 -34.79443359 5.23266602 C-33 7 -33 7 -32.52587891 9.10913086 C-32.72625609 15.51150508 -33.75586992 21.37251112 -35.375 27.5625 C-35.8209127 29.33448449 -36.26623067 31.10661875 -36.7109375 32.87890625 C-36.92733887 33.73186279 -37.14374023 34.58481934 -37.36669922 35.46362305 C-39.57779633 44.11707881 -39.57779633 44.11707881 -40 53 C-37.62112137 52.91220325 -37.62112137 52.91220325 -35 52 C-24.76812657 39.8964424 -18.55507647 22.35239527 -13.29467773 7.6105957 C-10.72128531 0.59305117 -7.38152184 -1.14361606 0 0 Z " fill="#282727" transform="translate(623,578)"/>
<path d="M0 0 C2.85446444 2.01901143 5.19911687 4.24058306 7.5625 6.8125 C8.614375 5.6678125 8.614375 5.6678125 9.6875 4.5 C15.10053848 -0.56001423 19.53040283 -1.76290916 26.80859375 -1.53515625 C32.36488271 -0.83372403 36.06076906 1.0162603 39.64770508 5.30664062 C42.13767487 9.86560611 42.07471636 13.26764597 41.953125 18.3671875 C41.94746521 19.26873566 41.94180542 20.17028381 41.93597412 21.09915161 C41.91368555 23.96248763 41.86350389 26.82454589 41.8125 29.6875 C41.79242525 31.63539852 41.77417619 33.58331677 41.7578125 35.53125 C41.71384547 40.2921547 41.64487063 45.05211114 41.5625 49.8125 C37.2725 49.8125 32.9825 49.8125 28.5625 49.8125 C28.532771 48.29897949 28.532771 48.29897949 28.50244141 46.75488281 C28.42626664 43.00495804 28.33756784 39.25541529 28.24511719 35.50585938 C28.20687642 33.88419141 28.17201497 32.26244004 28.140625 30.640625 C28.09486743 28.30698883 28.03689184 25.97392438 27.9765625 23.640625 C27.96501129 22.91756165 27.95346008 22.19449829 27.94155884 21.44952393 C27.83480294 17.7938512 27.69435393 14.86395862 25.5625 11.8125 C22.34320427 10.20285213 19.04362288 10.20563758 15.5625 10.8125 C12.34295355 13.34703657 10.85817565 14.92547305 9.5625 18.8125 C9.41070986 21.1680448 9.31350711 23.52725123 9.24609375 25.88671875 C9.22531265 26.5705513 9.20453156 27.25438385 9.18312073 27.9589386 C9.11783846 30.1391921 9.05883983 32.31956405 9 34.5 C8.95679447 35.97982986 8.91317953 37.45964783 8.86914062 38.93945312 C8.76140975 42.56368254 8.66217893 46.18800438 8.5625 49.8125 C3.9425 49.8125 -0.6775 49.8125 -5.4375 49.8125 C-5.45208252 48.73766357 -5.46666504 47.66282715 -5.48168945 46.55541992 C-5.5396489 42.56875283 -5.61688129 38.58265199 -5.69995117 34.59643555 C-5.73321172 32.87094307 -5.76124019 31.14534151 -5.78393555 29.41967773 C-5.81746153 26.93946834 -5.86977406 24.4602597 -5.92578125 21.98046875 C-5.93217117 21.20849655 -5.9385611 20.43652435 -5.94514465 19.64115906 C-6.03278823 15.48004011 -6.03278823 15.48004011 -7.83911133 11.83349609 C-9.91350971 10.50844125 -11.35640056 10.31286944 -13.8125 10.25 C-14.56273437 10.20746094 -15.31296875 10.16492188 -16.0859375 10.12109375 C-19.67632161 11.17673825 -21.57145771 13.70376004 -23.4375 16.8125 C-23.93550919 19.61470057 -24.16041765 21.82634743 -24.14453125 24.6171875 C-24.15965256 25.3411673 -24.17477386 26.06514709 -24.19035339 26.81106567 C-24.23304044 29.10353195 -24.24204885 31.39467686 -24.25 33.6875 C-24.27315946 35.25003466 -24.29852782 36.81253824 -24.32617188 38.375 C-24.38883504 42.1876158 -24.42131866 45.99941511 -24.4375 49.8125 C-29.0575 49.8125 -33.6775 49.8125 -38.4375 49.8125 C-38.4375 33.3125 -38.4375 16.8125 -38.4375 -0.1875 C-34.1475 -0.1875 -29.8575 -0.1875 -25.4375 -0.1875 C-25.1075 1.7925 -24.7775 3.7725 -24.4375 5.8125 C-23.695 5.02875 -22.9525 4.245 -22.1875 3.4375 C-15.96440825 -2.50272394 -8.01164218 -2.76765821 0 0 Z " fill="#FDFDFD" transform="translate(354.4375,245.1875)"/>
<path d="M0 0 C2.85446444 2.01901143 5.19911687 4.24058306 7.5625 6.8125 C8.284375 6.049375 9.00625 5.28625 9.75 4.5 C14.10865665 0.33506142 17.27458918 -1.6170047 23.375 -1.625 C28.70124033 -1.46776781 33.50242963 -0.86924563 37.5625 2.8125 C41.46644809 8.44970586 42.11973073 12.47682164 41.953125 19.24609375 C41.94746521 20.12403091 41.94180542 21.00196808 41.93597412 21.9065094 C41.91372853 24.6882468 41.86355591 27.46865732 41.8125 30.25 C41.79241965 32.14516358 41.77417158 34.04034752 41.7578125 35.93554688 C41.7139027 40.56170284 41.64495882 45.18687709 41.5625 49.8125 C37.2725 49.8125 32.9825 49.8125 28.5625 49.8125 C28.532771 48.35227417 28.532771 48.35227417 28.50244141 46.86254883 C28.42614633 43.23745649 28.33746664 39.61275306 28.24511719 35.98803711 C28.20692591 34.42170919 28.17205606 32.85529651 28.140625 31.28881836 C28.09475929 29.032082 28.03680231 26.77592417 27.9765625 24.51953125 C27.96501129 23.82350296 27.95346008 23.12747467 27.94155884 22.41035461 C27.82338746 18.48329766 27.4090283 15.30827093 25.5625 11.8125 C22.34555636 10.20402818 19.04112778 10.19940851 15.5625 10.8125 C12.87144802 12.98824416 11.10717072 14.72315856 9.5625 17.8125 C9.40641977 20.21810273 9.30445542 22.59952772 9.24609375 25.0078125 C9.22531265 25.71525604 9.20453156 26.42269958 9.18312073 27.15158081 C9.11768922 29.41345425 9.05877026 31.67544462 9 33.9375 C8.95680867 35.47006422 8.91319418 37.00261657 8.86914062 38.53515625 C8.76121711 42.29415268 8.66209717 46.05323675 8.5625 49.8125 C3.9425 49.8125 -0.6775 49.8125 -5.4375 49.8125 C-5.45208252 48.73766357 -5.46666504 47.66282715 -5.48168945 46.55541992 C-5.5396489 42.56875283 -5.61688129 38.58265199 -5.69995117 34.59643555 C-5.73321172 32.87094307 -5.76124019 31.14534151 -5.78393555 29.41967773 C-5.81746153 26.93946834 -5.86977406 24.4602597 -5.92578125 21.98046875 C-5.93217117 21.20849655 -5.9385611 20.43652435 -5.94514465 19.64115906 C-6.04720897 15.51427223 -6.04720897 15.51427223 -7.72729492 11.8293457 C-10.77734772 10.01585963 -14.05768836 10.19978561 -17.4375 10.8125 C-20.2475346 12.60613911 -21.94690468 13.83130935 -23.4375 16.8125 C-23.59376576 19.29082659 -23.69563198 21.74561331 -23.75390625 24.2265625 C-23.77468735 24.95620209 -23.79546844 25.68584167 -23.81687927 26.43759155 C-23.88231917 28.77079763 -23.94123368 31.10411721 -24 33.4375 C-24.04319053 35.01824095 -24.08680499 36.59897039 -24.13085938 38.1796875 C-24.23799481 42.05717504 -24.33927782 45.93477685 -24.4375 49.8125 C-29.0575 49.8125 -33.6775 49.8125 -38.4375 49.8125 C-38.4375 33.3125 -38.4375 16.8125 -38.4375 -0.1875 C-34.1475 -0.1875 -29.8575 -0.1875 -25.4375 -0.1875 C-25.1075 1.7925 -24.7775 3.7725 -24.4375 5.8125 C-23.695 5.02875 -22.9525 4.245 -22.1875 3.4375 C-15.96440825 -2.50272394 -8.01164218 -2.76765821 0 0 Z " fill="#FDFDFC" transform="translate(646.4375,245.1875)"/>
<path d="M0 0 C2.9375 1.3125 2.9375 1.3125 5 4 C5.83063096 8.80162985 5.88916075 13.2216785 3.6875 17.625 C0.73436818 19.13590465 -0.79404543 19.11746169 -4.0625 19.1875 C-11.60121533 19.60966806 -15.75818656 23.9476497 -21 29 C-22.22203125 30.175625 -22.22203125 30.175625 -23.46875 31.375 C-25.34339987 33.22324635 -27.18601107 35.0924529 -29 37 C-27.8553125 36.84273437 -26.710625 36.68546875 -25.53125 36.5234375 C-5.98212039 34.10560941 -5.98212039 34.10560941 0.8125 38.1875 C4.61878117 41.20009474 7.45073903 44.3522171 9 49 C9.66486496 56.71243357 8.00199517 62.38463057 3.01171875 68.39453125 C-6.61402798 78.41927266 -17.45133267 84.11712262 -31.5625 84.4375 C-37.4135283 84.43097711 -37.4135283 84.43097711 -39.87109375 82.625 C-41 81 -41 81 -41.5 78.5625 C-40.77829973 74.86378612 -39.07922677 74.11112113 -36 72 C-33.45147244 70.82980052 -30.83786361 69.91153676 -28.1875 69 C-26.75676253 68.48336729 -25.32705789 67.96386472 -23.8984375 67.44140625 C-23.22135742 67.19406738 -22.54427734 66.94672852 -21.84667969 66.69189453 C-16.00274909 64.50235205 -10.92185703 62.02487932 -7 57 C-6.49758678 54.3295947 -6.49758678 54.3295947 -7 52 C-8.58397659 50.41602341 -10.18025597 50.82980871 -12.375 50.8125 C-16.11855319 50.83897492 -19.528584 51.226526 -23.1875 52 C-27.74477852 52.89065215 -32.23794602 53.31539788 -36.875 53.4375 C-38.10992188 53.47746094 -39.34484375 53.51742187 -40.6171875 53.55859375 C-44.92657182 52.84699796 -46.34992916 51.40371552 -49 48 C-50.12936735 42.54139116 -49.07159557 39.56356901 -46.25 34.8125 C-36.78590498 21.05521671 -18.12170747 -1.53573792 0 0 Z " fill="#292828" transform="translate(687,572)"/>
<path d="M0 0 C4.62 0 9.24 0 14 0 C14 8.91 14 17.82 14 27 C23.57 27 33.14 27 43 27 C43 18.09 43 9.18 43 0 C47.62 0 52.24 0 57 0 C57 21.78 57 43.56 57 66 C52.38 66 47.76 66 43 66 C43 56.76 43 47.52 43 38 C33.43 38 23.86 38 14 38 C14 47.24 14 56.48 14 66 C9.38 66 4.76 66 0 66 C0 44.22 0 22.44 0 0 Z " fill="#FEFDFD" transform="translate(431,112)"/>
<path d="M0 0 C16.5 0 33 0 50 0 C50 3.63 50 7.26 50 11 C38.12 11 26.24 11 14 11 C14 16.61 14 22.22 14 28 C23.24 28 32.48 28 42 28 C42 31.3 42 34.6 42 38 C32.76 38 23.52 38 14 38 C14 43.61 14 49.22 14 55 C26.21 55 38.42 55 51 55 C51 58.63 51 62.26 51 66 C34.17 66 17.34 66 0 66 C0 44.22 0 22.44 0 0 Z " fill="#FEFDFD" transform="translate(504,112)"/>
<path d="M0 0 C0.84820312 -0.01675781 1.69640625 -0.03351562 2.5703125 -0.05078125 C4.875 0.3125 4.875 0.3125 6.7421875 1.39453125 C7.875 3.3125 7.875 3.3125 7.99609375 6.7265625 C6.75055737 10.71054298 5.5727275 11.71479599 1.96118164 13.66943359 C1.2933667 14.00539551 0.62555176 14.34135742 -0.0625 14.6875 C-23.8450005 27.8339456 -35.88686821 53.73372572 -45.25390625 78.26953125 C-46.125 80.3125 -46.125 80.3125 -48.125 82.3125 C-54.35294118 82.87867647 -54.35294118 82.87867647 -57 80.9375 C-60.78778985 75.466248 -59.39288705 68.23086575 -58.3203125 61.97265625 C-57.97076144 60.10540483 -57.61374971 58.23953747 -57.25 56.375 C-55.68796352 48.04549473 -54.49018084 39.80459721 -53.98486328 31.34008789 C-53.60349901 26.49092775 -52.71285811 23.66636737 -49.125 20.3125 C-45.625 19.6875 -45.625 19.6875 -42.125 20.3125 C-38.04777433 23.85324861 -37.74772092 27.12926408 -37.125 32.3125 C-36.4959375 31.2503125 -35.866875 30.188125 -35.21875 29.09375 C-27.5396995 16.33104434 -16.73928371 0.07678571 0 0 Z " fill="#282727" transform="translate(424.125,572.6875)"/>
<path d="M0 0 C6.34306882 3.88351152 11.07617072 7.39705446 13.0625 14.875 C13.0625 19.495 13.0625 24.115 13.0625 28.875 C1.5125 28.875 -10.0375 28.875 -21.9375 28.875 C-19.62673275 35.40328709 -19.62673275 35.40328709 -14.9375 38.875 C-10.54275101 39.67163124 -5.88349424 39.94251684 -1.88671875 37.75 C-0.0573386 36.27144616 -0.0573386 36.27144616 2.0625 33.875 C5.3625 35.195 8.6625 36.515 12.0625 37.875 C9.79100562 43.55373596 7.41095738 46.23985836 2.0546875 48.85546875 C-5.61870992 51.78456131 -13.39941836 52.0340567 -21.1875 49.375 C-27.69426721 46.44747199 -31.24842544 41.65380008 -34.875 35.6875 C-37.23621245 27.21491417 -37.02587284 17.78847924 -32.9375 9.875 C-26.08707078 -1.16912146 -12.08334335 -4.55512041 0 0 Z " fill="#FDFDFC" transform="translate(734.9375,245.125)"/>
<path d="M0 0 C4.1379424 3.64876704 5.76962824 6.73636707 6.42285156 12.15600586 C6.63316951 16.17973364 6.72519892 20.18680747 6.765625 24.21484375 C6.79381941 25.62829127 6.82375165 27.04170526 6.85546875 28.45507812 C6.9289245 31.89567632 6.97874925 35.33613652 7.015625 38.77734375 C8.995625 38.77734375 10.975625 38.77734375 13.015625 38.77734375 C13.015625 41.41734375 13.015625 44.05734375 13.015625 46.77734375 C9.33870042 49.13057548 6.31048046 49.21410871 2.015625 48.77734375 C-1.24178963 47.40987464 -4.34883356 46.04842664 -5.984375 42.77734375 C-6.51546875 43.12667969 -7.0465625 43.47601563 -7.59375 43.8359375 C-8.65335938 44.51849609 -8.65335938 44.51849609 -9.734375 45.21484375 C-10.43046875 45.66730469 -11.1265625 46.11976563 -11.84375 46.5859375 C-16.86997629 49.38338096 -22.5986809 49.55629873 -28.140625 48.28125 C-31.42304383 47.19731692 -33.77285701 45.94655814 -36.484375 43.77734375 C-38.80468712 39.13671951 -38.80588156 34.85574793 -37.984375 29.77734375 C-34.95976955 24.04102307 -30.94234052 22.54611801 -24.90234375 20.58984375 C-18.90555278 18.92005456 -13.23027173 17.64492191 -6.984375 17.77734375 C-7.40929626 16.48148459 -7.84983382 15.19073935 -8.296875 13.90234375 C-8.54050781 13.18304688 -8.78414062 12.46375 -9.03515625 11.72265625 C-9.94773047 9.4373947 -9.94773047 9.4373947 -12.984375 7.77734375 C-18.60484324 7.10676093 -18.60484324 7.10676093 -23.359375 9.58984375 C-24.61733413 11.28325027 -25.81422224 13.02211461 -26.984375 14.77734375 C-30.614375 13.78734375 -34.244375 12.79734375 -37.984375 11.77734375 C-37.72504768 8.06031884 -37.24882855 6.11392099 -34.921875 3.15234375 C-24.74299676 -5.07738759 -11.76015126 -6.10623239 0 0 Z " fill="#FDFDFC" transform="translate(586.984375,247.22265625)"/>
<path d="M0 0 C4.95 0 9.9 0 15 0 C17.32817577 6.10167167 19.48666081 12.24569579 21.5625 18.4375 C21.86607422 19.32759766 22.16964844 20.21769531 22.48242188 21.13476562 C22.77826172 22.01712891 23.07410156 22.89949219 23.37890625 23.80859375 C23.6426001 24.59032959 23.90629395 25.37206543 24.17797852 26.17749023 C25.31353604 30.07656375 26.15417838 34.02941748 27 38 C27.32798584 36.91992676 27.65597168 35.83985352 27.99389648 34.72705078 C29.20905832 30.72715366 30.42655934 26.72797179 31.64477539 22.72900391 C32.17210904 20.99677702 32.69880462 19.26435576 33.22485352 17.53173828 C33.980263 15.04408442 34.73795014 12.55713426 35.49609375 10.0703125 C35.73154404 9.29317902 35.96699432 8.51604553 36.20957947 7.71536255 C37.88612829 2.22774341 37.88612829 2.22774341 39 0 C43.62 0 48.24 0 53 0 C49.03399954 12.28671448 44.71591807 24.40053436 40.04101562 36.43554688 C38.98914372 39.1530471 37.95558939 41.87711187 36.921875 44.6015625 C36.24069311 46.36240889 35.55844046 48.12284151 34.875 49.8828125 C34.57480957 50.68188019 34.27461914 51.48094788 33.96533203 52.30422974 C31.17374208 59.38414717 27.43351215 65.70009263 21 70 C15.48785127 71.83738291 8.39806977 72.04369286 2.8125 70.328125 C1.1875 69.5 1.1875 69.5 -1 68 C-0.34 64.7 0.32 61.4 1 58 C1.86625 58.33 2.7325 58.66 3.625 59 C7.10955754 60.03246149 9.40597233 60.53528072 13 60 C16.37665141 57.52378896 17.76596723 55.89736747 18.8269043 51.8293457 C19.04207427 47.06920326 17.86590773 44.07804325 15.95703125 39.79296875 C15.63216232 39.0275325 15.3072934 38.26209625 14.97257996 37.47346497 C13.93481098 35.03777208 12.87438244 32.61276322 11.8125 30.1875 C11.11757657 28.57033266 10.42420227 26.95249871 9.73242188 25.33398438 C8.41126458 22.24678021 7.08434763 19.1621707 5.75244141 16.07958984 C0 2.72882892 0 2.72882892 0 0 Z " fill="#FDFDFC" transform="translate(402,245)"/>
<path d="M0 0 C4.20036766 2.17291747 6.56255482 5.20082447 8.7421875 9.30859375 C9.95449036 13.7238813 9.87062708 18.12918583 9.83984375 22.671875 C9.8384288 23.46385788 9.83701385 24.25584076 9.83555603 25.07182312 C9.82998207 27.58828594 9.81743443 30.10465806 9.8046875 32.62109375 C9.79966913 34.332681 9.79510681 36.04426966 9.79101562 37.75585938 C9.78002118 41.94013883 9.76277457 46.12435094 9.7421875 50.30859375 C5.1221875 50.30859375 0.5021875 50.30859375 -4.2578125 50.30859375 C-4.2875415 48.79507324 -4.2875415 48.79507324 -4.31787109 47.25097656 C-4.39404586 43.50105179 -4.48274466 39.75150904 -4.57519531 36.00195312 C-4.61343608 34.38028516 -4.64829753 32.75853379 -4.6796875 31.13671875 C-4.72544507 28.80308258 -4.78342066 26.47001813 -4.84375 24.13671875 C-4.85530121 23.4136554 -4.86685242 22.69059204 -4.87875366 21.94561768 C-4.98550956 18.28994495 -5.12595857 15.36005237 -7.2578125 12.30859375 C-11.00257822 10.43621089 -15.57708465 10.89976806 -19.5703125 11.87109375 C-23.11660222 14.89200721 -24.14878562 19.41378534 -24.69018555 23.85717773 C-24.71636963 25.07735596 -24.74255371 26.29753418 -24.76953125 27.5546875 C-24.78748245 28.21066422 -24.80543365 28.86664093 -24.82392883 29.54249573 C-24.87753403 31.61029887 -24.91176343 33.67787813 -24.9453125 35.74609375 C-24.97852993 37.15953606 -25.01302361 38.57294898 -25.04882812 39.98632812 C-25.13560435 43.42710654 -25.19608786 46.86691292 -25.2578125 50.30859375 C-29.5478125 50.30859375 -33.8378125 50.30859375 -38.2578125 50.30859375 C-38.2578125 33.80859375 -38.2578125 17.30859375 -38.2578125 0.30859375 C-34.2978125 0.30859375 -30.3378125 0.30859375 -26.2578125 0.30859375 C-25.9278125 2.61859375 -25.5978125 4.92859375 -25.2578125 7.30859375 C-24.7215625 6.54546875 -24.1853125 5.78234375 -23.6328125 4.99609375 C-17.65020016 -1.77370442 -8.46991115 -2.59372712 0 0 Z " fill="#FDFDFC" transform="translate(528.2578125,244.69140625)"/>
<path d="M0 0 C1.99145743 1.27143392 3.92186772 2.53752764 5.70703125 4.08984375 C5.1515243 7.68890283 3.95815877 9.08894174 1.14453125 11.33984375 C0.50386719 11.860625 -0.13679687 12.38140625 -0.796875 12.91796875 C-1.29058594 13.3046875 -1.78429687 13.69140625 -2.29296875 14.08984375 C-3.7578125 12.8203125 -5.22265625 11.55078125 -6.6875 10.28125 C-9.62188308 8.10366645 -12.33321263 7.95323829 -15.85546875 7.96484375 C-17.03302734 7.96097656 -17.03302734 7.96097656 -18.234375 7.95703125 C-20.35735852 7.96008009 -20.35735852 7.96008009 -22.29296875 9.08984375 C-22.29296875 10.73984375 -22.29296875 12.38984375 -22.29296875 14.08984375 C-16.88818947 15.77584791 -11.50495699 17.28142447 -5.98046875 18.52734375 C-0.66278926 19.83799133 2.67627745 21.38217201 6.01953125 25.83984375 C7.47279223 30.59597059 7.20436864 34.68072114 5.58203125 39.27734375 C1.9875462 44.66907132 -1.69007547 47.53010368 -8.08984375 48.8125 C-19.19884378 50.21097341 -27.91561182 48.15983412 -37.29296875 42.08984375 C-37.95296875 41.42984375 -38.61296875 40.76984375 -39.29296875 40.08984375 C-39.1834536 36.9139045 -38.02315231 35.77742472 -35.91796875 33.33984375 C-33.29296875 31.08984375 -33.29296875 31.08984375 -30.29296875 31.08984375 C-29.73609375 31.68796875 -29.17921875 32.28609375 -28.60546875 32.90234375 C-24.91570092 36.39266467 -20.8990356 38.13024789 -15.7734375 38.05078125 C-13.58987567 37.81007365 -11.44977621 37.50423037 -9.29296875 37.08984375 C-8.96296875 35.43984375 -8.63296875 33.78984375 -8.29296875 32.08984375 C-14.39813054 30.0194842 -14.39813054 30.0194842 -20.57421875 28.17578125 C-26.91332306 26.38745595 -31.76767757 24.99224253 -36.29296875 20.08984375 C-38.05249227 14.8112732 -38.09459829 9.98460449 -35.91796875 4.83984375 C-26.81874596 -4.69267536 -11.53836878 -6.19939126 0 0 Z " fill="#FDFCFB" transform="translate(852.29296875,246.91015625)"/>
<path d="M0 0 C4.62 0 9.24 0 14 0 C14 18.15 14 36.3 14 55 C25.55 55 37.1 55 49 55 C49 58.63 49 62.26 49 66 C32.83 66 16.66 66 0 66 C0 44.22 0 22.44 0 0 Z " fill="#FDFDFC" transform="translate(626,112)"/>
<path d="M0 0 C4.62 0 9.24 0 14 0 C14 18.15 14 36.3 14 55 C25.55 55 37.1 55 49 55 C49 58.63 49 62.26 49 66 C32.83 66 16.66 66 0 66 C0 44.22 0 22.44 0 0 Z " fill="#FEFEFE" transform="translate(567,112)"/>
<path d="M0 0 C5.7218942 5.61593319 6.65994171 11.62402844 7.125 19.375 C7.125 27.77143353 4.70905536 33.47470446 -1 39.6875 C-5.18465092 42.14370815 -9.06136466 42.55579382 -13.875 42.375 C-19.62312672 40.77306304 -22.5572154 38.30427997 -25.875 33.375 C-28.69794084 25.24294936 -29.95953617 13.78665398 -26.25 5.6875 C-23.61205192 1.47424017 -20.27457951 -1.717051 -15.5625 -3.5 C-9.6634582 -3.77437404 -4.80054264 -3.81399045 0 0 Z " fill="#25C884" transform="translate(722.875,125.625)"/>
<path d="M0 0 C6.09592479 -0.66500998 6.09592479 -0.66500998 8.69604492 1.24755859 C11.76226537 5.36838435 10.38023952 11.39527586 9.68011475 16.19128418 C8.82235062 21.36660743 7.80328156 26.50703668 6.74682617 31.64501953 C6.18507852 34.38681883 5.64524312 37.1323248 5.10742188 39.87890625 C4.75389684 41.63567729 4.39912327 43.39219765 4.04296875 45.1484375 C3.88346237 45.96307465 3.72395599 46.77771179 3.55961609 47.61703491 C2.66489307 51.89625767 1.76159276 55.48849747 -1 59 C-4.375 60.0625 -4.375 60.0625 -8 60 C-10.68359375 58.4140625 -10.68359375 58.4140625 -13 56 C-16.71996134 39.97714975 -9.48931898 17.16458155 -2 3 C-1.34 2.01 -0.68 1.02 0 0 Z " fill="#2A2929" transform="translate(720,592)"/>
<path d="M0 0 C1.051875 -0.02126953 1.051875 -0.02126953 2.125 -0.04296875 C4 0.1875 4 0.1875 6 2.1875 C6.92025491 15.07106874 2.70579251 28.5320514 -5.46484375 38.5625 C-8.73874313 42.02800164 -11.3514426 44.13901302 -16.1875 44.28125 C-17.115625 44.2503125 -18.04375 44.219375 -19 44.1875 C-19.02701408 42.08340361 -19.04640223 39.97920822 -19.0625 37.875 C-19.07410156 36.70324219 -19.08570313 35.53148437 -19.09765625 34.32421875 C-19 31.1875 -19 31.1875 -18 28.1875 C-17.87286826 25.93868071 -17.77202663 23.68832339 -17.6875 21.4375 C-17.12918828 13.3378136 -15.50746488 9.25506258 -9.375 3.8125 C-6.18215487 1.20524218 -4.16068756 0.03824161 0 0 Z " fill="#FAFAFA" transform="translate(257,593.8125)"/>
<path d="M0 0 C4.62 0 9.24 0 14 0 C14 16.5 14 33 14 50 C9.38 50 4.76 50 0 50 C0 33.5 0 17 0 0 Z " fill="#FFFFFF" transform="translate(789,245)"/>
<path d="M0 0 C0.91527794 7.0171309 -1.84648226 11.45899249 -6 17 C-12.69808482 24.73690816 -23.64675268 30.90595801 -33.875 31.9375 C-35.24921863 31.98831516 -36.62502102 32.02217708 -38 32 C-35.44860743 27.07609478 -31.84369243 23.53809687 -27.9375 19.6875 C-27.2671875 19.02322998 -26.596875 18.35895996 -25.90625 17.67456055 C-7.87478057 0 -7.87478057 0 0 0 Z " fill="#F7F7F7" transform="translate(543,608)"/>
<path d="M0 0 C3.63467079 1.62400184 4.77408696 2.66113044 7 6 C7.45681807 10.11136265 7.45731782 12.26502493 5.25 15.8125 C1.75508786 19.21033125 -1.07389972 20.31010215 -5.9375 20.4375 C-9.63031072 20.33931596 -10.88320678 20.07241179 -14.125 18.0625 C-16.28162585 14.54001112 -16.8584076 12.31460114 -16.60546875 8.2265625 C-15.67185691 4.79328026 -13.97058623 3.10060556 -11.13671875 1.03125 C-7.40700497 -0.76883124 -4.02081342 -0.76946148 0 0 Z " fill="#2A2929" transform="translate(734,560)"/>
<path d="M0 0 C0.33 0.33 0.66 0.66 1 1 C0.67722121 6.48723935 -0.4831911 9.77982932 -4 14 C-8.60917993 18.09218066 -13.34443041 21.53475172 -19 24 C-17.96347409 15.90063477 -14.5303018 7.8495115 -8.4375 2.25 C-5.61648454 0.11703709 -3.59620163 -0.74039445 0 0 Z " fill="#F5F5F5" transform="translate(883,595)"/>
<path d="M0 0 C2.625 2.0625 2.625 2.0625 4 5 C3.78947368 11.21052632 3.78947368 11.21052632 1 14 C-1.0234375 14.484375 -1.0234375 14.484375 -3.375 14.75 C-4.53128906 14.89695313 -4.53128906 14.89695313 -5.7109375 15.046875 C-8.35700755 14.99268927 -9.78622736 14.42383615 -12 13 C-13.60114721 9.79770558 -13.48323075 6.47499763 -13 3 C-10.03853408 -1.12030041 -4.62743348 -0.88989105 0 0 Z " fill="#FBFBF9" transform="translate(801,223)"/>
<path d="M0 0 C2.7214572 1.38717905 3.88389163 2.62582963 6 5 C6.33 6.98 6.66 8.96 7 11 C-0.26 11 -7.52 11 -15 11 C-13.81329763 3.87978578 -13.81329763 3.87978578 -9.80859375 0.921875 C-6.50913752 -0.75992126 -3.57033096 -0.88016111 0 0 Z " fill="#34C786" transform="translate(728,254)"/>
<path d="M0 0 C-0.49061033 7.35915493 -0.49061033 7.35915493 -2.9375 10.4375 C-6.78060308 13.34894173 -10.28592978 13.52913033 -15 13 C-17.0625 11.8125 -17.0625 11.8125 -18 10 C-18 7.5 -18 7.5 -17 5 C-12.63751547 1.2004167 -5.70890412 0 0 0 Z " fill="#32C886" transform="translate(580,273)"/>
<path d="M0 0 C-1.32039854 5.86843796 -4.43605825 10.17541681 -9 14 C-11.53911889 14.92018456 -13.25762586 15 -16 15 C-16.33 13.35 -16.66 11.7 -17 10 C-5.46153846 0 -5.46153846 0 0 0 Z " fill="#F4F4F4" transform="translate(960,628)"/>
<path d="M0 0 C0.33 0 0.66 0 1 0 C0.67 2.97 0.34 5.94 0 9 C-0.99 9 -1.98 9 -3 9 C-3.33 8.34 -3.66 7.68 -4 7 C-3.22265625 5.2734375 -3.22265625 5.2734375 -2.0625 3.375 C-1.381875 2.26125 -0.70125 1.1475 0 0 Z " fill="#D7D7D7" transform="translate(605,621)"/>
<path d="M0 0 C0.33 0 0.66 0 1 0 C0.67 3.3 0.34 6.6 0 10 C-0.99 9.34 -1.98 8.68 -3 8 C-1.125 2.25 -1.125 2.25 0 0 Z " fill="#C0BFBF" transform="translate(331,620)"/>
</svg>
