<?xml version="1.0" encoding="UTF-8"?>
<svg version="1.1" xmlns="http://www.w3.org/2000/svg" width="1167" height="804">
<path d="M0 0 C1.10349245 -0.00247617 1.10349245 -0.00247617 2.22927768 -0.00500236 C4.69465509 -0.00931661 7.15997246 -0.00652941 9.62535137 -0.00377727 C11.41826752 -0.0054274 13.21118331 -0.00751391 15.0040985 -0.00999737 C19.94966198 -0.01556731 24.89520814 -0.014891 29.84077375 -0.01321978 C35.21422134 -0.01248934 40.58766402 -0.01751006 45.96110952 -0.0217948 C56.62706849 -0.0293799 67.29302246 -0.03156812 77.95898384 -0.03212385 C90.73117348 -0.03303698 103.50335848 -0.03970299 116.27554613 -0.04647068 C146.41365455 -0.06215646 176.55176229 -0.06821967 206.68987408 -0.0728777 C222.02302667 -0.07526092 237.35617884 -0.07896439 252.6893311 -0.0829148 C301.87243344 -0.09557916 351.05553576 -0.10636314 400.2386397 -0.10975526 C402.58930708 -0.1099175 404.93997445 -0.11008306 407.29064183 -0.11024964 C412.0049434 -0.11058344 416.71924497 -0.11091392 421.43354654 -0.1112442 C426.95285 -0.1116311 432.47215346 -0.11202071 437.99145692 -0.11241527 C439.57112634 -0.11252769 441.15079575 -0.1126391 442.73046516 -0.11274952 C493.46542971 -0.11629906 544.2003801 -0.13137796 594.93533925 -0.15468726 C631.39164026 -0.1714297 667.8479386 -0.18690425 704.30424351 -0.19142222 C705.42893612 -0.19156245 705.42893612 -0.19156245 706.57634979 -0.19170551 C723.03655065 -0.1937246 739.49675147 -0.19488061 755.95695245 -0.1952341 C761.84682865 -0.19537027 767.73670485 -0.19557927 773.62658105 -0.19582735 C775.09183339 -0.19588891 776.55708572 -0.19594723 778.02233805 -0.1960023 C801.36630425 -0.19692195 824.71025566 -0.20688819 848.054217 -0.22145979 C872.2228793 -0.23648581 896.39151915 -0.24066291 920.56018526 -0.23236683 C934.49455728 -0.22790548 948.4288687 -0.23179141 962.36323277 -0.24760534 C971.66911395 -0.2573404 980.97495256 -0.25619116 990.28083333 -0.24616911 C995.5843565 -0.24076651 1000.88776312 -0.24010108 1006.19127674 -0.25267783 C1011.01992418 -0.26403298 1015.84836043 -0.26147449 1020.67700063 -0.24801075 C1022.40921437 -0.24558332 1024.14144446 -0.2481375 1025.87364015 -0.25640723 C1039.02681407 -0.31505352 1051.81802786 0.45048725 1063.67050117 6.8151505 C1064.33960518 7.16472814 1065.00870918 7.51430577 1065.69808906 7.87447667 C1081.17376969 16.20523705 1093.00942818 29.76930218 1098.21062798 46.69956801 C1100.17919941 54.03104226 1100.8484978 60.75442163 1100.80081791 68.32548642 C1100.80547783 69.49842767 1100.81013774 70.67136892 1100.81493887 71.87985384 C1100.82477818 75.11373203 1100.8213389 78.34727005 1100.8121052 81.58113947 C1100.80536303 85.10767775 1100.81607765 88.63417195 1100.82450104 92.16070068 C1100.83684798 98.33427625 1100.83808892 104.50777579 1100.8319506 110.68135953 C1100.82284697 119.86190786 1100.83090166 129.04238608 1100.84224185 138.22292904 C1100.86189848 154.62147468 1100.86425809 171.01998869 1100.85904664 187.41854329 C1100.8544879 201.77051344 1100.85509061 216.12247107 1100.86088699 230.47444081 C1100.86164386 232.40025485 1100.86239984 234.32606888 1100.86315494 236.25188292 C1100.86430014 239.15397831 1100.86545002 242.0560737 1100.86661418 244.95816908 C1100.87731774 271.93584394 1100.8820459 298.91351463 1100.87414402 325.89119077 C1100.87369826 327.41630897 1100.87369826 327.41630897 1100.87324349 328.97223764 C1100.8707946 337.22871039 1100.86818299 345.48518309 1100.86555936 353.74165578 C1100.85545691 385.94716341 1100.86381289 418.15261889 1100.88705391 450.35811925 C1100.91312974 486.55033654 1100.92597361 522.74252245 1100.91886616 558.93474948 C1100.91815011 562.79424254 1100.91747572 566.65373559 1100.91682571 570.51322865 C1100.9166559 571.46351741 1100.91648609 572.41380616 1100.91631114 573.39289155 C1100.91400884 587.73334693 1100.92198182 602.07377316 1100.93511719 616.414222 C1100.95002994 632.7240965 1100.95086952 649.0339027 1100.93304627 665.34377573 C1100.92348564 674.46804272 1100.92491331 683.59215036 1100.94228096 692.7164067 C1100.95277846 698.8158373 1100.94865881 704.91514666 1100.93280093 711.01456534 C1100.92417836 714.48667191 1100.92172137 717.95846652 1100.93707024 721.43055694 C1101.02211666 745.64418384 1098.12875463 765.04475135 1080.42050117 783.1276505 C1066.57402434 795.32881833 1050.28001642 801.24800102 1031.86780113 801.255301 C1031.13504144 801.25695178 1030.40228174 801.25860256 1029.64731721 801.26030336 C1027.1918298 801.26461738 1024.73640268 801.26183048 1022.28091377 801.25907826 C1020.49512195 801.26072841 1018.70933049 801.26281492 1016.92353964 801.26529837 C1011.99775028 801.27086817 1007.07197829 801.27019202 1002.14618678 801.26852078 C996.79415988 801.26779033 991.44213791 801.2728111 986.0901131 801.27709579 C975.46669404 801.28468083 964.84327999 801.28686911 954.2198585 801.28742485 C941.49853595 801.28833799 928.77721805 801.29500404 916.0558975 801.30177167 C886.03742293 801.31745754 856.0189492 801.32352072 826.00047127 801.3281787 C810.72769006 801.33056197 795.45490928 801.33426545 780.18212839 801.3382158 C731.19129076 801.35088031 682.20045314 801.36166416 633.20961389 801.36505626 C630.8681199 801.3652185 628.52662591 801.36538406 626.18513191 801.36555064 C621.48923499 801.36588444 616.79333806 801.36621492 612.09744114 801.3665452 C606.59969606 801.3669321 601.10195099 801.36732171 595.60420591 801.36771626 C594.03070716 801.36782868 592.45720841 801.3679401 590.88370966 801.36805052 C540.34966772 801.37159986 489.81564 801.38667788 439.28160349 801.40998826 C402.969759 801.42673144 366.65791719 801.44220558 330.3460688 801.44672322 C329.599191 801.44681671 328.85231319 801.44691019 328.08280273 801.44700651 C311.6863555 801.44902563 295.28990831 801.45018162 278.89346096 801.4505351 C273.02633016 801.45067127 267.15919937 801.45088026 261.29206857 801.45112835 C259.83247959 801.45118991 258.3728906 801.45124823 256.91330162 801.4513033 C233.66239379 801.45222284 210.41150081 801.46218774 187.16059786 801.47676079 C163.08672446 801.49178926 139.01287512 801.49596249 114.93899763 801.48766783 C101.0603804 801.48320756 87.18182404 801.4870881 73.3032148 801.50290633 C64.03322184 801.51264517 54.76327159 801.51148854 45.49327903 801.50147011 C40.21107364 801.49607023 34.92898526 801.49539335 29.64678949 801.50797883 C24.83631467 801.5193447 20.02605169 801.51676379 15.21558409 801.50331175 C13.4910703 801.5008869 11.76654003 801.50342927 10.04204441 801.51170823 C-9.51641733 801.59939127 -26.72985726 798.43670896 -42.57949883 786.1276505 C-43.20469414 785.66745519 -43.82988945 785.20725987 -44.47403008 784.73311925 C-56.68384729 775.16922179 -63.66600137 760.01146193 -66.57949883 745.1276505 C-66.96195189 741.05212359 -66.98386685 737.01556806 -66.95702225 732.92422795 C-66.96138257 731.75068751 -66.96574289 730.57714707 -66.97023535 729.36804479 C-66.9792493 726.13249693 -66.9749728 722.89729299 -66.96490149 719.6617588 C-66.95725261 716.133446 -66.9670864 712.60517299 -66.97463149 709.07686591 C-66.98544239 702.90022721 -66.98515277 696.72366724 -66.97749001 690.54702497 C-66.96612613 681.36203537 -66.9719523 672.17711199 -66.98111493 662.99212281 C-66.99690204 646.58621312 -66.995547 630.18033851 -66.98687819 613.77442549 C-66.97932925 599.41727428 -66.97736248 585.06013593 -66.98094612 570.70298314 C-66.98117528 569.75035658 -66.98140443 568.79773002 -66.98164053 567.81623599 C-66.98257456 563.94913995 -66.98352976 560.08204392 -66.98451982 556.2149479 C-66.99369525 519.94428649 -66.98537893 483.67364741 -66.96922913 447.40298945 C-66.9549925 415.18408196 -66.95626639 382.96521003 -66.97061211 350.74630284 C-66.98667866 314.54165452 -66.99304451 278.33702592 -66.98377532 242.13237453 C-66.98281318 238.27235564 -66.98187466 234.41233675 -66.98094612 230.55231786 C-66.98070889 229.60189426 -66.98047166 228.65147066 -66.98022724 227.67224634 C-66.97681592 213.32469844 -66.9808036 198.97716481 -66.98838478 184.62961888 C-66.99696264 168.31457156 -66.99481788 151.99956478 -66.97854255 135.68452251 C-66.96973589 126.55541805 -66.96915548 117.42640139 -66.98048107 108.29729922 C-66.9872138 102.19719658 -66.98301147 96.09716426 -66.96996677 89.99707203 C-66.96283969 86.52298064 -66.96037086 83.04906352 -66.97118472 79.5749777 C-66.98030822 75.82684228 -66.97094846 72.07918364 -66.95702225 68.33107305 C-66.96404575 67.26063337 -66.97106925 66.19019369 -66.97830558 65.08731645 C-66.840587 46.53945838 -59.12060049 31.35485937 -46.59903008 18.0182755 C-34.0525973 5.87201037 -17.25079715 0.00681216 0 0 Z " fill="#FAF3F0" transform="translate(66.57949882745743,2.872349500656128)"/>
<path d="M0 0 C1.10349245 -0.00247617 1.10349245 -0.00247617 2.22927768 -0.00500236 C4.69465509 -0.00931661 7.15997246 -0.00652941 9.62535137 -0.00377727 C11.41826752 -0.0054274 13.21118331 -0.00751391 15.0040985 -0.00999737 C19.94966198 -0.01556731 24.89520814 -0.014891 29.84077375 -0.01321978 C35.21422134 -0.01248934 40.58766402 -0.01751006 45.96110952 -0.0217948 C56.62706849 -0.0293799 67.29302246 -0.03156812 77.95898384 -0.03212385 C90.73117348 -0.03303698 103.50335848 -0.03970299 116.27554613 -0.04647068 C146.41365455 -0.06215646 176.55176229 -0.06821967 206.68987408 -0.0728777 C222.02302667 -0.07526092 237.35617884 -0.07896439 252.6893311 -0.0829148 C301.87243344 -0.09557916 351.05553576 -0.10636314 400.2386397 -0.10975526 C402.58930708 -0.1099175 404.93997445 -0.11008306 407.29064183 -0.11024964 C412.0049434 -0.11058344 416.71924497 -0.11091392 421.43354654 -0.1112442 C426.95285 -0.1116311 432.47215346 -0.11202071 437.99145692 -0.11241527 C439.57112634 -0.11252769 441.15079575 -0.1126391 442.73046516 -0.11274952 C493.46542971 -0.11629906 544.2003801 -0.13137796 594.93533925 -0.15468726 C631.39164026 -0.1714297 667.8479386 -0.18690425 704.30424351 -0.19142222 C705.42893612 -0.19156245 705.42893612 -0.19156245 706.57634979 -0.19170551 C723.03655065 -0.1937246 739.49675147 -0.19488061 755.95695245 -0.1952341 C761.84682865 -0.19537027 767.73670485 -0.19557927 773.62658105 -0.19582735 C775.09183339 -0.19588891 776.55708572 -0.19594723 778.02233805 -0.1960023 C801.36630425 -0.19692195 824.71025566 -0.20688819 848.054217 -0.22145979 C872.2228793 -0.23648581 896.39151915 -0.24066291 920.56018526 -0.23236683 C934.49455728 -0.22790548 948.4288687 -0.23179141 962.36323277 -0.24760534 C971.66911395 -0.2573404 980.97495256 -0.25619116 990.28083333 -0.24616911 C995.5843565 -0.24076651 1000.88776312 -0.24010108 1006.19127674 -0.25267783 C1011.01992418 -0.26403298 1015.84836043 -0.26147449 1020.67700063 -0.24801075 C1022.40921437 -0.24558332 1024.14144446 -0.2481375 1025.87364015 -0.25640723 C1039.02681407 -0.31505352 1051.81802786 0.45048725 1063.67050117 6.8151505 C1064.33960518 7.16472814 1065.00870918 7.51430577 1065.69808906 7.87447667 C1081.17376969 16.20523705 1093.00942818 29.76930218 1098.21062798 46.69956801 C1100.17919941 54.03104226 1100.8484978 60.75442163 1100.80081791 68.32548642 C1100.80547783 69.49842767 1100.81013774 70.67136892 1100.81493887 71.87985384 C1100.82477818 75.11373203 1100.8213389 78.34727005 1100.8121052 81.58113947 C1100.80536303 85.10767775 1100.81607765 88.63417195 1100.82450104 92.16070068 C1100.83684798 98.33427625 1100.83808892 104.50777579 1100.8319506 110.68135953 C1100.82284697 119.86190786 1100.83090166 129.04238608 1100.84224185 138.22292904 C1100.86189848 154.62147468 1100.86425809 171.01998869 1100.85904664 187.41854329 C1100.8544879 201.77051344 1100.85509061 216.12247107 1100.86088699 230.47444081 C1100.86164386 232.40025485 1100.86239984 234.32606888 1100.86315494 236.25188292 C1100.86430014 239.15397831 1100.86545002 242.0560737 1100.86661418 244.95816908 C1100.87731774 271.93584394 1100.8820459 298.91351463 1100.87414402 325.89119077 C1100.87369826 327.41630897 1100.87369826 327.41630897 1100.87324349 328.97223764 C1100.8707946 337.22871039 1100.86818299 345.48518309 1100.86555936 353.74165578 C1100.85545691 385.94716341 1100.86381289 418.15261889 1100.88705391 450.35811925 C1100.91312974 486.55033654 1100.92597361 522.74252245 1100.91886616 558.93474948 C1100.91815011 562.79424254 1100.91747572 566.65373559 1100.91682571 570.51322865 C1100.9166559 571.46351741 1100.91648609 572.41380616 1100.91631114 573.39289155 C1100.91400884 587.73334693 1100.92198182 602.07377316 1100.93511719 616.414222 C1100.95002994 632.7240965 1100.95086952 649.0339027 1100.93304627 665.34377573 C1100.92348564 674.46804272 1100.92491331 683.59215036 1100.94228096 692.7164067 C1100.95277846 698.8158373 1100.94865881 704.91514666 1100.93280093 711.01456534 C1100.92417836 714.48667191 1100.92172137 717.95846652 1100.93707024 721.43055694 C1101.02211666 745.64418384 1098.12875463 765.04475135 1080.42050117 783.1276505 C1066.57402434 795.32881833 1050.28001642 801.24800102 1031.86780113 801.255301 C1031.13504144 801.25695178 1030.40228174 801.25860256 1029.64731721 801.26030336 C1027.1918298 801.26461738 1024.73640268 801.26183048 1022.28091377 801.25907826 C1020.49512195 801.26072841 1018.70933049 801.26281492 1016.92353964 801.26529837 C1011.99775028 801.27086817 1007.07197829 801.27019202 1002.14618678 801.26852078 C996.79415988 801.26779033 991.44213791 801.2728111 986.0901131 801.27709579 C975.46669404 801.28468083 964.84327999 801.28686911 954.2198585 801.28742485 C941.49853595 801.28833799 928.77721805 801.29500404 916.0558975 801.30177167 C886.03742293 801.31745754 856.0189492 801.32352072 826.00047127 801.3281787 C810.72769006 801.33056197 795.45490928 801.33426545 780.18212839 801.3382158 C731.19129076 801.35088031 682.20045314 801.36166416 633.20961389 801.36505626 C630.8681199 801.3652185 628.52662591 801.36538406 626.18513191 801.36555064 C621.48923499 801.36588444 616.79333806 801.36621492 612.09744114 801.3665452 C606.59969606 801.3669321 601.10195099 801.36732171 595.60420591 801.36771626 C594.03070716 801.36782868 592.45720841 801.3679401 590.88370966 801.36805052 C540.34966772 801.37159986 489.81564 801.38667788 439.28160349 801.40998826 C402.969759 801.42673144 366.65791719 801.44220558 330.3460688 801.44672322 C329.599191 801.44681671 328.85231319 801.44691019 328.08280273 801.44700651 C311.6863555 801.44902563 295.28990831 801.45018162 278.89346096 801.4505351 C273.02633016 801.45067127 267.15919937 801.45088026 261.29206857 801.45112835 C259.83247959 801.45118991 258.3728906 801.45124823 256.91330162 801.4513033 C233.66239379 801.45222284 210.41150081 801.46218774 187.16059786 801.47676079 C163.08672446 801.49178926 139.01287512 801.49596249 114.93899763 801.48766783 C101.0603804 801.48320756 87.18182404 801.4870881 73.3032148 801.50290633 C64.03322184 801.51264517 54.76327159 801.51148854 45.49327903 801.50147011 C40.21107364 801.49607023 34.92898526 801.49539335 29.64678949 801.50797883 C24.83631467 801.5193447 20.02605169 801.51676379 15.21558409 801.50331175 C13.4910703 801.5008869 11.76654003 801.50342927 10.04204441 801.51170823 C-9.51641733 801.59939127 -26.72985726 798.43670896 -42.57949883 786.1276505 C-43.20469414 785.66745519 -43.82988945 785.20725987 -44.47403008 784.73311925 C-56.68384729 775.16922179 -63.66600137 760.01146193 -66.57949883 745.1276505 C-66.96195189 741.05212359 -66.98386685 737.01556806 -66.95702225 732.92422795 C-66.96138257 731.75068751 -66.96574289 730.57714707 -66.97023535 729.36804479 C-66.9792493 726.13249693 -66.9749728 722.89729299 -66.96490149 719.6617588 C-66.95725261 716.133446 -66.9670864 712.60517299 -66.97463149 709.07686591 C-66.98544239 702.90022721 -66.98515277 696.72366724 -66.97749001 690.54702497 C-66.96612613 681.36203537 -66.9719523 672.17711199 -66.98111493 662.99212281 C-66.99690204 646.58621312 -66.995547 630.18033851 -66.98687819 613.77442549 C-66.97932925 599.41727428 -66.97736248 585.06013593 -66.98094612 570.70298314 C-66.98117528 569.75035658 -66.98140443 568.79773002 -66.98164053 567.81623599 C-66.98257456 563.94913995 -66.98352976 560.08204392 -66.98451982 556.2149479 C-66.99369525 519.94428649 -66.98537893 483.67364741 -66.96922913 447.40298945 C-66.9549925 415.18408196 -66.95626639 382.96521003 -66.97061211 350.74630284 C-66.98667866 314.54165452 -66.99304451 278.33702592 -66.98377532 242.13237453 C-66.98281318 238.27235564 -66.98187466 234.41233675 -66.98094612 230.55231786 C-66.98070889 229.60189426 -66.98047166 228.65147066 -66.98022724 227.67224634 C-66.97681592 213.32469844 -66.9808036 198.97716481 -66.98838478 184.62961888 C-66.99696264 168.31457156 -66.99481788 151.99956478 -66.97854255 135.68452251 C-66.96973589 126.55541805 -66.96915548 117.42640139 -66.98048107 108.29729922 C-66.9872138 102.19719658 -66.98301147 96.09716426 -66.96996677 89.99707203 C-66.96283969 86.52298064 -66.96037086 83.04906352 -66.97118472 79.5749777 C-66.98030822 75.82684228 -66.97094846 72.07918364 -66.95702225 68.33107305 C-66.96404575 67.26063337 -66.97106925 66.19019369 -66.97830558 65.08731645 C-66.840587 46.53945838 -59.12060049 31.35485937 -46.59903008 18.0182755 C-34.0525973 5.87201037 -17.25079715 0.00681216 0 0 Z M128.42050117 112.1276505 C127.18235556 114.60394172 127.06564827 116.68239876 126.73300117 119.4401505 C122.61611306 146.80534796 111.12663621 171.79371546 92.42050117 192.1276505 C91.6187043 193.01194737 90.81690742 193.89624425 89.99081367 194.807338 C73.00094481 212.68847867 49.53539971 224.32091617 25.32626289 228.50704503 C22.89875458 229.29755568 21.98865467 230.1069804 20.42050117 232.1276505 C19.96896189 234.720681 19.96896189 234.720681 20.04297775 237.70461583 C20.03515451 238.872193 20.02733127 240.03977017 20.01927096 241.24272847 C20.02596312 242.53152032 20.03265529 243.82031217 20.03955024 245.14815831 C20.03609549 246.5262965 20.03133215 247.90443193 20.02536851 249.28256154 C20.0128037 253.07819204 20.01905362 256.8735973 20.02832717 260.66922879 C20.035095 264.75926701 20.02464773 268.84926558 20.0163874 272.93929601 C20.00302357 280.95505855 20.00593957 288.970737 20.01462533 296.98650289 C20.02139107 303.49909461 20.02232341 310.01166271 20.01905388 316.52425694 C20.01859418 317.44995496 20.01813448 318.37565298 20.01766085 319.32940245 C20.01670171 321.20973866 20.01572907 323.09007486 20.01474307 324.97041106 C20.00618142 342.61652827 20.01603546 360.26259878 20.03214417 377.90870833 C20.04554806 393.06113953 20.04322018 408.21350179 20.02938789 423.36593175 C20.01334576 440.94742905 20.00700547 458.52888539 20.01622468 476.11038899 C20.01718036 477.98394067 20.01812348 479.85749236 20.01905388 481.73104405 C20.0195167 482.65294978 20.01997953 483.57485551 20.02045638 484.52469778 C20.02305038 491.03204779 20.01866647 497.53937189 20.01161522 504.04671788 C20.00321518 511.97331047 20.00544874 519.8998139 20.02145745 527.82639623 C20.02936041 531.87332117 20.03239751 535.92009727 20.02250999 539.96702123 C20.0136042 543.6680089 20.01842732 547.36870904 20.03444265 551.06967044 C20.0394086 553.05063803 20.0295572 555.03162541 20.01927096 557.01257253 C20.0270942 558.1801497 20.03491744 559.34772687 20.04297775 560.55068517 C20.04346481 561.56253251 20.04395186 562.57437985 20.04445368 563.61688924 C20.47929203 566.52018021 21.101175 567.39208791 23.42050117 569.1276505 C25.37562376 569.88821867 25.37562376 569.88821867 27.56112617 570.30343175 C28.37686104 570.48808995 29.1925959 570.67274816 30.03305 570.86300206 C30.90340889 571.05346105 31.77376777 571.24392003 32.67050117 571.4401505 C51.93742859 575.99631993 68.41125522 584.19940918 83.42050117 597.1276505 C84.15397774 597.71675206 84.8874543 598.30585362 85.64315742 598.91280675 C112.51550872 621.23534195 123.66960841 655.87140119 128.42050117 689.1276505 C384.83050117 689.1276505 641.24050117 689.1276505 905.42050117 689.1276505 C906.74050117 681.5376505 908.06050117 673.9476505 909.42050117 666.1276505 C914.28369433 644.41696676 924.05011236 626.02902756 938.42050117 609.1276505 C939.04827461 608.34261144 939.67604805 607.55757237 940.32284492 606.74874425 C956.20945989 587.75188989 979.67002048 575.40296361 1003.68563789 570.55831456 C1007.64383485 569.72491225 1010.52358772 568.99810857 1013.42050117 566.1276505 C1014.02055801 563.54239127 1014.02055801 563.54239127 1013.92107242 560.55068517 C1013.93088671 559.383108 1013.940701 558.21553082 1013.9508127 557.01257253 C1013.94120769 555.72378068 1013.93160268 554.43498883 1013.92170662 553.10714269 C1013.92559724 551.72900243 1013.93123575 550.35086618 1013.93847752 548.97273946 C1013.95328488 545.17704182 1013.94302 541.3817568 1013.9287408 537.58607221 C1013.91766467 533.49602865 1013.92956242 529.40604459 1013.93858284 525.31600499 C1013.95254032 517.30021449 1013.94494069 509.28458117 1013.92990725 501.26879811 C1013.91307646 491.94081906 1013.9162537 482.61287948 1013.92000134 473.28488994 C1013.92588451 456.64520537 1013.91169043 440.0055964 1013.88705391 423.36593175 C1013.86313179 407.20704876 1013.85604906 391.04826677 1013.86654609 374.88936925 C1013.87794675 357.30786772 1013.87989592 339.72641296 1013.865448 322.144912 C1013.8639221 320.27136032 1013.86240175 318.39780864 1013.86088699 316.52425694 C1013.86012918 315.60235121 1013.85937136 314.68044549 1013.85859058 313.73060322 C1013.85384116 307.22325614 1013.85570385 300.71592989 1013.85995239 294.20858312 C1013.86487118 286.28198447 1013.85893 278.35548147 1013.83905809 270.42890477 C1013.8291636 266.38198378 1013.82410409 262.33520863 1013.8319506 258.28827977 C1013.83897976 254.58728534 1013.83226828 250.88658593 1013.81434698 247.18563056 C1013.80835224 245.2046682 1013.81715569 243.22367836 1013.82639349 241.24272847 C1013.81795354 240.0751513 1013.8095136 238.90757413 1013.80081791 237.70461583 C1013.79978878 236.69276849 1013.79875965 235.68092114 1013.79769933 234.63841176 C1013.36169281 231.73620174 1012.73928888 230.86263731 1010.42050117 229.1276505 C1008.48139659 228.38295377 1008.48139659 228.38295377 1006.31503242 227.9870255 C1005.09880195 227.71753087 1005.09880195 227.71753087 1003.85800117 227.44259191 C1002.99175117 227.25616124 1002.12550117 227.06973058 1001.23300117 226.8776505 C970.1691583 219.63278238 943.52559347 200.0685544 926.63876289 173.11544347 C916.87942046 157.19148233 910.45991625 140.78836514 907.74960274 122.24850011 C907.54802559 120.92024205 907.54802559 120.92024205 907.34237617 119.5651505 C907.23506172 118.78011144 907.12774727 117.99507237 907.01718086 117.18624425 C906.27699746 114.63255096 905.51839448 113.75617743 903.42050117 112.1276505 C900.93221838 111.67865777 900.93221838 111.67865777 898.078583 111.75505501 C896.40212269 111.74494219 896.40212269 111.74494219 894.69179448 111.73462507 C893.45630781 111.74250611 892.22082113 111.75038715 890.94789547 111.75850701 C889.63594433 111.75504548 888.32399319 111.75158395 886.97228596 111.74801752 C883.30670757 111.73877219 879.64137706 111.74836705 875.97581706 111.76085192 C871.99714173 111.77112165 868.01849248 111.76404844 864.03981221 111.75911945 C857.05882649 111.75288595 850.07791731 111.75785039 843.09694046 111.77003407 C832.71641395 111.78810072 822.33593595 111.78904507 811.95539659 111.78640811 C794.49574003 111.78246142 777.03611746 111.79250952 759.57647079 111.81046033 C742.28258354 111.82819525 724.98871043 111.8397549 707.69481415 111.84301877 C706.62060161 111.84322499 705.54638907 111.84343121 704.43962464 111.84364368 C698.98451673 111.84465864 693.52940879 111.8455628 688.07430085 111.8464243 C649.40901097 111.85273 610.7437396 111.87295451 572.07846016 111.90133214 C534.50945074 111.92887341 496.94044639 111.95013014 459.37142891 111.96285558 C458.21393015 111.96325016 457.0564314 111.96364473 455.86385693 111.96405127 C444.24006088 111.96800674 432.6162648 111.97183419 420.99246868 111.97556785 C397.3122445 111.98317703 373.63202065 111.99164079 349.95179695 112.00062108 C348.8629549 112.00103295 347.77411286 112.00144482 346.6522756 112.00186917 C273.90834309 112.02948357 201.16442085 112.07702061 128.42050117 112.1276505 Z " fill="#22C883" transform="translate(66.57949882745743,2.872349500656128)"/>
<path d="M0 0 C1.10349245 -0.00247617 1.10349245 -0.00247617 2.22927768 -0.00500236 C4.69465509 -0.00931661 7.15997246 -0.00652941 9.62535137 -0.00377727 C11.41826752 -0.0054274 13.21118331 -0.00751391 15.0040985 -0.00999737 C19.94966198 -0.01556731 24.89520814 -0.014891 29.84077375 -0.01321978 C35.21422134 -0.01248934 40.58766402 -0.01751006 45.96110952 -0.0217948 C56.62706849 -0.0293799 67.29302246 -0.03156812 77.95898384 -0.03212385 C90.73117348 -0.03303698 103.50335848 -0.03970299 116.27554613 -0.04647068 C146.41365455 -0.06215646 176.55176229 -0.06821967 206.68987408 -0.0728777 C222.02302667 -0.07526092 237.35617884 -0.07896439 252.6893311 -0.0829148 C301.87243344 -0.09557916 351.05553576 -0.10636314 400.2386397 -0.10975526 C402.58930708 -0.1099175 404.93997445 -0.11008306 407.29064183 -0.11024964 C412.0049434 -0.11058344 416.71924497 -0.11091392 421.43354654 -0.1112442 C426.95285 -0.1116311 432.47215346 -0.11202071 437.99145692 -0.11241527 C439.57112634 -0.11252769 441.15079575 -0.1126391 442.73046516 -0.11274952 C493.46542971 -0.11629906 544.2003801 -0.13137796 594.93533925 -0.15468726 C631.39164026 -0.1714297 667.8479386 -0.18690425 704.30424351 -0.19142222 C705.42893612 -0.19156245 705.42893612 -0.19156245 706.57634979 -0.19170551 C723.03655065 -0.1937246 739.49675147 -0.19488061 755.95695245 -0.1952341 C761.84682865 -0.19537027 767.73670485 -0.19557927 773.62658105 -0.19582735 C775.09183339 -0.19588891 776.55708572 -0.19594723 778.02233805 -0.1960023 C801.36630425 -0.19692195 824.71025566 -0.20688819 848.054217 -0.22145979 C872.2228793 -0.23648581 896.39151915 -0.24066291 920.56018526 -0.23236683 C934.49455728 -0.22790548 948.4288687 -0.23179141 962.36323277 -0.24760534 C971.66911395 -0.2573404 980.97495256 -0.25619116 990.28083333 -0.24616911 C995.5843565 -0.24076651 1000.88776312 -0.24010108 1006.19127674 -0.25267783 C1011.01992418 -0.26403298 1015.84836043 -0.26147449 1020.67700063 -0.24801075 C1022.40921437 -0.24558332 1024.14144446 -0.2481375 1025.87364015 -0.25640723 C1039.02681407 -0.31505352 1051.81802786 0.45048725 1063.67050117 6.8151505 C1064.33960518 7.16472814 1065.00870918 7.51430577 1065.69808906 7.87447667 C1081.17376969 16.20523705 1093.00942818 29.76930218 1098.21062798 46.69956801 C1100.17919941 54.03104226 1100.8484978 60.75442163 1100.80081791 68.32548642 C1100.80547783 69.49842767 1100.81013774 70.67136892 1100.81493887 71.87985384 C1100.82477818 75.11373203 1100.8213389 78.34727005 1100.8121052 81.58113947 C1100.80536303 85.10767775 1100.81607765 88.63417195 1100.82450104 92.16070068 C1100.83684798 98.33427625 1100.83808892 104.50777579 1100.8319506 110.68135953 C1100.82284697 119.86190786 1100.83090166 129.04238608 1100.84224185 138.22292904 C1100.86189848 154.62147468 1100.86425809 171.01998869 1100.85904664 187.41854329 C1100.8544879 201.77051344 1100.85509061 216.12247107 1100.86088699 230.47444081 C1100.86164386 232.40025485 1100.86239984 234.32606888 1100.86315494 236.25188292 C1100.86430014 239.15397831 1100.86545002 242.0560737 1100.86661418 244.95816908 C1100.87731774 271.93584394 1100.8820459 298.91351463 1100.87414402 325.89119077 C1100.87369826 327.41630897 1100.87369826 327.41630897 1100.87324349 328.97223764 C1100.8707946 337.22871039 1100.86818299 345.48518309 1100.86555936 353.74165578 C1100.85545691 385.94716341 1100.86381289 418.15261889 1100.88705391 450.35811925 C1100.91312974 486.55033654 1100.92597361 522.74252245 1100.91886616 558.93474948 C1100.91815011 562.79424254 1100.91747572 566.65373559 1100.91682571 570.51322865 C1100.9166559 571.46351741 1100.91648609 572.41380616 1100.91631114 573.39289155 C1100.91400884 587.73334693 1100.92198182 602.07377316 1100.93511719 616.414222 C1100.95002994 632.7240965 1100.95086952 649.0339027 1100.93304627 665.34377573 C1100.92348564 674.46804272 1100.92491331 683.59215036 1100.94228096 692.7164067 C1100.95277846 698.8158373 1100.94865881 704.91514666 1100.93280093 711.01456534 C1100.92417836 714.48667191 1100.92172137 717.95846652 1100.93707024 721.43055694 C1101.02211666 745.64418384 1098.12875463 765.04475135 1080.42050117 783.1276505 C1066.57402434 795.32881833 1050.28001642 801.24800102 1031.86780113 801.255301 C1031.13504144 801.25695178 1030.40228174 801.25860256 1029.64731721 801.26030336 C1027.1918298 801.26461738 1024.73640268 801.26183048 1022.28091377 801.25907826 C1020.49512195 801.26072841 1018.70933049 801.26281492 1016.92353964 801.26529837 C1011.99775028 801.27086817 1007.07197829 801.27019202 1002.14618678 801.26852078 C996.79415988 801.26779033 991.44213791 801.2728111 986.0901131 801.27709579 C975.46669404 801.28468083 964.84327999 801.28686911 954.2198585 801.28742485 C941.49853595 801.28833799 928.77721805 801.29500404 916.0558975 801.30177167 C886.03742293 801.31745754 856.0189492 801.32352072 826.00047127 801.3281787 C810.72769006 801.33056197 795.45490928 801.33426545 780.18212839 801.3382158 C731.19129076 801.35088031 682.20045314 801.36166416 633.20961389 801.36505626 C630.8681199 801.3652185 628.52662591 801.36538406 626.18513191 801.36555064 C621.48923499 801.36588444 616.79333806 801.36621492 612.09744114 801.3665452 C606.59969606 801.3669321 601.10195099 801.36732171 595.60420591 801.36771626 C594.03070716 801.36782868 592.45720841 801.3679401 590.88370966 801.36805052 C540.34966772 801.37159986 489.81564 801.38667788 439.28160349 801.40998826 C402.969759 801.42673144 366.65791719 801.44220558 330.3460688 801.44672322 C329.599191 801.44681671 328.85231319 801.44691019 328.08280273 801.44700651 C311.6863555 801.44902563 295.28990831 801.45018162 278.89346096 801.4505351 C273.02633016 801.45067127 267.15919937 801.45088026 261.29206857 801.45112835 C259.83247959 801.45118991 258.3728906 801.45124823 256.91330162 801.4513033 C233.66239379 801.45222284 210.41150081 801.46218774 187.16059786 801.47676079 C163.08672446 801.49178926 139.01287512 801.49596249 114.93899763 801.48766783 C101.0603804 801.48320756 87.18182404 801.4870881 73.3032148 801.50290633 C64.03322184 801.51264517 54.76327159 801.51148854 45.49327903 801.50147011 C40.21107364 801.49607023 34.92898526 801.49539335 29.64678949 801.50797883 C24.83631467 801.5193447 20.02605169 801.51676379 15.21558409 801.50331175 C13.4910703 801.5008869 11.76654003 801.50342927 10.04204441 801.51170823 C-9.51641733 801.59939127 -26.72985726 798.43670896 -42.57949883 786.1276505 C-43.20469414 785.66745519 -43.82988945 785.20725987 -44.47403008 784.73311925 C-56.68384729 775.16922179 -63.66600137 760.01146193 -66.57949883 745.1276505 C-66.96195189 741.05212359 -66.98386685 737.01556806 -66.95702225 732.92422795 C-66.96138257 731.75068751 -66.96574289 730.57714707 -66.97023535 729.36804479 C-66.9792493 726.13249693 -66.9749728 722.89729299 -66.96490149 719.6617588 C-66.95725261 716.133446 -66.9670864 712.60517299 -66.97463149 709.07686591 C-66.98544239 702.90022721 -66.98515277 696.72366724 -66.97749001 690.54702497 C-66.96612613 681.36203537 -66.9719523 672.17711199 -66.98111493 662.99212281 C-66.99690204 646.58621312 -66.995547 630.18033851 -66.98687819 613.77442549 C-66.97932925 599.41727428 -66.97736248 585.06013593 -66.98094612 570.70298314 C-66.98117528 569.75035658 -66.98140443 568.79773002 -66.98164053 567.81623599 C-66.98257456 563.94913995 -66.98352976 560.08204392 -66.98451982 556.2149479 C-66.99369525 519.94428649 -66.98537893 483.67364741 -66.96922913 447.40298945 C-66.9549925 415.18408196 -66.95626639 382.96521003 -66.97061211 350.74630284 C-66.98667866 314.54165452 -66.99304451 278.33702592 -66.98377532 242.13237453 C-66.98281318 238.27235564 -66.98187466 234.41233675 -66.98094612 230.55231786 C-66.98070889 229.60189426 -66.98047166 228.65147066 -66.98022724 227.67224634 C-66.97681592 213.32469844 -66.9808036 198.97716481 -66.98838478 184.62961888 C-66.99696264 168.31457156 -66.99481788 151.99956478 -66.97854255 135.68452251 C-66.96973589 126.55541805 -66.96915548 117.42640139 -66.98048107 108.29729922 C-66.9872138 102.19719658 -66.98301147 96.09716426 -66.96996677 89.99707203 C-66.96283969 86.52298064 -66.96037086 83.04906352 -66.97118472 79.5749777 C-66.98030822 75.82684228 -66.97094846 72.07918364 -66.95702225 68.33107305 C-66.96404575 67.26063337 -66.97106925 66.19019369 -66.97830558 65.08731645 C-66.840587 46.53945838 -59.12060049 31.35485937 -46.59903008 18.0182755 C-34.0525973 5.87201037 -17.25079715 0.00681216 0 0 Z M-44.39199883 35.4401505 C-52.65302966 46.60423226 -54.88834832 59.25924305 -54.83956105 72.79458261 C-54.84336672 73.94657939 -54.84717239 75.09857618 -54.85109338 76.28548196 C-54.85960584 79.47455074 -54.85922898 82.66347336 -54.85503802 85.8525461 C-54.85266614 89.325394 -54.8618482 92.79821496 -54.86952221 96.27105254 C-54.8813556 102.35506552 -54.88573552 108.43904853 -54.88520104 114.52307248 C-54.88440711 123.57061286 -54.89496481 132.61811546 -54.90761661 141.66564574 C-54.93234519 159.70786639 -54.94113813 177.75007784 -54.94615309 195.7923131 C-54.94641427 196.7264875 -54.94667545 197.66066191 -54.94694453 198.62314463 C-54.94720481 199.55921165 -54.94746508 200.49527867 -54.94773324 201.45971136 C-54.9508165 211.836513 -54.95732159 222.21331209 -54.96394593 232.59011197 C-54.98359266 263.93662604 -54.99999768 295.28313736 -55.00282246 326.62965798 C-55.00291652 327.63212246 -55.00301058 328.63458694 -55.00310749 329.66742913 C-55.00348597 333.72991749 -55.00384997 337.79240586 -55.00421047 341.85489423 C-55.00448219 344.91252848 -55.00475887 347.97016273 -55.00503594 351.02779698 C-55.00512396 352.03815705 -55.00521198 353.04851712 -55.00530267 354.08949416 C-55.00820773 385.83132562 -55.03030085 417.57309617 -55.06655937 449.31490636 C-55.10730027 484.98157357 -55.13098113 520.64819928 -55.13128197 556.31489104 C-55.13137879 560.11942026 -55.13154551 563.92394946 -55.13176209 567.72847867 C-55.1318062 568.66524058 -55.13185032 569.60200248 -55.13189577 570.56715111 C-55.13301486 585.63146939 -55.15041259 600.69572656 -55.17358141 615.76002517 C-55.19644272 630.90555244 -55.20063703 646.05099729 -55.18603211 661.19653548 C-55.17789097 670.18932175 -55.1835349 679.18184813 -55.20921295 688.17460279 C-55.22499794 694.1890425 -55.22245394 700.2032983 -55.20530623 706.21773371 C-55.19605887 709.63988332 -55.19725422 713.06112822 -55.2152723 716.48330248 C-55.32187658 738.13036073 -53.47134165 756.35450203 -38.02090508 772.77218175 C-27.22038004 783.1925283 -14.06908317 788.24939501 0.86527878 788.255301 C1.59852193 788.25695178 2.33176509 788.25860256 3.08722773 788.26030336 C5.55038974 788.26462583 8.01349189 788.26182782 10.47665542 788.25907826 C12.26560047 788.26072801 14.05454515 788.26281434 15.84348923 788.26529837 C20.78267516 788.27087332 25.72184379 788.27019109 30.66103187 788.26852078 C36.02579815 788.26779083 41.39055951 788.27280991 46.75532371 788.27709579 C57.40608454 788.28468375 68.05684037 788.28686926 78.70760362 788.28742485 C91.46070111 788.2883377 104.21379396 788.29500286 116.96688945 788.30177167 C147.06038614 788.31746022 177.15388213 788.32352098 207.24738219 788.3281787 C222.55667419 788.33056159 237.86596576 788.33426499 253.17525743 788.3382158 C302.27735186 788.35088032 351.37944627 788.36166436 400.4815423 788.36505626 C402.82849817 788.3652185 405.17545404 788.36538406 407.52240991 788.36555064 C412.22929876 788.36588444 416.93618762 788.36621492 421.64307648 788.3665452 C427.15374743 788.3669321 432.66441839 788.36732171 438.17508934 788.36771626 C439.75229041 788.36782868 441.32949149 788.3679401 442.90669256 788.36805052 C493.56523747 788.37160026 544.22376821 788.3866799 594.88230771 788.40998826 C631.28213296 788.42672931 667.68195553 788.44220467 704.08178467 788.44672322 C705.20459076 788.44686345 705.20459076 788.44686345 706.35007981 788.44700651 C722.78217575 788.44902554 739.21427166 788.4501816 755.64636772 788.4505351 C761.52608877 788.45067127 767.40580982 788.45088027 773.28553087 788.45112835 C774.74827009 788.45118991 776.21100932 788.45124823 777.67374854 788.4513033 C800.98342312 788.45222318 824.29308289 788.46219212 847.6027526 788.47676079 C871.7336197 788.49178236 895.86446433 788.49596651 919.99533524 788.48766783 C933.91012664 788.48320445 947.82485736 788.48710049 961.73964081 788.50290633 C971.02995279 788.51263438 980.32022213 788.51149892 989.61053369 788.50147011 C994.90682255 788.4960624 1000.20299464 788.49541837 1005.49927397 788.50797883 C1010.31902839 788.51931399 1015.13857098 788.51679743 1019.95831805 788.50331175 C1021.68955764 788.50087948 1023.42081353 788.50345569 1025.15203516 788.51170823 C1043.33141882 788.59265874 1058.76798771 785.21683663 1072.32699531 772.43380284 C1082.35596425 762.47337662 1088.36139533 748.1846949 1088.547001 734.06814778 C1088.55282072 732.00582598 1088.55312037 729.94348427 1088.54913563 727.88115811 C1088.55088866 726.73817797 1088.5526417 725.59519782 1088.55444786 724.41758192 C1088.55830297 721.23987728 1088.55767691 718.06220969 1088.55517009 714.88450486 C1088.55353719 711.4292218 1088.55767771 707.97394487 1088.56107926 704.51866376 C1088.56623498 698.46094503 1088.56765017 692.40323429 1088.56662315 686.34551358 C1088.56509963 677.33724422 1088.56925689 668.32898372 1088.57449778 659.32071607 C1088.58417575 642.29571423 1088.58698219 625.2707154 1088.58755483 608.24571113 C1088.58801417 595.0980718 1088.59007142 581.95043365 1088.59325546 568.80279469 C1088.59415299 565.01983607 1088.59504281 561.23687744 1088.59593034 557.45391881 C1088.59626191 556.04327455 1088.59626191 556.04327455 1088.59660018 554.60413243 C1088.60275571 528.14588647 1088.60670061 501.68764091 1088.6062569 475.2293942 C1088.60624132 474.23156224 1088.60622574 473.23373028 1088.60620969 472.20566099 C1088.60612659 467.14811074 1088.60602754 462.09056048 1088.60592499 457.03301023 C1088.60590504 456.02854436 1088.6058851 455.02407849 1088.60586455 453.98917427 C1088.60582411 451.95789807 1088.60578231 449.92662187 1088.60573915 447.89534567 C1088.60512646 416.29504164 1088.61263137 384.69474834 1088.62631172 353.09444737 C1088.64167172 317.5996088 1088.65027798 282.10477727 1088.6493485 246.60993516 C1088.64927387 242.82509041 1088.64922516 239.04024565 1088.64919418 235.2554009 C1088.64918253 234.3234624 1088.64917087 233.3915239 1088.64915886 232.43134485 C1088.64912809 217.43211276 1088.65551481 202.43288999 1088.66412645 187.43366068 C1088.67260268 172.35842919 1088.67359312 157.28321133 1088.66701712 142.20797877 C1088.66332116 133.25221903 1088.66515523 124.29650069 1088.67495946 115.34074534 C1088.68095756 109.35598335 1088.67966587 103.37125135 1088.67248897 97.38649074 C1088.66860599 93.97817452 1088.66894325 90.57000376 1088.67594632 87.16168283 C1088.68300239 83.4841117 1088.67771562 79.80675364 1088.66939014 76.12918973 C1088.67435832 75.07949581 1088.6793265 74.02980188 1088.68444523 72.94829905 C1088.59898931 55.08680403 1083.95204583 40.99475654 1071.60800117 27.8776505 C1060.97869965 17.73893212 1047.48504554 13.00706619 1032.95648748 12.99884933 C1032.22116104 12.99707432 1031.48583461 12.99529931 1030.72822555 12.99347052 C1028.25796342 12.98872997 1025.78775966 12.99110367 1023.31749481 12.99342942 C1021.52343341 12.99147629 1019.72937245 12.98908737 1017.93531215 12.98630145 C1012.98192144 12.97989349 1008.02854693 12.97974046 1003.07515286 12.98057886 C997.69498694 12.98040952 992.31482685 12.97450517 986.93466383 12.969338 C976.25329622 12.96000405 965.57193275 12.95608862 954.89056156 12.95381903 C942.10083003 12.95085908 929.31110401 12.94216294 916.52137536 12.93340475 C885.60751132 12.91255204 854.69364638 12.90208626 823.77977695 12.89327515 C813.54303177 12.89034118 803.30628681 12.88697129 793.06954187 12.88330793 C792.34736804 12.88304964 791.6251942 12.88279135 790.88113631 12.88252523 C787.95946703 12.88147901 785.03779775 12.88043058 782.11612847 12.87937941 C732.14166664 12.86141531 682.16720448 12.84603597 632.19273988 12.83862038 C628.26747226 12.83803641 624.34220465 12.83743914 620.41693703 12.83684276 C619.24896411 12.83666558 619.24896411 12.83666558 618.05739577 12.83648482 C610.16858617 12.83528744 602.27977657 12.83407868 594.39096697 12.83285229 C592.80923722 12.83260706 591.22750748 12.8323632 589.64577774 12.83212072 C538.84172099 12.82433028 488.03768733 12.80194489 437.23364067 12.7694443 C400.72929138 12.74609943 364.22494668 12.72454737 327.72059005 12.71743798 C326.96990486 12.71729096 326.21921966 12.71714394 325.44578643 12.71699246 C308.96655005 12.71380768 292.48731371 12.71175676 276.00807706 12.71076492 C269.37755274 12.71035018 262.74702844 12.70979528 256.11650413 12.709203 C255.39083598 12.70914234 254.66516782 12.70908167 253.91750972 12.70901916 C230.54086156 12.70700305 207.16424067 12.69276384 183.78760202 12.672258 C159.58744366 12.65110504 135.38732435 12.64431991 111.18715774 12.65413179 C97.23235582 12.65935698 83.27766215 12.65342121 69.32287577 12.63159712 C60.00589581 12.61812477 50.68899065 12.61913443 41.37201001 12.63199908 C36.06046239 12.63891938 30.74912224 12.63948452 25.43759285 12.62243899 C20.60396749 12.60705327 15.77071667 12.61013709 10.93710249 12.62784927 C9.20086093 12.63099489 7.46459086 12.62746058 5.72838195 12.61635752 C-15.20699635 12.49121443 -30.80139126 19.19627898 -44.39199883 35.4401505 Z " fill="#252424" transform="translate(66.57949882745743,2.872349500656128)"/>
<path d="M0 0 C75.13613394 -0.05140146 150.27226999 -0.09910223 225.40841675 -0.12702942 C226.51987133 -0.12744359 227.6313259 -0.12785776 228.77646093 -0.12828448 C252.92944683 -0.13726252 277.08243291 -0.14557316 301.23541928 -0.15319599 C313.07947227 -0.15693811 324.92352521 -0.16082775 336.76757812 -0.16479492 C337.94622446 -0.1651872 339.12487079 -0.16557948 340.33923367 -0.16598364 C378.56522975 -0.1787752 416.79121254 -0.20131473 455.01720057 -0.22889166 C494.28856392 -0.25717139 533.55991991 -0.27565214 572.83129327 -0.28174497 C578.37390658 -0.28260948 583.91651987 -0.28358639 589.45913315 -0.28463173 C590.55003434 -0.284834 591.64093553 -0.28503627 592.76489433 -0.28524467 C610.3487242 -0.28879437 627.93253137 -0.30272078 645.51635197 -0.3204961 C663.17989167 -0.33813171 680.84340881 -0.3449105 698.50695701 -0.34050413 C709.01032711 -0.3382167 719.51361485 -0.34435635 730.01697014 -0.36239263 C737.02587505 -0.37360952 744.03472579 -0.37401417 751.04363439 -0.36549544 C755.0419285 -0.36094929 759.04006642 -0.36122899 763.03834404 -0.37464955 C766.67338166 -0.38675859 770.3081407 -0.38513994 773.94317387 -0.37241993 C775.87135483 -0.3692555 777.7995426 -0.38086944 779.72768784 -0.39302543 C786.56111416 -0.35277016 791.32095642 0.03520843 796.80834961 4.45727539 C801.18470775 9.3669096 802.40026892 14.05768745 803.5625 20.4375 C803.96940812 22.40849694 804.38090145 24.3785526 804.796875 26.34765625 C805.09754883 27.79229248 805.09754883 27.79229248 805.40429688 29.26611328 C810.35010774 51.964142 821.75030738 71.52111567 838 88 C839.16982422 89.18916016 839.16982422 89.18916016 840.36328125 90.40234375 C854.50808751 103.92905764 872.10522776 112.10805692 891.07324219 116.17700195 C899.13285111 117.97896656 904.09746902 121.41660125 909 128 C910.04500823 131.13502469 910.12844187 133.31969456 910.13422108 136.60985088 C910.13867892 137.78479475 910.14313676 138.95973861 910.14772969 140.17028683 C910.14745315 142.11586797 910.14745315 142.11586797 910.14717102 144.10075378 C910.1504698 145.48770018 910.1541954 146.87464562 910.1583125 148.26158983 C910.16833902 152.0816987 910.17205034 155.90179186 910.17470181 159.72191203 C910.17860293 163.83862198 910.1881814 167.95531948 910.19691467 172.07202148 C910.2166845 182.01824178 910.22674594 191.96446311 910.23564246 201.91069815 C910.2400245 206.59328606 910.24539153 211.27587284 910.25063133 215.95845985 C910.26764411 231.52228021 910.28213863 247.08609986 910.28938007 262.64992809 C910.29129 266.68955168 910.29321033 270.72917526 910.29516602 274.76879883 C910.29564976 275.77284102 910.2961335 276.77688321 910.2966319 277.81135092 C910.30493348 294.0788047 910.33027233 310.34618498 910.36274669 326.61360665 C910.39580756 343.31080497 910.41382795 360.00796593 910.41702431 376.70519716 C910.41919031 386.08178757 910.42795206 395.45827079 910.45348549 404.83482933 C910.4751792 412.81983799 910.48324947 420.80471343 910.47351871 428.78974821 C910.46897014 432.86367537 910.4708924 436.93732757 910.49028015 441.01121712 C910.50788516 444.7427425 910.50693611 448.47379181 910.49138286 452.20532206 C910.48787743 454.19056819 910.50405298 456.17581915 910.52098733 458.16099614 C910.46582061 465.79855932 909.89348782 471.55091156 904.67658788 477.512263 C901.00160252 480.94751365 897.33100581 481.99515079 892.5 483 C891.07044383 483.32430888 889.64206339 483.65383961 888.21484375 483.98828125 C887.50440918 484.15408691 886.79397461 484.31989258 886.06201172 484.49072266 C869.61718372 488.55227975 854.53972799 496.72034192 842 508 C840.85337891 508.93392578 840.85337891 508.93392578 839.68359375 509.88671875 C817.30840539 528.44839675 804.91411825 559.81985652 802 588 C801.70921922 591.77642218 801.45177379 595.55003707 801.24609375 599.33203125 C801 602 801 602 800 603 C798.25350536 603.09818149 796.50299295 603.12523024 794.75374079 603.12534916 C793.03280367 603.12910444 793.03280367 603.12910444 791.27710015 603.13293558 C789.998141 603.13059442 788.71918185 603.12825325 787.40146637 603.12584114 C786.03796616 603.12688294 784.67446622 603.12836319 783.31096691 603.13024551 C779.52980563 603.13417139 775.74866958 603.13179306 771.96750867 603.12846755 C767.86691995 603.12594705 763.76633532 603.12918429 759.66574717 603.13171089 C752.46759527 603.13533581 745.26945085 603.13520493 738.0712986 603.13266373 C727.36773515 603.12889518 716.66417807 603.1308077 705.96061467 603.13387203 C686.84868252 603.13914954 667.7367537 603.13867671 648.62482123 603.13579312 C631.90009307 603.13328196 615.17536613 603.13261881 598.45063782 603.13381577 C597.3431606 603.13389215 596.23568339 603.13396854 595.09464626 603.13404724 C590.59953792 603.13435855 586.10442957 603.13467695 581.60932123 603.135007 C539.40347517 603.13806906 497.19763124 603.13528769 454.9917855 603.1299101 C417.45790143 603.12516416 379.92402076 603.12558877 342.39013672 603.13037109 C300.26367373 603.13572057 258.13721262 603.13785194 216.01074934 603.13475883 C211.52362029 603.13443809 207.03649124 603.13412525 202.54936218 603.13381577 C200.89197722 603.13369715 200.89197722 603.13369715 199.20110973 603.13357614 C182.48297502 603.13243653 165.76484167 603.1337729 149.04670715 603.13629532 C130.04591165 603.13914777 111.04512001 603.13845433 92.04432499 603.13301457 C81.39773372 603.13006747 70.75115081 603.12990212 60.10455974 603.13366075 C53.00659953 603.13589117 45.90864607 603.13452942 38.81068687 603.13015598 C34.75748869 603.12776095 30.70430721 603.1269972 26.65110952 603.13056196 C22.97215463 603.13376483 19.29323145 603.13246011 15.61427892 603.1273813 C13.6504856 603.12588084 11.68669046 603.12934082 9.72289985 603.13293558 C8.57560844 603.13043207 7.42831703 603.12792855 6.24625921 603.12534916 C4.75128657 603.12524753 4.75128657 603.12524753 3.22611246 603.12514383 C1 603 1 603 0 602 C-0.17959886 600.5677132 -0.29991176 599.12789869 -0.39453125 597.6875 C-3.11149777 560.5843401 -16.18028777 530.13971572 -44 505 C-47.18009923 502.32280018 -50.42159946 500.11085425 -54 498 C-54.57492188 497.65130859 -55.14984375 497.30261719 -55.7421875 496.94335938 C-65.8200989 490.90689612 -75.86388953 487.20794658 -87.22265625 484.2890625 C-94.4433844 482.412759 -100.69524617 480.4281202 -106 475 C-109.83966558 468.40927556 -109.41981341 461.87723313 -109.38095093 454.4047699 C-109.38440993 453.01294321 -109.38917612 451.62111927 -109.39513266 450.22930104 C-109.40763899 446.41429488 -109.40147403 442.59951429 -109.39217401 438.78450739 C-109.3853824 434.66653401 -109.39586526 430.54859924 -109.40411377 426.43063354 C-109.41745174 418.36762258 -109.41457318 410.3046954 -109.40587585 402.24168115 C-109.39910044 395.68916515 -109.39818196 389.13667263 -109.4014473 382.58415413 C-109.401907 381.65153816 -109.40236669 380.71892219 -109.40284032 379.75804513 C-109.4037995 377.86346124 -109.40477214 375.96887737 -109.4057581 374.0742935 C-109.41431206 356.31027524 -109.40447751 338.54630343 -109.388357 320.78229279 C-109.37495161 305.53818822 -109.37728372 290.29415217 -109.39111328 275.05004883 C-109.40716518 257.34800258 -109.41349041 239.64599702 -109.40427649 221.94394451 C-109.40332084 220.05663972 -109.40237773 218.16933491 -109.4014473 216.28203011 C-109.40098447 215.35343413 -109.40052164 214.42483816 -109.40004479 213.46810291 C-109.3974539 206.92254184 -109.401828 200.37700658 -109.40888596 193.83144951 C-109.41729672 185.85599884 -109.41502965 177.88063675 -109.39904372 169.90519624 C-109.39115563 165.8355942 -109.38807857 161.7661399 -109.39799118 157.69653893 C-109.40692736 153.97149942 -109.40202318 150.24674468 -109.38605852 146.52173103 C-109.3811175 144.53521801 -109.39091683 142.54868525 -109.40123022 140.56219286 C-109.39340697 139.38065915 -109.38558373 138.19912544 -109.37752342 136.98178768 C-109.37703637 135.9641345 -109.37654931 134.94648132 -109.37604749 133.89799017 C-108.59532213 127.8813713 -105.57967274 123.97287138 -100.9921875 120.30859375 C-96.58785749 117.41555345 -91.64180488 116.41092031 -86.58203125 115.14453125 C-58.26682846 107.95569738 -34.42592382 91.00531927 -19 66 C-8.33205501 47.0305775 -2.38039578 26.87842689 -0.46386719 5.23779297 C-0.37627136 4.25471161 -0.28867554 3.27163025 -0.19842529 2.25875854 C-0.13294495 1.51336823 -0.0674646 0.76797791 0 0 Z M12 13 C10.76185439 15.47629122 10.6451471 17.55474826 10.3125 20.3125 C6.19561189 47.67769746 -5.29386496 72.66606496 -24 93 C-24.80179687 93.88429688 -25.60359375 94.76859375 -26.4296875 95.6796875 C-43.41955636 113.56082817 -66.88510146 125.19326567 -91.09423828 129.37939453 C-93.52174659 130.16990518 -94.43184651 130.9793299 -96 133 C-96.45153928 135.5930305 -96.45153928 135.5930305 -96.37752342 138.57696533 C-96.38534666 139.7445425 -96.39316991 140.91211967 -96.40123022 142.11507797 C-96.39453805 143.40386982 -96.38784589 144.69266167 -96.38095093 146.02050781 C-96.38440569 147.398646 -96.38916902 148.77678143 -96.39513266 150.15491104 C-96.40769747 153.95054155 -96.40144756 157.7459468 -96.39217401 161.54157829 C-96.38540618 165.63161651 -96.39585345 169.72161508 -96.40411377 173.81164551 C-96.4174776 181.82740806 -96.4145616 189.8430865 -96.40587585 197.85885239 C-96.39911011 204.37144411 -96.39817776 210.88401221 -96.4014473 217.39660645 C-96.401907 218.32230446 -96.40236669 219.24800248 -96.40284032 220.20175195 C-96.40379947 222.08208816 -96.40477211 223.96242436 -96.4057581 225.84276056 C-96.41431975 243.48887777 -96.40446571 261.13494828 -96.388357 278.78105783 C-96.37495311 293.93348903 -96.37728099 309.08585129 -96.39111328 324.23828125 C-96.40715542 341.81977855 -96.41349571 359.40123489 -96.40427649 376.98273849 C-96.40332081 378.85629018 -96.4023777 380.72984186 -96.4014473 382.60339355 C-96.40098447 383.52529928 -96.40052164 384.44720501 -96.40004479 385.39704728 C-96.3974508 391.90439729 -96.4018347 398.41172139 -96.40888596 404.91906738 C-96.417286 412.84565997 -96.41505244 420.7721634 -96.39904372 428.69874573 C-96.39114077 432.74567067 -96.38810367 436.79244677 -96.39799118 440.83937073 C-96.40689697 444.5403584 -96.40207385 448.24105854 -96.38605852 451.94201994 C-96.38109258 453.92298753 -96.39094397 455.90397492 -96.40123022 457.88492203 C-96.39340697 459.0524992 -96.38558373 460.22007637 -96.37752342 461.42303467 C-96.37703637 462.43488201 -96.37654931 463.44672935 -96.37604749 464.48923874 C-95.94120914 467.39252971 -95.31932618 468.26443741 -93 470 C-91.04487741 470.76056817 -91.04487741 470.76056817 -88.859375 471.17578125 C-88.04364014 471.36043945 -87.22790527 471.54509766 -86.38745117 471.73535156 C-85.51709229 471.92581055 -84.6467334 472.11626953 -83.75 472.3125 C-64.48307259 476.86866943 -48.00924595 485.07175868 -33 498 C-32.26652344 498.58910156 -31.53304687 499.17820312 -30.77734375 499.78515625 C-3.90499246 522.10769145 7.24910724 556.74375069 12 590 C268.41 590 524.82 590 789 590 C790.32 582.41 791.64 574.82 793 567 C797.86319316 545.28931626 807.62961119 526.90137706 822 510 C822.62777344 509.21496094 823.25554688 508.42992187 823.90234375 507.62109375 C839.78895871 488.62423939 863.24951931 476.27531311 887.26513672 471.43066406 C891.22333368 470.59726175 894.10308655 469.87045807 897 467 C897.60005683 464.41474078 897.60005683 464.41474078 897.50057125 461.42303467 C897.51038554 460.2554575 897.52019983 459.08788033 897.53031152 457.88492203 C897.52070652 456.59613018 897.51110151 455.30733833 897.50120544 453.97949219 C897.50509606 452.60135193 897.51073458 451.22321568 897.51797634 449.84508896 C897.53278371 446.04939132 897.52251883 442.2541063 897.50823963 438.45842171 C897.49716349 434.36837815 897.50906125 430.27839409 897.51808167 426.18835449 C897.53203915 418.17256399 897.52443952 410.15693067 897.50940608 402.14114761 C897.49257528 392.81316856 897.49575253 383.48522898 897.49950016 374.15723944 C897.50538334 357.51755487 897.49118926 340.8779459 897.46655273 324.23828125 C897.44263062 308.07939826 897.43554789 291.92061627 897.44604492 275.76171875 C897.45744558 258.18021722 897.45939475 240.59876246 897.44494683 223.01726151 C897.44342093 221.14370982 897.44190058 219.27015814 897.44038582 217.39660645 C897.439628 216.47470072 897.43887019 215.55279499 897.43808941 214.60295272 C897.43333998 208.09560564 897.43520268 201.58827939 897.43945122 195.08093262 C897.44437001 187.15433397 897.43842882 179.22783097 897.41855692 171.30125427 C897.40866243 167.25433328 897.40360291 163.20755813 897.41144943 159.16062927 C897.41847859 155.45963485 897.4117671 151.75893543 897.3938458 148.05798006 C897.38785106 146.0770177 897.39665451 144.09602787 897.40589231 142.11507797 C897.39745237 140.9475008 897.38901243 139.77992363 897.38031673 138.57696533 C897.3792876 137.56511799 897.37825848 136.55327065 897.37719816 135.51076126 C896.94119164 132.60855124 896.31878771 131.73498681 894 130 C892.06089542 129.25530327 892.06089542 129.25530327 889.89453125 128.859375 C888.67830078 128.58988037 888.67830078 128.58988037 887.4375 128.31494141 C886.57125 128.12851074 885.705 127.94208008 884.8125 127.75 C853.74865713 120.50513188 827.10509229 100.9409039 810.21826172 73.98779297 C800.45891929 58.06383183 794.03941508 41.66071464 791.32910156 23.12084961 C791.12752441 21.79259155 791.12752441 21.79259155 790.921875 20.4375 C790.81456055 19.65246094 790.70724609 18.86742187 790.59667969 18.05859375 C789.85649629 15.50490046 789.09789331 14.62852693 787 13 C784.51171721 12.55100727 784.51171721 12.55100727 781.65808183 12.62740451 C779.98162151 12.61729169 779.98162151 12.61729169 778.27129331 12.60697457 C777.03580664 12.61485561 775.80031996 12.62273665 774.52739429 12.63085651 C773.21544316 12.62739498 771.90349202 12.62393345 770.55178478 12.62036702 C766.8862064 12.61112169 763.22087589 12.62071655 759.55531589 12.63320142 C755.57664055 12.64347115 751.59799131 12.63639794 747.61931103 12.63146895 C740.63832531 12.62523545 733.65741614 12.63019989 726.67643929 12.64238358 C716.29591278 12.66045022 705.91543478 12.66139458 695.53489542 12.65875761 C678.07523885 12.65481092 660.61561629 12.66485902 643.15596962 12.68280983 C625.86208236 12.70054475 608.56820926 12.7121044 591.27431297 12.71536827 C590.20010044 12.71557449 589.1258879 12.71578071 588.01912347 12.71599318 C582.56401555 12.71700814 577.10890762 12.7179123 571.65379968 12.7187738 C532.9885098 12.7250795 494.32323843 12.74530401 455.65795898 12.77368164 C418.08894957 12.80122291 380.51994522 12.82247964 342.95092773 12.83520508 C341.79342898 12.83559966 340.63593023 12.83599424 339.44335575 12.83640077 C327.81955971 12.84035624 316.19576363 12.8441837 304.57196751 12.84791735 C280.89174333 12.85552653 257.21151948 12.86399029 233.53129578 12.87297058 C232.44245373 12.87338245 231.35361169 12.87379432 230.23177443 12.87421867 C157.48784192 12.90183307 84.74391968 12.94937011 12 13 Z " fill="#292828" transform="translate(183,102)"/>
<path d="M0 0 C15.53314865 12.03057592 27.87117831 29.94256203 30.89892578 49.66162109 C33.51712055 72.48282891 29.67158268 94.51560098 15.5390625 113.03515625 C14.4233404 114.3555522 13.29911651 115.66884121 12.1640625 116.97265625 C11.71933594 117.55917969 11.27460938 118.14570313 10.81640625 118.75 C-0.27667145 133.01252847 -17.71695759 140.17750695 -34.8359375 143.97265625 C-35.99996094 144.26076172 -35.99996094 144.26076172 -37.1875 144.5546875 C-58.04846078 147.84690402 -77.98510028 142.48583503 -95.26171875 130.69921875 C-98.21042884 128.54735809 -101.04097406 126.31973649 -103.8359375 123.97265625 C-104.79693359 123.18181641 -104.79693359 123.18181641 -105.77734375 122.375 C-115.31800133 113.71978628 -122.21594584 101.17134512 -125.8359375 88.97265625 C-126.09270264 88.12292236 -126.34946777 87.27318848 -126.61401367 86.39770508 C-128.80924625 78.5376921 -129.32247688 71.17123592 -129.2734375 63.03515625 C-129.29341797 61.86275391 -129.31339844 60.69035156 -129.33398438 59.48242188 C-129.32769697 48.09592864 -126.32531272 37.94063375 -121.1484375 27.84765625 C-120.80594971 27.17589355 -120.46346191 26.50413086 -120.1105957 25.81201172 C-110.34785861 7.3376714 -92.7698295 -6.82235782 -72.8359375 -13.02734375 C-47.58050297 -20.31074622 -21.2764258 -15.21000687 0 0 Z " fill="#38C381" transform="translate(403.8359375,240.02734375)"/>
<path d="M0 0 C0.88010147 -0.00751056 1.76020294 -0.01502111 2.66697416 -0.02275926 C4.12141359 -0.01222401 4.12141359 -0.01222401 5.60523564 -0.00147593 C6.63740673 -0.00583625 7.66957783 -0.01019657 8.73302683 -0.01468903 C12.22630649 -0.02572431 15.71919793 -0.01518471 19.21247536 -0.00490344 C21.72834405 -0.00835673 24.24421123 -0.01311907 26.76007521 -0.01908517 C32.24790796 -0.02903596 37.73561976 -0.02957614 43.22345406 -0.02194369 C51.38389837 -0.01062488 59.54426766 -0.01638251 67.70471142 -0.02556861 C82.27709807 -0.04139107 96.84944533 -0.03998659 111.42183575 -0.03133187 C124.17475178 -0.02379467 136.92765334 -0.02181067 149.68057114 -0.0253998 C150.94789837 -0.02574354 150.94789837 -0.02574354 152.24082816 -0.02609421 C155.67022712 -0.02702818 159.09962608 -0.02798338 162.52902502 -0.02897351 C194.72149826 -0.03815739 226.91394637 -0.02981938 259.10641573 -0.01368281 C287.72548704 0.00055347 316.3445183 -0.00071801 344.96358925 -0.01506579 C377.09447366 -0.03112021 409.22533584 -0.03750486 441.3562237 -0.028229 C444.77979971 -0.0272668 448.20337573 -0.02632829 451.62695175 -0.0253998 C452.46996435 -0.02516257 453.31297695 -0.02492534 454.18153539 -0.02468092 C466.92767366 -0.02126445 479.6737959 -0.02526688 492.41993195 -0.03283846 C506.90956377 -0.04140266 521.39914994 -0.03930089 535.88877606 -0.02299623 C544.00416459 -0.01416621 552.11945434 -0.01364268 560.23484037 -0.02493476 C566.28296511 -0.0324242 572.33096066 -0.02434217 578.37907756 -0.01001103 C580.83462669 -0.00664208 583.29018895 -0.00840425 585.74572974 -0.0156384 C589.06743321 -0.02467844 592.38858775 -0.01548834 595.71026188 -0.00147593 C596.677547 -0.00849943 597.64483213 -0.01552293 598.64142892 -0.02275926 C599.52403391 -0.0152487 600.4066389 -0.00773815 601.31598949 0 C602.0758798 0.00020328 602.8357701 0.00040655 603.61868739 0.00061599 C606.35659269 0.48962871 607.73180115 1.45166152 609.72066933 3.37604749 C610.46964794 9.36787635 610.46964794 9.36787635 608.46125641 12.07129452 C606.2866709 13.70137493 605.13421014 13.75137393 602.43377596 13.75209498 C601.55198485 13.75960554 600.67019373 13.76711609 599.76168168 13.77485424 C598.79016519 13.76783074 597.81864871 13.76080725 596.81769234 13.75357091 C595.26645374 13.7601114 595.26645374 13.7601114 593.68387699 13.76678401 C590.18384487 13.77781936 586.68420021 13.76727966 583.18417031 13.75699842 C580.66346413 13.7604517 578.14275946 13.76521404 575.62205797 13.77118015 C570.12368257 13.78113095 564.62542789 13.78167112 559.12705094 13.77403867 C550.95098332 13.76271993 542.77499056 13.76847743 534.59892349 13.77766359 C519.99892813 13.79348586 505.39897208 13.7920817 490.79897295 13.78342686 C478.02252674 13.77588989 465.24609496 13.77390555 452.46964699 13.77749479 C451.20002256 13.77783852 451.20002256 13.77783852 449.90474914 13.7781892 C446.469152 13.77912316 443.03355486 13.78007836 439.59795772 13.78106849 C407.34790187 13.79025224 375.09787111 13.78191441 342.84781913 13.7657778 C314.17505133 13.75154024 285.5023235 13.75281409 256.82955605 13.76716077 C224.63971759 13.78321329 192.44990132 13.78960102 160.26005942 13.78032398 C156.83060351 13.77936178 153.40114759 13.77842327 149.97169167 13.77749479 C149.12722849 13.77725756 148.28276532 13.77702032 147.41271235 13.7767759 C134.64209303 13.77335878 121.87148969 13.77736306 109.10087258 13.78493345 C94.58486177 13.79349543 80.06889653 13.79140057 65.55289143 13.77509122 C57.4217402 13.7662577 49.29068757 13.76574267 41.15953882 13.77702974 C35.10145689 13.78451403 29.04350409 13.77644455 22.98543 13.76210602 C20.52451512 13.75873464 18.06358714 13.76050453 15.60268056 13.76773338 C12.27614272 13.77676089 8.95015467 13.76759646 5.62364632 13.75357091 C4.65212984 13.76059441 3.68061336 13.76761791 2.67965698 13.77485424 C1.79786587 13.76734369 0.91607475 13.75983313 0.0075627 13.75209498 C-1.1343785 13.75179007 -1.1343785 13.75179007 -2.29938921 13.75147899 C-4.85906427 13.26611987 -5.7404884 12.45386823 -7.27933067 10.37604749 C-7.93457275 4.26045472 -7.93457275 4.26045472 -6.02335134 1.68080046 C-3.84824048 0.05353629 -2.69907612 0.00072209 0 0 Z " fill="#292828" transform="translate(282.2793306708336,437.6239525079727)"/>
<path d="M0 0 C0.88266688 -0.00500704 1.76533376 -0.01001407 2.67474812 -0.01517284 C3.65238616 -0.01049051 4.63002419 -0.00580817 5.63728762 -0.00098395 C6.67396918 -0.00389084 7.71065075 -0.00679772 8.7787469 -0.00979269 C12.29329916 -0.01715951 15.80768045 -0.01011839 19.32223177 -0.00326896 C21.85103603 -0.00557075 24.37983963 -0.00874537 26.90864182 -0.01272345 C32.42776292 -0.0193609 37.94683059 -0.01971476 43.4659524 -0.01462913 C51.67284997 -0.00708724 59.87971437 -0.01091958 68.0866117 -0.01704574 C82.74117757 -0.027597 97.39572604 -0.02665659 112.05029358 -0.02088792 C124.87445693 -0.01586432 137.6986139 -0.01453988 150.52277803 -0.0169332 C151.37218088 -0.01708597 152.22158373 -0.01723874 153.09672606 -0.01739614 C156.54439965 -0.01801878 159.99207324 -0.01865558 163.43974683 -0.01931567 C195.80666152 -0.0254389 228.17356512 -0.01987846 260.5404781 -0.00912188 C289.32047779 0.00036991 318.10045978 -0.00047932 346.88045931 -0.01004386 C379.18673982 -0.02074431 411.49301052 -0.02500471 443.79929256 -0.01881933 C447.24082263 -0.01817786 450.6823527 -0.01755218 454.12388277 -0.0169332 C455.39504787 -0.01669597 455.39504787 -0.01669597 456.69189307 -0.01645395 C469.51056477 -0.01417536 482.32922939 -0.01684632 495.1479001 -0.02189231 C509.71775299 -0.02759891 524.2875857 -0.0262067 538.85743606 -0.01533082 C547.01987865 -0.00943947 555.18227759 -0.00910182 563.34471909 -0.01662317 C569.42434822 -0.02160926 575.50392009 -0.01623792 581.58354574 -0.00667402 C584.05456776 -0.00442482 586.52559557 -0.00560988 588.99661392 -0.0104256 C592.33428616 -0.01643541 595.67171411 -0.01034283 599.00937319 -0.00098395 C599.98701122 -0.00566629 600.96464925 -0.01034862 601.97191268 -0.01517284 C603.295913 -0.00766228 603.295913 -0.00766228 604.6466608 0 C605.79291512 0.00020328 605.79291512 0.00020328 606.96232608 0.00041066 C608.8233304 0.25069833 608.8233304 0.25069833 610.8233304 2.25069833 C611.38978415 8.48168952 611.38978415 8.48168952 609.57172999 10.94985161 C607.39181217 12.57175713 606.23654703 12.62602485 603.53643703 12.62674582 C602.65464592 12.63425638 601.77285481 12.64176693 600.86434275 12.64950508 C599.89282627 12.64248158 598.92130979 12.63545808 597.92035341 12.62822175 C596.36911482 12.63476223 596.36911482 12.63476223 594.78653806 12.64143485 C591.28650594 12.6524702 587.78686128 12.6419305 584.28683138 12.63164926 C581.7661252 12.63510254 579.24542053 12.63986488 576.72471905 12.64583099 C571.22634365 12.65578178 565.72808896 12.65632196 560.22971201 12.64868951 C552.05364439 12.63737076 543.87765163 12.64312827 535.70158456 12.65231443 C521.1015892 12.6681367 506.50163315 12.66673254 491.90163402 12.65807769 C479.12518781 12.65054073 466.34875604 12.64855638 453.57230806 12.65214562 C452.30268363 12.65248936 452.30268363 12.65248936 451.00741022 12.65284003 C447.57181307 12.653774 444.13621593 12.65472919 440.7006188 12.65571933 C408.45056295 12.66490308 376.20053218 12.65656525 343.9504802 12.64042863 C315.2777124 12.62619107 286.60498457 12.62746492 257.93221712 12.64181161 C225.74237867 12.65786413 193.55256239 12.66425185 161.36272049 12.65497482 C157.93326458 12.65401262 154.50380866 12.6530741 151.07435274 12.65214562 C150.22988957 12.65190839 149.38542639 12.65167116 148.51537343 12.65142674 C135.7447541 12.64800961 122.97415076 12.65201389 110.20353365 12.65958428 C95.68752284 12.66814627 81.17155761 12.66605141 66.65555251 12.64974205 C58.52440128 12.64090854 50.39334864 12.6403935 42.2621999 12.65168058 C36.20411797 12.65916487 30.14616516 12.65109538 24.08809108 12.63675685 C21.62717619 12.63338548 19.16624821 12.63515537 16.70534164 12.64238422 C13.37880379 12.65141172 10.05281574 12.6422473 6.72630739 12.62822175 C5.75479091 12.63524525 4.78327443 12.64226875 3.78231806 12.64950508 C2.90052694 12.64199452 2.01873583 12.63448397 1.11022377 12.62674582 C-0.03171743 12.6264409 -0.03171743 12.6264409 -1.19672814 12.62612983 C-3.75809081 12.14045071 -4.64175159 11.33447917 -6.1766696 9.25069833 C-6.4891696 5.68819833 -6.4891696 5.68819833 -6.1766696 2.25069833 C-3.77696988 -0.14900139 -3.26997243 0.0005799 0 0 Z " fill="#252424" transform="translate(281.17666959762573,521.7493016719818)"/>
<path d="M0 0 C15.53314865 12.03057592 27.87117831 29.94256203 30.89892578 49.66162109 C33.51712055 72.48282891 29.67158268 94.51560098 15.5390625 113.03515625 C14.4233404 114.3555522 13.29911651 115.66884121 12.1640625 116.97265625 C11.71933594 117.55917969 11.27460938 118.14570313 10.81640625 118.75 C-0.27667145 133.01252847 -17.71695759 140.17750695 -34.8359375 143.97265625 C-35.99996094 144.26076172 -35.99996094 144.26076172 -37.1875 144.5546875 C-58.04846078 147.84690402 -77.98510028 142.48583503 -95.26171875 130.69921875 C-98.21042884 128.54735809 -101.04097406 126.31973649 -103.8359375 123.97265625 C-104.79693359 123.18181641 -104.79693359 123.18181641 -105.77734375 122.375 C-115.31800133 113.71978628 -122.21594584 101.17134512 -125.8359375 88.97265625 C-126.09270264 88.12292236 -126.34946777 87.27318848 -126.61401367 86.39770508 C-128.80924625 78.5376921 -129.32247688 71.17123592 -129.2734375 63.03515625 C-129.29341797 61.86275391 -129.31339844 60.69035156 -129.33398438 59.48242188 C-129.32769697 48.09592864 -126.32531272 37.94063375 -121.1484375 27.84765625 C-120.80594971 27.17589355 -120.46346191 26.50413086 -120.1105957 25.81201172 C-110.34785861 7.3376714 -92.7698295 -6.82235782 -72.8359375 -13.02734375 C-47.58050297 -20.31074622 -21.2764258 -15.21000687 0 0 Z M-102.93359375 22.4453125 C-114.19968641 37.67310807 -118.83036629 55.25889325 -116.8359375 73.97265625 C-113.6313355 92.37414185 -103.72656962 108.65765775 -88.8359375 119.97265625 C-72.89621824 130.78336737 -54.47448469 134.71993559 -35.42285156 131.57421875 C-21.802132 128.43608221 -10.67447021 121.79526901 -0.8359375 111.97265625 C-0.03929687 111.18761719 0.75734375 110.40257812 1.578125 109.59375 C13.96478492 96.68925313 19.79554027 78.87493943 19.4375 61.14453125 C18.57009352 42.81734886 9.73060162 26.0148408 -3.43359375 13.50390625 C-19.54880651 -0.40850765 -37.4430745 -4.12363375 -58.18261719 -3.24951172 C-76.02698497 -1.75536609 -91.62123053 9.11062737 -102.93359375 22.4453125 Z " fill="#272626" transform="translate(403.8359375,240.02734375)"/>
<path d="M0 0 C0.66694785 -0.00436032 1.3338957 -0.00872064 2.02105409 -0.0132131 C4.265993 -0.02420077 6.51032176 -0.01373146 8.75525665 -0.00342751 C10.37690786 -0.00688269 11.99855671 -0.01164632 13.62020063 -0.01760924 C18.08432288 -0.03016805 22.54825348 -0.02392675 27.01237655 -0.01465058 C31.82362038 -0.00788036 36.63483059 -0.01833123 41.44606781 -0.02659035 C50.87441672 -0.03995157 60.3026941 -0.03703932 69.73104584 -0.02835242 C77.39158283 -0.02158567 85.05209974 -0.02065478 92.71263885 -0.02392387 C93.80165897 -0.02438357 94.89067909 -0.02484327 96.01269981 -0.0253169 C98.22481176 -0.02627605 100.4369237 -0.02724869 102.64903563 -0.02823468 C123.4069117 -0.03679557 144.16474806 -0.02694347 164.92261761 -0.01083358 C182.7456347 0.00257023 200.56859317 0.00024234 218.39160919 -0.01358986 C239.07365971 -0.02963333 259.7556754 -0.03597153 280.43773127 -0.02675307 C282.64184474 -0.02579739 284.84595823 -0.02485428 287.05007172 -0.02392387 C288.67690052 -0.02322963 288.67690052 -0.02322963 290.33659455 -0.02252137 C297.99063766 -0.01992778 305.64465873 -0.02431042 313.29869843 -0.03136253 C322.62253729 -0.03976404 331.94630036 -0.03752587 341.27013052 -0.0215203 C346.03007263 -0.01361938 350.78988822 -0.0105769 355.54982948 -0.02046776 C359.90339634 -0.02937758 364.25671886 -0.02454345 368.61026341 -0.0085351 C370.18893696 -0.00517149 371.76763097 -0.00691662 373.34629148 -0.01416247 C375.48539502 -0.02323093 377.6236519 -0.01398458 379.76271057 0 C381.54794089 0.00073059 381.54794089 0.00073059 383.36923647 0.00147593 C386.67929213 0.4147193 388.09227886 0.97286911 390.38135529 3.37752342 C391.11707013 9.26324221 391.11707013 9.26324221 389.26211309 12.07267821 C386.46786395 14.01129178 384.23122081 13.75367191 380.85173035 13.75504684 C380.18226 13.75940717 379.51278965 13.76376749 378.82303232 13.76825994 C376.56350309 13.77927125 374.30457709 13.76876739 372.04505157 13.75847435 C370.41530115 13.76192861 368.78555305 13.7666916 367.15580988 13.77265608 C362.664695 13.7852277 358.17377035 13.77896784 353.68265462 13.76969743 C348.84414558 13.76293239 344.00567012 13.77337548 339.16716766 13.78163719 C329.68353774 13.79500401 320.19997889 13.79208369 310.71634614 13.78339927 C303.01144028 13.7766347 295.3065544 13.77570068 287.60164642 13.77897072 C285.95915385 13.77966027 285.95915385 13.77966027 284.2834796 13.78036375 C282.05928639 13.78132288 279.83509318 13.78229552 277.61089998 13.78328152 C256.73574305 13.79184405 235.86062559 13.78198776 214.98547512 13.76588042 C197.05865889 13.75247646 179.13190093 13.75480431 161.20508575 13.7686367 C140.40658975 13.78467729 119.60812838 13.79102 98.80962706 13.78179991 C96.59343943 13.78084423 94.37725179 13.77990111 92.16106415 13.77897072 C91.07054769 13.77850789 89.98003124 13.77804507 88.85646883 13.77756821 C81.15738386 13.77497375 73.45832078 13.77935912 65.7592392 13.78640938 C56.38154888 13.7948077 47.00393393 13.79257948 37.62625229 13.77656715 C32.83808754 13.76866189 28.05004862 13.76563103 23.26188469 13.7755146 C18.88365837 13.78441557 14.50567522 13.77960516 10.12747115 13.76358195 C8.53869134 13.76021453 6.94989123 13.76197184 5.36112434 13.76920931 C3.21077917 13.77825799 1.06128027 13.76905195 -1.08901978 13.75504684 C-2.28617064 13.75455979 -3.4833215 13.75407273 -4.71674967 13.75357091 C-7.61864471 13.37752342 -7.61864471 13.37752342 -9.49940252 12.07267821 C-11.41142622 9.17681157 -11.03655305 6.72079013 -10.61864471 3.37752342 C-7.39184401 -0.01220186 -4.5337873 0.0018554 0 0 Z " fill="#292828" transform="translate(501.61864471435547,354.6224765777588)"/>
<path d="M0 0 C0.87497194 -0.00782324 1.74994389 -0.01564648 2.65143013 -0.02370679 C3.61338232 -0.01701463 4.57533451 -0.01032246 5.56643677 -0.00342751 C6.58777143 -0.00810748 7.6091061 -0.01278745 8.6613903 -0.01760924 C12.1000842 -0.02962092 15.53838411 -0.02007778 18.9770813 -0.01066017 C21.4356815 -0.01472312 23.89427987 -0.02006344 26.35287476 -0.02659035 C32.34733304 -0.03887706 38.34163542 -0.03704111 44.3360877 -0.02835242 C49.20680511 -0.02158412 54.07749092 -0.02065545 58.94821167 -0.02392387 C59.64077934 -0.02438357 60.33334701 -0.02484327 61.04690158 -0.0253169 C62.4537298 -0.02627605 63.860558 -0.02724869 65.2673862 -0.02823468 C78.46695915 -0.03679442 91.66646965 -0.02694529 104.86603236 -0.01083358 C116.19800183 0.00257015 127.52987912 0.00024222 138.86184692 -0.01358986 C152.01338024 -0.02963537 165.16485879 -0.0359704 178.31640053 -0.02675307 C179.71812565 -0.0257974 181.11985079 -0.02485428 182.52157593 -0.02392387 C183.55615663 -0.02322963 183.55615663 -0.02322963 184.61163795 -0.02252137 C189.47791155 -0.01992838 194.34415047 -0.0243091 199.2104187 -0.03136253 C205.75702754 -0.04064273 212.30348878 -0.03405923 218.85009003 -0.01667976 C221.25799011 -0.0127006 223.6659048 -0.01387323 226.07379913 -0.02046776 C229.35051734 -0.02861682 232.62666911 -0.01844196 235.90335083 -0.00342751 C237.34627912 -0.01346575 237.34627912 -0.01346575 238.81835747 -0.02370679 C239.69332941 -0.01588355 240.56830135 -0.00806031 241.4697876 0 C242.60480052 0.00073059 242.60480052 0.00073059 243.762743 0.00147593 C246.30319209 0.4858859 247.19013304 1.33249238 248.7348938 3.37752342 C249.37840482 8.52561156 249.37840482 8.52561156 247.47802544 11.04142821 C245.30729578 12.70527358 244.18498032 12.75329913 241.4697876 12.75504684 C240.59481565 12.76287009 239.71984371 12.77069333 238.81835747 12.77875364 C237.85640528 12.77206147 236.89445309 12.76536931 235.90335083 12.75847435 C234.88201616 12.76315432 233.8606815 12.76783429 232.80839729 12.77265608 C229.36970339 12.78466776 225.93140349 12.77512462 222.4927063 12.76570702 C220.0341061 12.76976997 217.57550773 12.77511028 215.11691284 12.78163719 C209.12245455 12.79392391 203.12815217 12.79208795 197.13369989 12.78339927 C192.26298249 12.77663097 187.39229668 12.77570229 182.52157593 12.77897072 C181.82900826 12.77943042 181.13644058 12.77989012 180.42288601 12.78036375 C179.0160578 12.7813229 177.6092296 12.78229554 176.2024014 12.78328152 C163.00282845 12.79184127 149.80331795 12.78199213 136.60375524 12.76588042 C125.27178577 12.75247669 113.93990848 12.75480462 102.60794067 12.7686367 C89.45640736 12.78468222 76.30492881 12.79101724 63.15338707 12.78179991 C61.75166194 12.78084424 60.34993681 12.77990113 58.94821167 12.77897072 C57.91363097 12.77827648 57.91363097 12.77827648 56.85814965 12.77756821 C51.99187605 12.77497523 47.12563712 12.77935594 42.2593689 12.78640938 C35.71276006 12.79568958 29.16629882 12.78910608 22.61969757 12.77172661 C20.21179749 12.76774744 17.8038828 12.76892007 15.39598846 12.7755146 C12.11927025 12.78366366 8.84311849 12.7734888 5.56643677 12.75847435 C4.12350848 12.7685126 4.12350848 12.7685126 2.65143013 12.77875364 C1.77645819 12.7709304 0.90148624 12.76310715 0 12.75504684 C-0.75667528 12.75455979 -1.51335056 12.75407273 -2.2929554 12.75357091 C-4.83340449 12.26916094 -5.72034544 11.42255447 -7.2651062 9.37752342 C-7.90861722 4.22943528 -7.90861722 4.22943528 -6.00823784 1.71361864 C-3.83750818 0.04977326 -2.71519272 0.00174772 0 0 Z " fill="#252424" transform="translate(498.2651062011719,272.6224765777588)"/>
</svg>
