<?xml version="1.0" standalone="no"?>
<!DOCTYPE svg PUBLIC "-//W3C//DTD SVG 20010904//EN"
 "http://www.w3.org/TR/2001/REC-SVG-20010904/DTD/svg10.dtd">
<svg version="1.0" xmlns="http://www.w3.org/2000/svg"
 width="492.000000pt" height="442.000000pt" viewBox="0 0 492.000000 442.000000"
 preserveAspectRatio="xMidYMid meet">

<g transform="translate(0.000000,442.000000) scale(0.100000,-0.100000)"
fill="#000000" stroke="none">
<path d="M2155 4394 c-506 -39 -897 -117 -1343 -266 l-152 -51 2 -1061 3
-1061 100 -3 100 -3 -3 989 -2 988 147 47 c719 228 1514 280 2283 151 184 -31
446 -95 635 -155 l135 -43 -2 -988 -3 -988 96 0 c79 0 98 3 103 16 3 9 6 485
6 1059 0 1026 0 1044 -20 1055 -10 6 -93 35 -184 65 -320 106 -720 192 -1076
231 -137 15 -704 27 -825 18z"/>
<path d="M1158 913 c120 -144 459 -412 722 -572 246 -149 555 -297 598 -286
57 14 332 143 471 220 310 172 506 317 764 565 132 126 134 120 -30 120 l-138
-1 -90 -80 c-245 -219 -577 -430 -897 -569 l-97 -43 -135 66 c-317 154 -598
338 -833 546 l-92 81 -142 0 -141 0 40 -47z"/>
</g>
</svg>
