<?xml version="1.0" standalone="no"?>
<!DOCTYPE svg PUBLIC "-//W3C//DTD SVG 20010904//EN"
 "http://www.w3.org/TR/2001/REC-SVG-20010904/DTD/svg10.dtd">
<svg version="1.0" xmlns="http://www.w3.org/2000/svg"
 width="64.000000pt" height="64.000000pt" viewBox="0 0 64.000000 64.000000"
 preserveAspectRatio="xMidYMid meet">

<g transform="translate(0.000000,64.000000) scale(0.100000,-0.100000)"
fill="#000000" stroke="none">
<path d="M123 601 c-36 -23 -63 -68 -63 -106 0 -31 45 -130 93 -204 l35 -54
28 44 c63 100 94 170 94 215 0 94 -108 155 -187 105z m117 -16 c63 -33 68 -93
15 -197 -20 -40 -43 -82 -51 -93 -15 -20 -15 -20 -34 5 -36 46 -90 166 -90
199 0 24 9 42 34 67 38 38 77 44 126 19z"/>
<path d="M146 534 c-43 -43 5 -120 60 -96 13 7 29 23 36 36 24 55 -53 103 -96
60z m74 -19 c15 -19 4 -52 -21 -60 -11 -4 -26 -1 -34 5 -15 13 -20 51 -8 63
12 12 50 7 63 -8z"/>
<path d="M160 380 c0 -5 5 -10 10 -10 6 0 10 5 10 10 0 6 -4 10 -10 10 -5 0
-10 -4 -10 -10z"/>
<path d="M190 380 c0 -5 5 -10 10 -10 6 0 10 5 10 10 0 6 -4 10 -10 10 -5 0
-10 -4 -10 -10z"/>
<path d="M555 390 c-57 -58 -70 -59 -119 -11 -36 35 -48 41 -84 41 -26 0 -41
-4 -37 -10 3 -5 21 -10 39 -10 24 0 41 -10 71 -40 21 -22 48 -40 60 -40 11 0
41 20 65 45 33 34 47 42 57 33 15 -12 17 -44 3 -53 -5 -3 -10 -41 -10 -84 0
-58 -4 -82 -15 -91 -18 -15 -20 -51 -4 -67 7 -7 9 -19 5 -29 -6 -15 -10 -14
-35 10 -26 25 -33 27 -102 24 l-74 -3 0 -30 c-1 -42 -24 -42 -65 0 -31 32 -38
35 -95 35 l-61 0 -67 68 -67 68 0 77 c0 70 2 77 20 77 11 0 20 5 20 10 0 6
-13 10 -30 10 l-30 0 0 -92 0 -93 72 -72 72 -73 61 0 c57 0 64 -3 95 -35 19
-19 41 -35 50 -35 24 0 52 34 44 54 -5 14 3 16 62 16 60 0 71 -3 96 -27 23
-22 30 -24 43 -13 17 14 20 56 5 65 -15 9 -12 41 5 55 11 9 15 33 15 91 0 43
5 81 10 84 16 10 11 51 -8 68 -10 10 -21 17 -23 17 -3 0 -22 -18 -44 -40z"/>
</g>
</svg>
